%TF.GenerationSoftware,KiCad,Pcbnew,9.0.5*%
%TF.CreationDate,2026-03-03T23:56:26-05:00*%
%TF.ProjectId,air_purifier_electronics,6169725f-7075-4726-9966-6965725f656c,rev?*%
%TF.SameCoordinates,Original*%
%TF.FileFunction,Copper,L2,Bot*%
%TF.FilePolarity,Positive*%
%FSLAX46Y46*%
G04 Gerber Fmt 4.6, Leading zero omitted, Abs format (unit mm)*
G04 Created by KiCad (PCBNEW 9.0.5) date 2026-03-03 23:56:26*
%MOMM*%
%LPD*%
G01*
G04 APERTURE LIST*
G04 Aperture macros list*
%AMRoundRect*
0 Rectangle with rounded corners*
0 $1 Rounding radius*
0 $2 $3 $4 $5 $6 $7 $8 $9 X,Y pos of 4 corners*
0 Add a 4 corners polygon primitive as box body*
4,1,4,$2,$3,$4,$5,$6,$7,$8,$9,$2,$3,0*
0 Add four circle primitives for the rounded corners*
1,1,$1+$1,$2,$3*
1,1,$1+$1,$4,$5*
1,1,$1+$1,$6,$7*
1,1,$1+$1,$8,$9*
0 Add four rect primitives between the rounded corners*
20,1,$1+$1,$2,$3,$4,$5,0*
20,1,$1+$1,$4,$5,$6,$7,0*
20,1,$1+$1,$6,$7,$8,$9,0*
20,1,$1+$1,$8,$9,$2,$3,0*%
G04 Aperture macros list end*
%TA.AperFunction,ComponentPad*%
%ADD10R,2.000000X2.000000*%
%TD*%
%TA.AperFunction,ComponentPad*%
%ADD11R,2.000000X1.200000*%
%TD*%
%TA.AperFunction,ComponentPad*%
%ADD12O,2.540000X1.270000*%
%TD*%
%TA.AperFunction,ComponentPad*%
%ADD13C,5.600000*%
%TD*%
%TA.AperFunction,ComponentPad*%
%ADD14R,1.730000X2.030000*%
%TD*%
%TA.AperFunction,ComponentPad*%
%ADD15O,1.730000X2.030000*%
%TD*%
%TA.AperFunction,ComponentPad*%
%ADD16RoundRect,0.760000X-1.140000X1.140000X-1.140000X-1.140000X1.140000X-1.140000X1.140000X1.140000X0*%
%TD*%
%TA.AperFunction,ComponentPad*%
%ADD17C,3.800000*%
%TD*%
%TA.AperFunction,ComponentPad*%
%ADD18RoundRect,0.190500X-0.762000X-0.444500X0.762000X-0.444500X0.762000X0.444500X-0.762000X0.444500X0*%
%TD*%
%TA.AperFunction,ComponentPad*%
%ADD19R,1.980000X3.960000*%
%TD*%
%TA.AperFunction,ComponentPad*%
%ADD20O,1.980000X3.960000*%
%TD*%
%TA.AperFunction,ViaPad*%
%ADD21C,0.600000*%
%TD*%
%TA.AperFunction,Conductor*%
%ADD22C,0.500000*%
%TD*%
%TA.AperFunction,Conductor*%
%ADD23C,0.250000*%
%TD*%
G04 APERTURE END LIST*
D10*
%TO.P,TP11,1,1*%
%TO.N,5vPWM3*%
X135212500Y-141900000D03*
%TD*%
D11*
%TO.P,U1,1,3V3*%
%TO.N,+3.3V*%
X153750000Y-114230000D03*
D12*
%TO.P,U1,2,CHIP_PU*%
%TO.N,unconnected-(U1-CHIP_PU-Pad2)*%
X153750000Y-111690000D03*
%TO.P,U1,3,SENSOR_VP/GPIO36/ADC1_CH0*%
%TO.N,TACH3*%
X153750000Y-109150000D03*
%TO.P,U1,4,SENSOR_VN/GPIO39/ADC1_CH3*%
%TO.N,TACH2*%
X153750000Y-106610000D03*
%TO.P,U1,5,VDET_1/GPIO34/ADC1_CH6*%
%TO.N,TACH1*%
X153750000Y-104070000D03*
%TO.P,U1,6,VDET_2/GPIO35/ADC1_CH7*%
%TO.N,TACH4*%
X153750000Y-101530000D03*
%TO.P,U1,7,32K_XP/GPIO32/ADC1_CH4*%
%TO.N,Net-(J2-Pin_3)*%
X153750000Y-98990000D03*
%TO.P,U1,8,32K_XN/GPIO33/ADC1_CH5*%
%TO.N,unconnected-(U1-32K_XN{slash}GPIO33{slash}ADC1_CH5-Pad8)*%
X153750000Y-96450000D03*
%TO.P,U1,9,DAC_1/ADC2_CH8/GPIO25*%
%TO.N,ENABLE_FAN2*%
X153750000Y-93910000D03*
%TO.P,U1,10,DAC_2/ADC2_CH9/GPIO26*%
%TO.N,ENABLE_FAN1*%
X153750000Y-91370000D03*
%TO.P,U1,11,ADC2_CH7/GPIO27*%
%TO.N,ENABLE_FAN3*%
X153750000Y-88830000D03*
%TO.P,U1,12,MTMS/GPIO14/ADC2_CH6*%
%TO.N,unconnected-(U1-MTMS{slash}GPIO14{slash}ADC2_CH6-Pad12)*%
X153750000Y-86290000D03*
%TO.P,U1,13,MTDI/GPIO12/ADC2_CH5*%
%TO.N,unconnected-(U1-MTDI{slash}GPIO12{slash}ADC2_CH5-Pad13)*%
X153750000Y-83750000D03*
%TO.P,U1,14,GND*%
%TO.N,GND*%
X153750000Y-81210000D03*
%TO.P,U1,15,MTCK/GPIO13/ADC2_CH4*%
%TO.N,unconnected-(U1-MTCK{slash}GPIO13{slash}ADC2_CH4-Pad15)*%
X153750000Y-78670000D03*
%TO.P,U1,16,SD_DATA2/GPIO9*%
%TO.N,unconnected-(U1-SD_DATA2{slash}GPIO9-Pad16)*%
X153750000Y-76130000D03*
%TO.P,U1,17,SD_DATA3/GPIO10*%
%TO.N,unconnected-(U1-SD_DATA3{slash}GPIO10-Pad17)*%
X153750000Y-73590000D03*
%TO.P,U1,18,CMD*%
%TO.N,unconnected-(U1-CMD-Pad18)*%
X153750000Y-71050000D03*
%TO.P,U1,19,5V*%
%TO.N,+5V*%
X153750000Y-68510000D03*
%TO.P,U1,20,SD_CLK/GPIO6*%
%TO.N,unconnected-(U1-SD_CLK{slash}GPIO6-Pad20)*%
X130890000Y-68512720D03*
%TO.P,U1,21,SD_DATA0/GPIO7*%
%TO.N,unconnected-(U1-SD_DATA0{slash}GPIO7-Pad21)*%
X130890000Y-71052720D03*
%TO.P,U1,22,SD_DATA1/GPIO8*%
%TO.N,unconnected-(U1-SD_DATA1{slash}GPIO8-Pad22)*%
X130886320Y-73590000D03*
%TO.P,U1,23,MTDO/GPIO15/ADC2_CH3*%
%TO.N,unconnected-(U1-MTDO{slash}GPIO15{slash}ADC2_CH3-Pad23)*%
X130886320Y-76130000D03*
%TO.P,U1,24,ADC2_CH2/GPIO2*%
%TO.N,unconnected-(U1-ADC2_CH2{slash}GPIO2-Pad24)*%
X130886320Y-78670000D03*
%TO.P,U1,25,GPIO0/BOOT/ADC2_CH1*%
%TO.N,unconnected-(U1-GPIO0{slash}BOOT{slash}ADC2_CH1-Pad25)*%
X130886320Y-81210000D03*
%TO.P,U1,26,ADC2_CH0/GPIO4*%
%TO.N,unconnected-(U1-ADC2_CH0{slash}GPIO4-Pad26)*%
X130886320Y-83750000D03*
%TO.P,U1,27,GPIO16*%
%TO.N,unconnected-(U1-GPIO16-Pad27)*%
X130886320Y-86290000D03*
%TO.P,U1,28,GPIO17*%
%TO.N,unconnected-(U1-GPIO17-Pad28)*%
X130886320Y-88830000D03*
%TO.P,U1,29,GPIO5*%
%TO.N,unconnected-(U1-GPIO5-Pad29)*%
X130886320Y-91370000D03*
%TO.P,U1,30,GPIO18*%
%TO.N,3vPWM4*%
X130886320Y-93910000D03*
%TO.P,U1,31,GPIO19*%
%TO.N,3vPWM3*%
X130886320Y-96450000D03*
%TO.P,U1,32,GND*%
%TO.N,GND*%
X130886320Y-98990000D03*
%TO.P,U1,33,GPIO21*%
%TO.N,3vPWM2*%
X130886320Y-101530000D03*
%TO.P,U1,34,U0RXD/GPIO3*%
%TO.N,unconnected-(U1-U0RXD{slash}GPIO3-Pad34)*%
X130886320Y-104070000D03*
%TO.P,U1,35,U0TXD/GPIO1*%
%TO.N,unconnected-(U1-U0TXD{slash}GPIO1-Pad35)*%
X130886320Y-106610000D03*
%TO.P,U1,36,GPIO22*%
%TO.N,3vPWM1*%
X130886320Y-109150000D03*
%TO.P,U1,37,GPIO23*%
%TO.N,ENABLE_FAN4*%
X130886320Y-111690000D03*
%TO.P,U1,38,GND*%
%TO.N,GND*%
X130886320Y-114230000D03*
%TD*%
D13*
%TO.P,H2,1,1*%
%TO.N,unconnected-(H2-Pad1)*%
X192000000Y-51000000D03*
%TD*%
D14*
%TO.P,M3,1,-*%
%TO.N,GND*%
X142912500Y-141900000D03*
D15*
%TO.P,M3,2,+*%
%TO.N,Net-(M3-+)*%
X145452500Y-141900000D03*
%TO.P,M3,3,Tacho*%
%TO.N,TACH2*%
X147992500Y-141900000D03*
%TO.P,M3,4,PWM*%
%TO.N,5vPWM2*%
X150532500Y-141900000D03*
%TD*%
D10*
%TO.P,TP2,1,1*%
%TO.N,ENABLE_FAN4*%
X105912500Y-135900000D03*
%TD*%
%TO.P,TP16,1,1*%
%TO.N,+5V*%
X188500000Y-128000000D03*
%TD*%
D16*
%TO.P,J1,1,Pin_1*%
%TO.N,GND*%
X187500000Y-65500000D03*
D17*
%TO.P,J1,2,Pin_2*%
%TO.N,+12V*%
X187500000Y-70500000D03*
%TD*%
D14*
%TO.P,M1,1,-*%
%TO.N,GND*%
X105312500Y-141900000D03*
D15*
%TO.P,M1,2,+*%
%TO.N,Net-(M1-+)*%
X107852500Y-141900000D03*
%TO.P,M1,3,Tacho*%
%TO.N,TACH4*%
X110392500Y-141900000D03*
%TO.P,M1,4,PWM*%
%TO.N,5vPWM4*%
X112932500Y-141900000D03*
%TD*%
D14*
%TO.P,M2,1,-*%
%TO.N,GND*%
X124112500Y-141900000D03*
D15*
%TO.P,M2,2,+*%
%TO.N,Net-(M2-+)*%
X126652500Y-141900000D03*
%TO.P,M2,3,Tacho*%
%TO.N,TACH1*%
X129192500Y-141900000D03*
%TO.P,M2,4,PWM*%
%TO.N,5vPWM3*%
X131732500Y-141900000D03*
%TD*%
D10*
%TO.P,TP14,1,1*%
%TO.N,GND*%
X187500000Y-58500000D03*
%TD*%
%TO.P,TP9,1,1*%
%TO.N,TACH3*%
X173825000Y-128100000D03*
%TD*%
D13*
%TO.P,H3,1,1*%
%TO.N,unconnected-(H3-Pad1)*%
X98000000Y-51000000D03*
%TD*%
D10*
%TO.P,TP3,1,1*%
%TO.N,ENABLE_FAN1*%
X124712500Y-135900000D03*
%TD*%
%TO.P,TP17,1,1*%
%TO.N,+12V*%
X187500000Y-77000000D03*
%TD*%
%TO.P,TP8,1,1*%
%TO.N,TACH2*%
X153800000Y-128000000D03*
%TD*%
%TO.P,TP7,1,1*%
%TO.N,TACH1*%
X135000000Y-128000000D03*
%TD*%
%TO.P,TP5,1,1*%
%TO.N,ENABLE_FAN3*%
X163537500Y-136000000D03*
%TD*%
%TO.P,TP12,1,1*%
%TO.N,5vPWM2*%
X154012500Y-141900000D03*
%TD*%
%TO.P,TP19,1,1*%
%TO.N,3vPWM2*%
X115000000Y-109000000D03*
%TD*%
D13*
%TO.P,H1,1,1*%
%TO.N,unconnected-(H1-Pad1)*%
X192000000Y-145000000D03*
%TD*%
D10*
%TO.P,TP18,1,1*%
%TO.N,3vPWM1*%
X121000000Y-109000000D03*
%TD*%
%TO.P,TP13,1,1*%
%TO.N,5vPWM1*%
X174037500Y-142000000D03*
%TD*%
%TO.P,TP15,1,1*%
%TO.N,+3.3V*%
X159500000Y-114500000D03*
%TD*%
D18*
%TO.P,U2,1,IN-*%
%TO.N,GND*%
X168500000Y-82000000D03*
%TO.P,U2,2,IN+*%
%TO.N,+12V*%
X187500000Y-82000000D03*
%TO.P,U2,3,OUT-*%
%TO.N,GND*%
X168500000Y-124000000D03*
%TO.P,U2,4,OUT+*%
%TO.N,+5V*%
X187500000Y-124000000D03*
%TD*%
D14*
%TO.P,M4,1,-*%
%TO.N,GND*%
X162937500Y-142000000D03*
D15*
%TO.P,M4,2,+*%
%TO.N,Net-(M4-+)*%
X165477500Y-142000000D03*
%TO.P,M4,3,Tacho*%
%TO.N,TACH3*%
X168017500Y-142000000D03*
%TO.P,M4,4,PWM*%
%TO.N,5vPWM1*%
X170557500Y-142000000D03*
%TD*%
D10*
%TO.P,TP10,1,1*%
%TO.N,5vPWM4*%
X116412500Y-141900000D03*
%TD*%
%TO.P,TP6,1,1*%
%TO.N,TACH4*%
X116200000Y-128000000D03*
%TD*%
%TO.P,TP4,1,1*%
%TO.N,ENABLE_FAN2*%
X143512500Y-135900000D03*
%TD*%
D13*
%TO.P,H4,1,1*%
%TO.N,unconnected-(H4-Pad1)*%
X98000000Y-145000000D03*
%TD*%
D10*
%TO.P,TP20,1,1*%
%TO.N,3vPWM3*%
X109500000Y-109000000D03*
%TD*%
%TO.P,TP21,1,1*%
%TO.N,3vPWM4*%
X103000000Y-109000000D03*
%TD*%
D19*
%TO.P,J2,1,Pin_1*%
%TO.N,+5V*%
X123500000Y-56000000D03*
D20*
%TO.P,J2,2,Pin_2*%
%TO.N,+12V*%
X118500000Y-56000000D03*
%TO.P,J2,3,Pin_3*%
%TO.N,Net-(J2-Pin_3)*%
X113500000Y-56000000D03*
%TO.P,J2,4,Pin_4*%
%TO.N,GND*%
X108500000Y-56000000D03*
%TD*%
D21*
%TO.N,GND*%
X102000000Y-67000000D03*
X114000000Y-125500000D03*
X101500000Y-59000000D03*
X130500000Y-131000000D03*
X101500000Y-131000000D03*
X177500000Y-59000000D03*
X160500000Y-97500000D03*
X159500000Y-83000000D03*
X157500000Y-100500000D03*
X171000000Y-57500000D03*
X178000000Y-100000000D03*
X113500000Y-136500000D03*
X167500000Y-78500000D03*
X177500000Y-80000000D03*
X151000000Y-54000000D03*
X174500000Y-77500000D03*
X160500000Y-136000000D03*
X126500000Y-126500000D03*
X188500000Y-61000000D03*
X166000000Y-112500000D03*
X125000000Y-98500000D03*
X171000000Y-115000000D03*
X190000000Y-91000000D03*
X149500000Y-118000000D03*
X159500000Y-80500000D03*
X142500000Y-138500000D03*
X97000000Y-140500000D03*
X106500000Y-126000000D03*
X114500000Y-135500000D03*
X98500000Y-128000000D03*
X173500000Y-114000000D03*
X177500000Y-55000000D03*
X180500000Y-99500000D03*
X112000000Y-118500000D03*
X128500000Y-125500000D03*
X172500000Y-116000000D03*
X140000000Y-136000000D03*
X164500000Y-103000000D03*
X161500000Y-82000000D03*
X140000000Y-126500000D03*
X124000000Y-104000000D03*
X189500000Y-114500000D03*
X158500000Y-98000000D03*
X96500000Y-118000000D03*
X109500000Y-74500000D03*
X139500000Y-144500000D03*
X111500000Y-128000000D03*
X138000000Y-98000000D03*
X136000000Y-108000000D03*
X142000000Y-120000000D03*
X104500000Y-138500000D03*
X122000000Y-126000000D03*
X133000000Y-63000000D03*
X113000000Y-92500000D03*
X138000000Y-59000000D03*
X136000000Y-57500000D03*
X153500000Y-55000000D03*
X146000000Y-138000000D03*
X177500000Y-92000000D03*
X96000000Y-138000000D03*
X166000000Y-108500000D03*
X174500000Y-123500000D03*
X183000000Y-136000000D03*
X115500000Y-116000000D03*
X194000000Y-123000000D03*
X139000000Y-84000000D03*
X144000000Y-119000000D03*
X104500000Y-123000000D03*
X180500000Y-133000000D03*
X144000000Y-79500000D03*
X173500000Y-139000000D03*
X140500000Y-63000000D03*
X124500000Y-138000000D03*
X99000000Y-122000000D03*
X140000000Y-125500000D03*
X158500000Y-144000000D03*
X122000000Y-144500000D03*
X159500000Y-87500000D03*
X181500000Y-92500000D03*
X107000000Y-68000000D03*
X176500000Y-124000000D03*
X117500000Y-77000000D03*
X154000000Y-58500000D03*
X177500000Y-97500000D03*
X158500000Y-137500000D03*
X122000000Y-138000000D03*
X162500000Y-71500000D03*
X164000000Y-120000000D03*
X186000000Y-114500000D03*
X116500000Y-123500000D03*
X109500000Y-118000000D03*
X187000000Y-88000000D03*
X122500000Y-98500000D03*
X173000000Y-71000000D03*
X164500000Y-125000000D03*
X103000000Y-136000000D03*
X103500000Y-124000000D03*
X108500000Y-124500000D03*
X112000000Y-131500000D03*
X127500000Y-124500000D03*
X98500000Y-134500000D03*
X181500000Y-140000000D03*
X118500000Y-102500000D03*
X142500000Y-139500000D03*
X116500000Y-116500000D03*
X192000000Y-65500000D03*
X128500000Y-116000000D03*
X133000000Y-59000000D03*
X172000000Y-60500000D03*
X99500000Y-130000000D03*
X97500000Y-112000000D03*
X101000000Y-82000000D03*
X178500000Y-127000000D03*
X169000000Y-79000000D03*
X146500000Y-95500000D03*
X170000000Y-145000000D03*
X141500000Y-127500000D03*
X183000000Y-52000000D03*
X173500000Y-95500000D03*
X116000000Y-67000000D03*
X155500000Y-118500000D03*
X165500000Y-121000000D03*
X102500000Y-123000000D03*
X163000000Y-144500000D03*
X125500000Y-79500000D03*
X169000000Y-96000000D03*
X169000000Y-131500000D03*
X158500000Y-90500000D03*
X166000000Y-123500000D03*
X97500000Y-123500000D03*
X184000000Y-61500000D03*
X133500000Y-51500000D03*
X125000000Y-117500000D03*
X148500000Y-78000000D03*
X167500000Y-54500000D03*
X117500000Y-97500000D03*
X193500000Y-141500000D03*
X149000000Y-126000000D03*
X168500000Y-74000000D03*
X130000000Y-128500000D03*
X160000000Y-137000000D03*
X172000000Y-128000000D03*
X111000000Y-123000000D03*
X99000000Y-138500000D03*
X160000000Y-101000000D03*
X157500000Y-130500000D03*
X157000000Y-95000000D03*
X153000000Y-116000000D03*
X156500000Y-125000000D03*
X163000000Y-93500000D03*
X178500000Y-107000000D03*
X140500000Y-51500000D03*
X194000000Y-117000000D03*
X159500000Y-84500000D03*
X96500000Y-123500000D03*
X144000000Y-139500000D03*
X139500000Y-143000000D03*
X108000000Y-115500000D03*
X136000000Y-144500000D03*
X185500000Y-85000000D03*
X140500000Y-76000000D03*
X140500000Y-138000000D03*
X181500000Y-140000000D03*
X183000000Y-123000000D03*
X177000000Y-89000000D03*
X168500000Y-127500000D03*
X123500000Y-145000000D03*
X118500000Y-96500000D03*
X194000000Y-110000000D03*
X165500000Y-122500000D03*
X170500000Y-92000000D03*
X145500000Y-93000000D03*
X170500000Y-79500000D03*
X138500000Y-88500000D03*
X164000000Y-53500000D03*
X165500000Y-58500000D03*
X105000000Y-120500000D03*
X118000000Y-70000000D03*
X161000000Y-79500000D03*
X157000000Y-98500000D03*
X157000000Y-82500000D03*
X130500000Y-117500000D03*
X168500000Y-80000000D03*
X162000000Y-90000000D03*
X164000000Y-138500000D03*
X137000000Y-110500000D03*
X155500000Y-134500000D03*
X117500000Y-84500000D03*
X128000000Y-107500000D03*
X169000000Y-139000000D03*
X169500000Y-118500000D03*
X142000000Y-131000000D03*
X143000000Y-127000000D03*
X149000000Y-93000000D03*
X164500000Y-127000000D03*
X147000000Y-53500000D03*
X106000000Y-99000000D03*
X132000000Y-117000000D03*
X175000000Y-79500000D03*
X144500000Y-71000000D03*
X185000000Y-132500000D03*
X171500000Y-112500000D03*
X172000000Y-131000000D03*
X142000000Y-78000000D03*
X117000000Y-91500000D03*
X145500000Y-136500000D03*
X98500000Y-68500000D03*
X181500000Y-128000000D03*
X164000000Y-97000000D03*
X131500000Y-144500000D03*
X120500000Y-100500000D03*
X172000000Y-100500000D03*
X133500000Y-118000000D03*
X111000000Y-126500000D03*
X158000000Y-96000000D03*
X168000000Y-61500000D03*
X181500000Y-112000000D03*
X110500000Y-105000000D03*
X169000000Y-130500000D03*
X127500000Y-98500000D03*
X159500000Y-138500000D03*
X139500000Y-92000000D03*
X146500000Y-103500000D03*
X174500000Y-87000000D03*
X107500000Y-110000000D03*
X107500000Y-138500000D03*
X147000000Y-137000000D03*
X142000000Y-90000000D03*
X160000000Y-109000000D03*
X183500000Y-125500000D03*
X147500000Y-70500000D03*
X180500000Y-88000000D03*
X187000000Y-98000000D03*
X115000000Y-74500000D03*
X115000000Y-124500000D03*
X156500000Y-122000000D03*
X137500000Y-100500000D03*
X98000000Y-140000000D03*
X121000000Y-118000000D03*
X111000000Y-71500000D03*
X159500000Y-78500000D03*
X160500000Y-102000000D03*
X182500000Y-50000000D03*
X185500000Y-130500000D03*
X194000000Y-120000000D03*
X162500000Y-127000000D03*
X164500000Y-87000000D03*
X142500000Y-126500000D03*
X97000000Y-135000000D03*
X125500000Y-144500000D03*
X149500000Y-72000000D03*
X170000000Y-112000000D03*
X164500000Y-89000000D03*
X130000000Y-130000000D03*
X100000000Y-74500000D03*
X144000000Y-74500000D03*
X194000000Y-125500000D03*
X139000000Y-138500000D03*
X145000000Y-138000000D03*
X173000000Y-58000000D03*
X139500000Y-110500000D03*
X129500000Y-51500000D03*
X138500000Y-95000000D03*
X100000000Y-110000000D03*
X144500000Y-103000000D03*
X159500000Y-63000000D03*
X153000000Y-61000000D03*
X172000000Y-134500000D03*
X98500000Y-126500000D03*
X190000000Y-109500000D03*
X141000000Y-125000000D03*
X129000000Y-62500000D03*
X159000000Y-108000000D03*
X120000000Y-111500000D03*
X185000000Y-127000000D03*
X107500000Y-111000000D03*
X126500000Y-113500000D03*
X171500000Y-73500000D03*
X134000000Y-113000000D03*
X157000000Y-87500000D03*
X106500000Y-139500000D03*
X138500000Y-102000000D03*
X172000000Y-120500000D03*
X127000000Y-120000000D03*
X158500000Y-103500000D03*
X165500000Y-73500000D03*
X194000000Y-129500000D03*
X176000000Y-84500000D03*
X160500000Y-138500000D03*
X148000000Y-51000000D03*
X143000000Y-131000000D03*
X126000000Y-134000000D03*
X161500000Y-57000000D03*
X146500000Y-56000000D03*
X97500000Y-137500000D03*
X144500000Y-97500000D03*
X179500000Y-84500000D03*
X164500000Y-123000000D03*
X194000000Y-88500000D03*
X184500000Y-142000000D03*
X126500000Y-115000000D03*
X136500000Y-70500000D03*
X100500000Y-117500000D03*
X98500000Y-110000000D03*
X186000000Y-109000000D03*
X180000000Y-123500000D03*
X148500000Y-130000000D03*
X122000000Y-105500000D03*
X143500000Y-51500000D03*
X147000000Y-75500000D03*
X175500000Y-98500000D03*
X129500000Y-144500000D03*
X156500000Y-107500000D03*
X98500000Y-61000000D03*
X123000000Y-73000000D03*
X160500000Y-92000000D03*
X176500000Y-144000000D03*
X192000000Y-80500000D03*
X127500000Y-137500000D03*
X158500000Y-136000000D03*
X114000000Y-114500000D03*
X160500000Y-89000000D03*
X194000000Y-96000000D03*
X146500000Y-90000000D03*
X160000000Y-99500000D03*
X127000000Y-134000000D03*
X134000000Y-111000000D03*
X115000000Y-100000000D03*
X111500000Y-82500000D03*
X162500000Y-131000000D03*
X131000000Y-124000000D03*
X186000000Y-92500000D03*
X180000000Y-69500000D03*
X118000000Y-116000000D03*
X175500000Y-103500000D03*
X183500000Y-127500000D03*
X187500000Y-146500000D03*
X113000000Y-137500000D03*
X104500000Y-75500000D03*
X150500000Y-59500000D03*
X136000000Y-61500000D03*
X160000000Y-145000000D03*
X171000000Y-81000000D03*
X125500000Y-139500000D03*
X134000000Y-108500000D03*
X109000000Y-122500000D03*
X174500000Y-145000000D03*
X168500000Y-109000000D03*
X159000000Y-96500000D03*
X103500000Y-120000000D03*
X164500000Y-111500000D03*
X96500000Y-107000000D03*
X142000000Y-108500000D03*
X188000000Y-139000000D03*
X174500000Y-118000000D03*
X194000000Y-132000000D03*
X164000000Y-107500000D03*
X126000000Y-124500000D03*
X125000000Y-76500000D03*
X143000000Y-87500000D03*
X125000000Y-126000000D03*
X114000000Y-112500000D03*
X190000000Y-102500000D03*
X111000000Y-129500000D03*
X163500000Y-126000000D03*
X161500000Y-138000000D03*
X137500000Y-51500000D03*
X157500000Y-62500000D03*
X138500000Y-126500000D03*
X163500000Y-91500000D03*
X171000000Y-125500000D03*
X158500000Y-59500000D03*
X132000000Y-60500000D03*
X118500000Y-138500000D03*
X156000000Y-56500000D03*
X116000000Y-139000000D03*
X164500000Y-82500000D03*
X141000000Y-102000000D03*
X186500000Y-61000000D03*
X97500000Y-115000000D03*
X175500000Y-138500000D03*
X130000000Y-118500000D03*
X193500000Y-83500000D03*
X169000000Y-126000000D03*
X180000000Y-129500000D03*
X116500000Y-105000000D03*
X118500000Y-120000000D03*
X108000000Y-113000000D03*
X106500000Y-118500000D03*
X174500000Y-62000000D03*
X176500000Y-131000000D03*
X141500000Y-98000000D03*
X149000000Y-131500000D03*
X185000000Y-54000000D03*
X140500000Y-73500000D03*
X137000000Y-113500000D03*
X158500000Y-54500000D03*
X116000000Y-122500000D03*
X111500000Y-130500000D03*
X134000000Y-116500000D03*
X185500000Y-139500000D03*
X182000000Y-84500000D03*
X176000000Y-69500000D03*
X107000000Y-121000000D03*
X182500000Y-131500000D03*
X110000000Y-66500000D03*
X191000000Y-59500000D03*
X138000000Y-92000000D03*
X123000000Y-139500000D03*
X111500000Y-121000000D03*
X142000000Y-86500000D03*
X156500000Y-75000000D03*
X145000000Y-129000000D03*
X180000000Y-137000000D03*
X166000000Y-137500000D03*
X138500000Y-127500000D03*
X164000000Y-119000000D03*
X120500000Y-119500000D03*
X159500000Y-135500000D03*
X157500000Y-80500000D03*
X159500000Y-103500000D03*
X183500000Y-130000000D03*
X141500000Y-99500000D03*
X155500000Y-120500000D03*
X184000000Y-97500000D03*
X108500000Y-84500000D03*
X179500000Y-120000000D03*
X127500000Y-113500000D03*
X125500000Y-110500000D03*
X176000000Y-93500000D03*
X116500000Y-124500000D03*
X149000000Y-115500000D03*
X157500000Y-97000000D03*
X97500000Y-120500000D03*
X192500000Y-74500000D03*
X172000000Y-129500000D03*
X101000000Y-91500000D03*
X152500000Y-51000000D03*
X139000000Y-53500000D03*
X181000000Y-125500000D03*
X162500000Y-86000000D03*
X113500000Y-111000000D03*
X148000000Y-73500000D03*
X111500000Y-127000000D03*
X131500000Y-62500000D03*
X157500000Y-102000000D03*
X171500000Y-136000000D03*
X150500000Y-122000000D03*
X112000000Y-103500000D03*
X165000000Y-119500000D03*
X170000000Y-50500000D03*
X142500000Y-94500000D03*
X141000000Y-92000000D03*
X182500000Y-134000000D03*
X164500000Y-84500000D03*
X117500000Y-123000000D03*
X180500000Y-62500000D03*
X172000000Y-144500000D03*
X127000000Y-103000000D03*
X144000000Y-91000000D03*
X148500000Y-96500000D03*
X108000000Y-90000000D03*
X176500000Y-142000000D03*
X158500000Y-100500000D03*
X157500000Y-105500000D03*
X162500000Y-88000000D03*
X115500000Y-78000000D03*
X98000000Y-132000000D03*
X149000000Y-113000000D03*
X186000000Y-102000000D03*
X173000000Y-55000000D03*
X103000000Y-138000000D03*
X192500000Y-60500000D03*
X162500000Y-61000000D03*
X181000000Y-56000000D03*
X134000000Y-134000000D03*
X144500000Y-117000000D03*
X142500000Y-61500000D03*
X181000000Y-106500000D03*
X194000000Y-115000000D03*
X194000000Y-104000000D03*
X119000000Y-141000000D03*
X168500000Y-115500000D03*
X149500000Y-75500000D03*
X155500000Y-52000000D03*
X125000000Y-124500000D03*
X99000000Y-116500000D03*
X144500000Y-88500000D03*
X123500000Y-120500000D03*
X134500000Y-145000000D03*
X164500000Y-99500000D03*
X178000000Y-85000000D03*
X121000000Y-80000000D03*
X167000000Y-69500000D03*
X154500000Y-123000000D03*
X126500000Y-91500000D03*
X101500000Y-99000000D03*
X187000000Y-118500000D03*
X158500000Y-69000000D03*
X172500000Y-85000000D03*
X129500000Y-58500000D03*
X131000000Y-53000000D03*
X122500000Y-83500000D03*
X130500000Y-126000000D03*
X172000000Y-52500000D03*
X181500000Y-121000000D03*
X144500000Y-128000000D03*
X164000000Y-122500000D03*
X192000000Y-57500000D03*
X159000000Y-142500000D03*
X171500000Y-81500000D03*
X193000000Y-70500000D03*
X101500000Y-115000000D03*
X139000000Y-86000000D03*
X164500000Y-128500000D03*
X157500000Y-85000000D03*
X106000000Y-93500000D03*
X170000000Y-85000000D03*
X176000000Y-120500000D03*
X120000000Y-121500000D03*
X143000000Y-53500000D03*
X173000000Y-91500000D03*
X157500000Y-89000000D03*
X144500000Y-133500000D03*
X141000000Y-87500000D03*
X168500000Y-111000000D03*
X130000000Y-127500000D03*
X109000000Y-137000000D03*
X181000000Y-90500000D03*
X180500000Y-95000000D03*
X187000000Y-105000000D03*
X165000000Y-134000000D03*
X171000000Y-89500000D03*
X156500000Y-131500000D03*
X148500000Y-127500000D03*
X133500000Y-134000000D03*
X170500000Y-137000000D03*
X133500000Y-125500000D03*
X171000000Y-87500000D03*
X187000000Y-141000000D03*
X139000000Y-136000000D03*
X112000000Y-138500000D03*
X157000000Y-77500000D03*
X178500000Y-78500000D03*
X145500000Y-134000000D03*
X125500000Y-84000000D03*
X150500000Y-123000000D03*
X146000000Y-81500000D03*
X162500000Y-81000000D03*
X176500000Y-140500000D03*
X163500000Y-69500000D03*
X110500000Y-95500000D03*
X108000000Y-78000000D03*
X103000000Y-86500000D03*
X192000000Y-64000000D03*
X146000000Y-115500000D03*
X126000000Y-107500000D03*
X177000000Y-117000000D03*
X155500000Y-135500000D03*
X163500000Y-121000000D03*
X148000000Y-99500000D03*
X101500000Y-111000000D03*
X139500000Y-130000000D03*
X112000000Y-87000000D03*
X140000000Y-107000000D03*
X122000000Y-70000000D03*
X170000000Y-138000000D03*
X162500000Y-84000000D03*
X111500000Y-125500000D03*
X166000000Y-144500000D03*
X149000000Y-58000000D03*
X163500000Y-82500000D03*
X143500000Y-64500000D03*
X112500000Y-70000000D03*
X172000000Y-126500000D03*
X140000000Y-60000000D03*
X99500000Y-106000000D03*
X126000000Y-128000000D03*
X122000000Y-91500000D03*
X100000000Y-113500000D03*
X194000000Y-100000000D03*
X176500000Y-50500000D03*
X169000000Y-129000000D03*
X128000000Y-110500000D03*
X184000000Y-101000000D03*
X138000000Y-62000000D03*
X97000000Y-130500000D03*
X176500000Y-53000000D03*
X166000000Y-125000000D03*
X189500000Y-96500000D03*
X159000000Y-102000000D03*
X134500000Y-52500000D03*
X158500000Y-134500000D03*
X145000000Y-126500000D03*
X193500000Y-76500000D03*
X177500000Y-135000000D03*
X194000000Y-137500000D03*
X148500000Y-129000000D03*
X123500000Y-116000000D03*
X162000000Y-51000000D03*
X97000000Y-127000000D03*
X159500000Y-105500000D03*
X121000000Y-74000000D03*
%TO.N,+12V*%
X120500000Y-146500000D03*
X120500000Y-136500000D03*
X102000000Y-146500000D03*
X137500000Y-146500000D03*
X157000000Y-146500000D03*
X159000000Y-131000000D03*
X138500000Y-131000000D03*
X104000000Y-131000000D03*
%TO.N,+3.3V*%
X138500000Y-132500000D03*
X172000000Y-132500000D03*
X118500000Y-132500000D03*
X158500000Y-132500000D03*
X152000000Y-132500000D03*
X133000000Y-132500000D03*
%TO.N,ENABLE_FAN1*%
X138500000Y-122500000D03*
X134500000Y-138500000D03*
X131000000Y-137500000D03*
%TO.N,ENABLE_FAN2*%
X147500000Y-125500000D03*
X150500000Y-109000000D03*
%TD*%
D22*
%TO.N,+12V*%
X137500000Y-132000000D02*
X137500000Y-146500000D01*
X158937925Y-131000000D02*
X157000000Y-132937925D01*
X120500000Y-146500000D02*
X120500000Y-136500000D01*
X102000000Y-133000000D02*
X102000000Y-146500000D01*
X104000000Y-131000000D02*
X102000000Y-133000000D01*
X157000000Y-132937925D02*
X157000000Y-146500000D01*
X159000000Y-131000000D02*
X158937925Y-131000000D01*
X138500000Y-131000000D02*
X137500000Y-132000000D01*
%TO.N,+5V*%
X141240000Y-56000000D02*
X153750000Y-68510000D01*
X123500000Y-56000000D02*
X141240000Y-56000000D01*
%TO.N,+3.3V*%
X152000000Y-132500000D02*
X138500000Y-132500000D01*
X153750000Y-114230000D02*
X159230000Y-114230000D01*
X159230000Y-114230000D02*
X159500000Y-114500000D01*
X158500000Y-132500000D02*
X172000000Y-132500000D01*
X133000000Y-132500000D02*
X118500000Y-132500000D01*
%TO.N,TACH4*%
X116200000Y-136092500D02*
X110392500Y-141900000D01*
X131500000Y-122500000D02*
X152470000Y-101530000D01*
X116200000Y-128000000D02*
X121700000Y-122500000D01*
X116200000Y-128000000D02*
X116200000Y-136092500D01*
X152470000Y-101530000D02*
X153750000Y-101530000D01*
X121700000Y-122500000D02*
X131500000Y-122500000D01*
%TO.N,TACH1*%
X135000000Y-122820000D02*
X135000000Y-128000000D01*
X153750000Y-104070000D02*
X135000000Y-122820000D01*
X135000000Y-128000000D02*
X135000000Y-136092500D01*
X135000000Y-136092500D02*
X129192500Y-141900000D01*
%TO.N,TACH2*%
X153750000Y-106610000D02*
X152029000Y-108331000D01*
X153800000Y-136092500D02*
X147992500Y-141900000D01*
X153800000Y-128000000D02*
X153800000Y-136092500D01*
X152029000Y-126229000D02*
X153800000Y-128000000D01*
X152029000Y-108331000D02*
X152029000Y-126229000D01*
%TO.N,TACH3*%
X173825000Y-128100000D02*
X173825000Y-125825000D01*
X173825000Y-128100000D02*
X173825000Y-136192500D01*
X173825000Y-125825000D02*
X157150000Y-109150000D01*
X157150000Y-109150000D02*
X153750000Y-109150000D01*
X173825000Y-136192500D02*
X168017500Y-142000000D01*
D23*
%TO.N,ENABLE_FAN4*%
X105912500Y-130202202D02*
X105912500Y-135900000D01*
X124424702Y-111690000D02*
X105912500Y-130202202D01*
X130886320Y-111690000D02*
X124424702Y-111690000D01*
%TO.N,ENABLE_FAN1*%
X136924000Y-136076000D02*
X136924000Y-131761412D01*
X136969669Y-124030331D02*
X138500000Y-122500000D01*
X128900000Y-135900000D02*
X124712500Y-135900000D01*
X131000000Y-137500000D02*
X130500000Y-137500000D01*
X136924000Y-131761412D02*
X136969669Y-131715743D01*
X136969669Y-131715743D02*
X136969669Y-124030331D01*
X130500000Y-137500000D02*
X128900000Y-135900000D01*
X134500000Y-138500000D02*
X136924000Y-136076000D01*
%TO.N,ENABLE_FAN2*%
X147500000Y-112000000D02*
X150500000Y-109000000D01*
X147500000Y-125500000D02*
X147500000Y-112000000D01*
D22*
%TO.N,3vPWM1*%
X130736320Y-109000000D02*
X130886320Y-109150000D01*
X121000000Y-109000000D02*
X130736320Y-109000000D01*
D23*
X130536320Y-109500000D02*
X130886320Y-109150000D01*
D22*
%TO.N,3vPWM2*%
X115000000Y-109000000D02*
X122470000Y-101530000D01*
X122470000Y-101530000D02*
X130886320Y-101530000D01*
%TO.N,3vPWM3*%
X130886320Y-96450000D02*
X122050000Y-96450000D01*
D23*
X130836320Y-96500000D02*
X130886320Y-96450000D01*
D22*
X122050000Y-96450000D02*
X109500000Y-109000000D01*
%TO.N,3vPWM4*%
X118090000Y-93910000D02*
X130886320Y-93910000D01*
X103000000Y-109000000D02*
X118090000Y-93910000D01*
%TO.N,Net-(J2-Pin_3)*%
X131971156Y-72504000D02*
X152029000Y-92561844D01*
X152029000Y-97269000D02*
X153750000Y-98990000D01*
X113500000Y-56000000D02*
X130004000Y-72504000D01*
X152029000Y-92561844D02*
X152029000Y-97269000D01*
X130004000Y-72504000D02*
X131971156Y-72504000D01*
%TD*%
%TA.AperFunction,Conductor*%
%TO.N,GND*%
G36*
X189599565Y-48520185D02*
G01*
X189645320Y-48572989D01*
X189655264Y-48642147D01*
X189626239Y-48705703D01*
X189620207Y-48712181D01*
X189551546Y-48780841D01*
X189345821Y-49031518D01*
X189345811Y-49031532D01*
X189165657Y-49301151D01*
X189165646Y-49301169D01*
X189012788Y-49587145D01*
X189012786Y-49587150D01*
X188888686Y-49886752D01*
X188794548Y-50197086D01*
X188794545Y-50197097D01*
X188731287Y-50515125D01*
X188731284Y-50515142D01*
X188699500Y-50837860D01*
X188699500Y-51162139D01*
X188731284Y-51484857D01*
X188731287Y-51484874D01*
X188794545Y-51802902D01*
X188794548Y-51802913D01*
X188888686Y-52113247D01*
X189012786Y-52412849D01*
X189012788Y-52412854D01*
X189165646Y-52698830D01*
X189165657Y-52698848D01*
X189345811Y-52968467D01*
X189345821Y-52968481D01*
X189551546Y-53219158D01*
X189780841Y-53448453D01*
X189780846Y-53448457D01*
X189780847Y-53448458D01*
X190031524Y-53654183D01*
X190301158Y-53834347D01*
X190301167Y-53834352D01*
X190301169Y-53834353D01*
X190587145Y-53987211D01*
X190587147Y-53987211D01*
X190587153Y-53987215D01*
X190886754Y-54111314D01*
X191197077Y-54205449D01*
X191197083Y-54205450D01*
X191197086Y-54205451D01*
X191197097Y-54205454D01*
X191396528Y-54245122D01*
X191515132Y-54268714D01*
X191837857Y-54300500D01*
X191837860Y-54300500D01*
X192162140Y-54300500D01*
X192162143Y-54300500D01*
X192484868Y-54268714D01*
X192642295Y-54237399D01*
X192802902Y-54205454D01*
X192802913Y-54205451D01*
X192802913Y-54205450D01*
X192802923Y-54205449D01*
X193113246Y-54111314D01*
X193412847Y-53987215D01*
X193698842Y-53834347D01*
X193968476Y-53654183D01*
X194219153Y-53448458D01*
X194219158Y-53448453D01*
X194287819Y-53379793D01*
X194349142Y-53346308D01*
X194418834Y-53351292D01*
X194474767Y-53393164D01*
X194499184Y-53458628D01*
X194499500Y-53467474D01*
X194499500Y-142532526D01*
X194479815Y-142599565D01*
X194427011Y-142645320D01*
X194357853Y-142655264D01*
X194294297Y-142626239D01*
X194287819Y-142620207D01*
X194219158Y-142551546D01*
X193968481Y-142345821D01*
X193968480Y-142345820D01*
X193968476Y-142345817D01*
X193698842Y-142165653D01*
X193698837Y-142165650D01*
X193698830Y-142165646D01*
X193412854Y-142012788D01*
X193412849Y-142012786D01*
X193113247Y-141888686D01*
X192802913Y-141794548D01*
X192802902Y-141794545D01*
X192484874Y-141731287D01*
X192484857Y-141731284D01*
X192240812Y-141707248D01*
X192162143Y-141699500D01*
X191837857Y-141699500D01*
X191765099Y-141706666D01*
X191515142Y-141731284D01*
X191515125Y-141731287D01*
X191197097Y-141794545D01*
X191197086Y-141794548D01*
X190886752Y-141888686D01*
X190587150Y-142012786D01*
X190587145Y-142012788D01*
X190301169Y-142165646D01*
X190301151Y-142165657D01*
X190031532Y-142345811D01*
X190031518Y-142345821D01*
X189780841Y-142551546D01*
X189551546Y-142780841D01*
X189345821Y-143031518D01*
X189345811Y-143031532D01*
X189165657Y-143301151D01*
X189165646Y-143301169D01*
X189012788Y-143587145D01*
X189012786Y-143587150D01*
X188888686Y-143886752D01*
X188794548Y-144197086D01*
X188794545Y-144197097D01*
X188731287Y-144515125D01*
X188731284Y-144515142D01*
X188699500Y-144837860D01*
X188699500Y-145162139D01*
X188731284Y-145484857D01*
X188731287Y-145484874D01*
X188794545Y-145802902D01*
X188794548Y-145802913D01*
X188888686Y-146113247D01*
X189012786Y-146412849D01*
X189012788Y-146412854D01*
X189165646Y-146698830D01*
X189165657Y-146698848D01*
X189345811Y-146968467D01*
X189345821Y-146968481D01*
X189551546Y-147219158D01*
X189620207Y-147287819D01*
X189653692Y-147349142D01*
X189648708Y-147418834D01*
X189606836Y-147474767D01*
X189541372Y-147499184D01*
X189532526Y-147499500D01*
X157302190Y-147499500D01*
X157235151Y-147479815D01*
X157189396Y-147427011D01*
X157179452Y-147357853D01*
X157208477Y-147294297D01*
X157254738Y-147260939D01*
X157379172Y-147209397D01*
X157379172Y-147209396D01*
X157379179Y-147209394D01*
X157510289Y-147121789D01*
X157621789Y-147010289D01*
X157709394Y-146879179D01*
X157769737Y-146733497D01*
X157800500Y-146578842D01*
X157800500Y-146421158D01*
X157800500Y-146421155D01*
X157800499Y-146421153D01*
X157769739Y-146266511D01*
X157769738Y-146266508D01*
X157769737Y-146266503D01*
X157759937Y-146242844D01*
X157750500Y-146195396D01*
X157750500Y-134952135D01*
X162037000Y-134952135D01*
X162037000Y-137047870D01*
X162037001Y-137047876D01*
X162043408Y-137107483D01*
X162093702Y-137242328D01*
X162093706Y-137242335D01*
X162179952Y-137357544D01*
X162179955Y-137357547D01*
X162295164Y-137443793D01*
X162295171Y-137443797D01*
X162430017Y-137494091D01*
X162430016Y-137494091D01*
X162436944Y-137494835D01*
X162489627Y-137500500D01*
X164585372Y-137500499D01*
X164644983Y-137494091D01*
X164779831Y-137443796D01*
X164895046Y-137357546D01*
X164981296Y-137242331D01*
X165031591Y-137107483D01*
X165038000Y-137047873D01*
X165037999Y-134952128D01*
X165031591Y-134892517D01*
X165016527Y-134852129D01*
X164981297Y-134757671D01*
X164981293Y-134757664D01*
X164895047Y-134642455D01*
X164895044Y-134642452D01*
X164779835Y-134556206D01*
X164779828Y-134556202D01*
X164644982Y-134505908D01*
X164644983Y-134505908D01*
X164585383Y-134499501D01*
X164585381Y-134499500D01*
X164585373Y-134499500D01*
X164585364Y-134499500D01*
X162489629Y-134499500D01*
X162489623Y-134499501D01*
X162430016Y-134505908D01*
X162295171Y-134556202D01*
X162295164Y-134556206D01*
X162179955Y-134642452D01*
X162179952Y-134642455D01*
X162093706Y-134757664D01*
X162093702Y-134757671D01*
X162043408Y-134892517D01*
X162037001Y-134952116D01*
X162037001Y-134952123D01*
X162037000Y-134952135D01*
X157750500Y-134952135D01*
X157750500Y-133300154D01*
X157759144Y-133270713D01*
X157765668Y-133240727D01*
X157769422Y-133235711D01*
X157770185Y-133233115D01*
X157786815Y-133212477D01*
X157850489Y-133148802D01*
X157911812Y-133115318D01*
X157981504Y-133120302D01*
X158007061Y-133133382D01*
X158120814Y-133209390D01*
X158120827Y-133209397D01*
X158215939Y-133248793D01*
X158266503Y-133269737D01*
X158394458Y-133295189D01*
X158421153Y-133300499D01*
X158421156Y-133300500D01*
X158421158Y-133300500D01*
X158578844Y-133300500D01*
X158578845Y-133300499D01*
X158709316Y-133274547D01*
X158733488Y-133269739D01*
X158733489Y-133269738D01*
X158733497Y-133269737D01*
X158757155Y-133259937D01*
X158804604Y-133250500D01*
X171695396Y-133250500D01*
X171742844Y-133259937D01*
X171766503Y-133269737D01*
X171766508Y-133269738D01*
X171766511Y-133269739D01*
X171921153Y-133300499D01*
X171921156Y-133300500D01*
X171921158Y-133300500D01*
X172078844Y-133300500D01*
X172078845Y-133300499D01*
X172233497Y-133269737D01*
X172379179Y-133209394D01*
X172510289Y-133121789D01*
X172621789Y-133010289D01*
X172709394Y-132879179D01*
X172769737Y-132733497D01*
X172800500Y-132578842D01*
X172800500Y-132421158D01*
X172800500Y-132421155D01*
X172800499Y-132421153D01*
X172769738Y-132266510D01*
X172769737Y-132266503D01*
X172769735Y-132266498D01*
X172709397Y-132120827D01*
X172709390Y-132120814D01*
X172621789Y-131989711D01*
X172621786Y-131989707D01*
X172510292Y-131878213D01*
X172510288Y-131878210D01*
X172379185Y-131790609D01*
X172379172Y-131790602D01*
X172233501Y-131730264D01*
X172233489Y-131730261D01*
X172078845Y-131699500D01*
X172078842Y-131699500D01*
X171921158Y-131699500D01*
X171921155Y-131699500D01*
X171766511Y-131730260D01*
X171766506Y-131730262D01*
X171766504Y-131730262D01*
X171766503Y-131730263D01*
X171742844Y-131740062D01*
X171695396Y-131749500D01*
X159681941Y-131749500D01*
X159614902Y-131729815D01*
X159569147Y-131677011D01*
X159559203Y-131607853D01*
X159588228Y-131544297D01*
X159594260Y-131537819D01*
X159621786Y-131510292D01*
X159621789Y-131510289D01*
X159709394Y-131379179D01*
X159769737Y-131233497D01*
X159800500Y-131078842D01*
X159800500Y-130921158D01*
X159800500Y-130921155D01*
X159800499Y-130921153D01*
X159769738Y-130766510D01*
X159769737Y-130766503D01*
X159735855Y-130684704D01*
X159709397Y-130620827D01*
X159709390Y-130620814D01*
X159621789Y-130489711D01*
X159621786Y-130489707D01*
X159510292Y-130378213D01*
X159510288Y-130378210D01*
X159379185Y-130290609D01*
X159379172Y-130290602D01*
X159233501Y-130230264D01*
X159233489Y-130230261D01*
X159078845Y-130199500D01*
X159078842Y-130199500D01*
X158921158Y-130199500D01*
X158921155Y-130199500D01*
X158766510Y-130230261D01*
X158766498Y-130230264D01*
X158620827Y-130290602D01*
X158620814Y-130290609D01*
X158489712Y-130378209D01*
X158378210Y-130489712D01*
X158378206Y-130489717D01*
X158367605Y-130505582D01*
X158352187Y-130524368D01*
X156417048Y-132459508D01*
X156396241Y-132490649D01*
X156375572Y-132521584D01*
X156334919Y-132582424D01*
X156334912Y-132582436D01*
X156278343Y-132719007D01*
X156278340Y-132719017D01*
X156249500Y-132864004D01*
X156249500Y-146195396D01*
X156240062Y-146242844D01*
X156230263Y-146266503D01*
X156230262Y-146266506D01*
X156230260Y-146266511D01*
X156199500Y-146421153D01*
X156199500Y-146578846D01*
X156230261Y-146733489D01*
X156230264Y-146733501D01*
X156290602Y-146879172D01*
X156290609Y-146879185D01*
X156378210Y-147010288D01*
X156378213Y-147010292D01*
X156489707Y-147121786D01*
X156489711Y-147121789D01*
X156620814Y-147209390D01*
X156620827Y-147209397D01*
X156745262Y-147260939D01*
X156799666Y-147304779D01*
X156821731Y-147371074D01*
X156804452Y-147438773D01*
X156753315Y-147486384D01*
X156697810Y-147499500D01*
X137802190Y-147499500D01*
X137735151Y-147479815D01*
X137689396Y-147427011D01*
X137679452Y-147357853D01*
X137708477Y-147294297D01*
X137754738Y-147260939D01*
X137879172Y-147209397D01*
X137879172Y-147209396D01*
X137879179Y-147209394D01*
X138010289Y-147121789D01*
X138121789Y-147010289D01*
X138209394Y-146879179D01*
X138269737Y-146733497D01*
X138300500Y-146578842D01*
X138300500Y-146421158D01*
X138300500Y-146421155D01*
X138300499Y-146421153D01*
X138269739Y-146266511D01*
X138269738Y-146266508D01*
X138269737Y-146266503D01*
X138259937Y-146242844D01*
X138250500Y-146195396D01*
X138250500Y-134852135D01*
X142012000Y-134852135D01*
X142012000Y-136947870D01*
X142012001Y-136947876D01*
X142018408Y-137007483D01*
X142068702Y-137142328D01*
X142068706Y-137142335D01*
X142154952Y-137257544D01*
X142154955Y-137257547D01*
X142270164Y-137343793D01*
X142270171Y-137343797D01*
X142405017Y-137394091D01*
X142405016Y-137394091D01*
X142411944Y-137394835D01*
X142464627Y-137400500D01*
X144560372Y-137400499D01*
X144619983Y-137394091D01*
X144754831Y-137343796D01*
X144870046Y-137257546D01*
X144956296Y-137142331D01*
X145006591Y-137007483D01*
X145013000Y-136947873D01*
X145012999Y-134852128D01*
X145006591Y-134792517D01*
X144993594Y-134757671D01*
X144956297Y-134657671D01*
X144956293Y-134657664D01*
X144870047Y-134542455D01*
X144870044Y-134542452D01*
X144754835Y-134456206D01*
X144754828Y-134456202D01*
X144619982Y-134405908D01*
X144619983Y-134405908D01*
X144560383Y-134399501D01*
X144560381Y-134399500D01*
X144560373Y-134399500D01*
X144560364Y-134399500D01*
X142464629Y-134399500D01*
X142464623Y-134399501D01*
X142405016Y-134405908D01*
X142270171Y-134456202D01*
X142270164Y-134456206D01*
X142154955Y-134542452D01*
X142154952Y-134542455D01*
X142068706Y-134657664D01*
X142068702Y-134657671D01*
X142018408Y-134792517D01*
X142012001Y-134852116D01*
X142012001Y-134852123D01*
X142012000Y-134852135D01*
X138250500Y-134852135D01*
X138250500Y-133417648D01*
X138270185Y-133350609D01*
X138322989Y-133304854D01*
X138392147Y-133294910D01*
X138398672Y-133296027D01*
X138421158Y-133300500D01*
X138578844Y-133300500D01*
X138578845Y-133300499D01*
X138709316Y-133274547D01*
X138733488Y-133269739D01*
X138733489Y-133269738D01*
X138733497Y-133269737D01*
X138757155Y-133259937D01*
X138804604Y-133250500D01*
X151695396Y-133250500D01*
X151742844Y-133259937D01*
X151766503Y-133269737D01*
X151766508Y-133269738D01*
X151766511Y-133269739D01*
X151921153Y-133300499D01*
X151921156Y-133300500D01*
X151921158Y-133300500D01*
X152078844Y-133300500D01*
X152078845Y-133300499D01*
X152233497Y-133269737D01*
X152379179Y-133209394D01*
X152510289Y-133121789D01*
X152621789Y-133010289D01*
X152709394Y-132879179D01*
X152769737Y-132733497D01*
X152800500Y-132578842D01*
X152800500Y-132421158D01*
X152800500Y-132421155D01*
X152800499Y-132421153D01*
X152769738Y-132266510D01*
X152769737Y-132266503D01*
X152769735Y-132266498D01*
X152709397Y-132120827D01*
X152709390Y-132120814D01*
X152621789Y-131989711D01*
X152621786Y-131989707D01*
X152510292Y-131878213D01*
X152510288Y-131878210D01*
X152379185Y-131790609D01*
X152379172Y-131790602D01*
X152233501Y-131730264D01*
X152233489Y-131730261D01*
X152078845Y-131699500D01*
X152078842Y-131699500D01*
X151921158Y-131699500D01*
X151921155Y-131699500D01*
X151766511Y-131730260D01*
X151766506Y-131730262D01*
X151766504Y-131730262D01*
X151766503Y-131730263D01*
X151742844Y-131740062D01*
X151695396Y-131749500D01*
X139181941Y-131749500D01*
X139114902Y-131729815D01*
X139069147Y-131677011D01*
X139059203Y-131607853D01*
X139088228Y-131544297D01*
X139094260Y-131537819D01*
X139121786Y-131510292D01*
X139121789Y-131510289D01*
X139209394Y-131379179D01*
X139269737Y-131233497D01*
X139300500Y-131078842D01*
X139300500Y-130921158D01*
X139300500Y-130921155D01*
X139300499Y-130921153D01*
X139269738Y-130766510D01*
X139269737Y-130766503D01*
X139235855Y-130684704D01*
X139209397Y-130620827D01*
X139209390Y-130620814D01*
X139121789Y-130489711D01*
X139121786Y-130489707D01*
X139010292Y-130378213D01*
X139010288Y-130378210D01*
X138879185Y-130290609D01*
X138879172Y-130290602D01*
X138733501Y-130230264D01*
X138733489Y-130230261D01*
X138578845Y-130199500D01*
X138578842Y-130199500D01*
X138421158Y-130199500D01*
X138421155Y-130199500D01*
X138266510Y-130230261D01*
X138266498Y-130230264D01*
X138120827Y-130290602D01*
X138120814Y-130290609D01*
X137989711Y-130378210D01*
X137989707Y-130378213D01*
X137878210Y-130489710D01*
X137822271Y-130573431D01*
X137768659Y-130618236D01*
X137699334Y-130626943D01*
X137636307Y-130596789D01*
X137599587Y-130537346D01*
X137595169Y-130504540D01*
X137595169Y-124340782D01*
X137614854Y-124273743D01*
X137631484Y-124253105D01*
X138558797Y-123325791D01*
X138620118Y-123292308D01*
X138622128Y-123291889D01*
X138733497Y-123269737D01*
X138879179Y-123209394D01*
X139010289Y-123121789D01*
X139121789Y-123010289D01*
X139209394Y-122879179D01*
X139212854Y-122870827D01*
X139269735Y-122733501D01*
X139269737Y-122733497D01*
X139300500Y-122578842D01*
X139300500Y-122421158D01*
X139300500Y-122421155D01*
X139300499Y-122421153D01*
X139284672Y-122341588D01*
X139269737Y-122266503D01*
X139269735Y-122266498D01*
X139209397Y-122120827D01*
X139209390Y-122120814D01*
X139121789Y-121989711D01*
X139121786Y-121989707D01*
X139010292Y-121878213D01*
X139010288Y-121878210D01*
X138879185Y-121790609D01*
X138879172Y-121790602D01*
X138733501Y-121730264D01*
X138733489Y-121730261D01*
X138578845Y-121699500D01*
X138578842Y-121699500D01*
X138421158Y-121699500D01*
X138421155Y-121699500D01*
X138266510Y-121730261D01*
X138266498Y-121730264D01*
X138120827Y-121790602D01*
X138120814Y-121790609D01*
X137989711Y-121878210D01*
X137989707Y-121878213D01*
X137878213Y-121989707D01*
X137878210Y-121989711D01*
X137790609Y-122120814D01*
X137790602Y-122120827D01*
X137730264Y-122266498D01*
X137730261Y-122266508D01*
X137708141Y-122377714D01*
X137675756Y-122439625D01*
X137674205Y-122441203D01*
X136570939Y-123544470D01*
X136483813Y-123631595D01*
X136483807Y-123631603D01*
X136415361Y-123734036D01*
X136415353Y-123734050D01*
X136382016Y-123814538D01*
X136376492Y-123827874D01*
X136368206Y-123847876D01*
X136368204Y-123847884D01*
X136344169Y-123968720D01*
X136344169Y-126415593D01*
X136324484Y-126482632D01*
X136271680Y-126528387D01*
X136202522Y-126538331D01*
X136176837Y-126531775D01*
X136107485Y-126505909D01*
X136107483Y-126505908D01*
X136047883Y-126499501D01*
X136047881Y-126499500D01*
X136047873Y-126499500D01*
X136047865Y-126499500D01*
X135874500Y-126499500D01*
X135807461Y-126479815D01*
X135761706Y-126427011D01*
X135750500Y-126375500D01*
X135750500Y-123182229D01*
X135770185Y-123115190D01*
X135786819Y-123094548D01*
X146662819Y-112218548D01*
X146724142Y-112185063D01*
X146793834Y-112190047D01*
X146849767Y-112231919D01*
X146874184Y-112297383D01*
X146874500Y-112306229D01*
X146874500Y-124957650D01*
X146854815Y-125024689D01*
X146853602Y-125026541D01*
X146790609Y-125120815D01*
X146790602Y-125120828D01*
X146730264Y-125266498D01*
X146730261Y-125266510D01*
X146699500Y-125421153D01*
X146699500Y-125578846D01*
X146730261Y-125733489D01*
X146730264Y-125733501D01*
X146790602Y-125879172D01*
X146790609Y-125879185D01*
X146878210Y-126010288D01*
X146878213Y-126010292D01*
X146989707Y-126121786D01*
X146989711Y-126121789D01*
X147120814Y-126209390D01*
X147120827Y-126209397D01*
X147266498Y-126269735D01*
X147266503Y-126269737D01*
X147421153Y-126300499D01*
X147421156Y-126300500D01*
X147421158Y-126300500D01*
X147578844Y-126300500D01*
X147578845Y-126300499D01*
X147733497Y-126269737D01*
X147879179Y-126209394D01*
X148010289Y-126121789D01*
X148121789Y-126010289D01*
X148209394Y-125879179D01*
X148269737Y-125733497D01*
X148300500Y-125578842D01*
X148300500Y-125421158D01*
X148300500Y-125421155D01*
X148300499Y-125421153D01*
X148269738Y-125266510D01*
X148269737Y-125266503D01*
X148212854Y-125129174D01*
X148209397Y-125120828D01*
X148209396Y-125120827D01*
X148209394Y-125120821D01*
X148146397Y-125026539D01*
X148125520Y-124959863D01*
X148125500Y-124957650D01*
X148125500Y-112310452D01*
X148145185Y-112243413D01*
X148161819Y-112222771D01*
X149328539Y-111056051D01*
X150558798Y-109825791D01*
X150620119Y-109792308D01*
X150622114Y-109791892D01*
X150733497Y-109769737D01*
X150879179Y-109709394D01*
X151010289Y-109621789D01*
X151010292Y-109621786D01*
X151066819Y-109565260D01*
X151128142Y-109531775D01*
X151197834Y-109536759D01*
X151253767Y-109578631D01*
X151278184Y-109644095D01*
X151278500Y-109652941D01*
X151278500Y-126302918D01*
X151278500Y-126302920D01*
X151278499Y-126302920D01*
X151307340Y-126447907D01*
X151307343Y-126447917D01*
X151363914Y-126584492D01*
X151396812Y-126633727D01*
X151396813Y-126633730D01*
X151446046Y-126707414D01*
X151446052Y-126707421D01*
X152263181Y-127524548D01*
X152296666Y-127585871D01*
X152299500Y-127612229D01*
X152299500Y-129047870D01*
X152299501Y-129047876D01*
X152305908Y-129107483D01*
X152356202Y-129242328D01*
X152356206Y-129242335D01*
X152442452Y-129357544D01*
X152442455Y-129357547D01*
X152557664Y-129443793D01*
X152557671Y-129443797D01*
X152594529Y-129457544D01*
X152692517Y-129494091D01*
X152752127Y-129500500D01*
X152925500Y-129500499D01*
X152992539Y-129520183D01*
X153038294Y-129572987D01*
X153049500Y-129624499D01*
X153049500Y-135730269D01*
X153029815Y-135797308D01*
X153013181Y-135817950D01*
X149004681Y-139826450D01*
X148943358Y-139859935D01*
X148873666Y-139854951D01*
X148817733Y-139813079D01*
X148793316Y-139747615D01*
X148793000Y-139738769D01*
X148793000Y-139661155D01*
X148792999Y-139661153D01*
X148762238Y-139506510D01*
X148762237Y-139506503D01*
X148743312Y-139460814D01*
X148701897Y-139360827D01*
X148701890Y-139360814D01*
X148614289Y-139229711D01*
X148614286Y-139229707D01*
X148502792Y-139118213D01*
X148502788Y-139118210D01*
X148371685Y-139030609D01*
X148371672Y-139030602D01*
X148226001Y-138970264D01*
X148225989Y-138970261D01*
X148071345Y-138939500D01*
X148071342Y-138939500D01*
X147913658Y-138939500D01*
X147913655Y-138939500D01*
X147759010Y-138970261D01*
X147758998Y-138970264D01*
X147613327Y-139030602D01*
X147613314Y-139030609D01*
X147482211Y-139118210D01*
X147482207Y-139118213D01*
X147370713Y-139229707D01*
X147370710Y-139229711D01*
X147283109Y-139360814D01*
X147283102Y-139360827D01*
X147222764Y-139506498D01*
X147222761Y-139506510D01*
X147192000Y-139661153D01*
X147192000Y-139818846D01*
X147222761Y-139973489D01*
X147222764Y-139973501D01*
X147283102Y-140119172D01*
X147283109Y-140119185D01*
X147370710Y-140250288D01*
X147370713Y-140250292D01*
X147438160Y-140317739D01*
X147471645Y-140379062D01*
X147466661Y-140448754D01*
X147424789Y-140504687D01*
X147406775Y-140515904D01*
X147276823Y-140582118D01*
X147172838Y-140657669D01*
X147102937Y-140708455D01*
X147102935Y-140708457D01*
X147102934Y-140708457D01*
X146950957Y-140860434D01*
X146950957Y-140860435D01*
X146950955Y-140860437D01*
X146878303Y-140960434D01*
X146822818Y-141036802D01*
X146767488Y-141079467D01*
X146697874Y-141085446D01*
X146636079Y-141052840D01*
X146622182Y-141036802D01*
X146566699Y-140960437D01*
X146494045Y-140860437D01*
X146342063Y-140708455D01*
X146168178Y-140582120D01*
X146117311Y-140556202D01*
X145976670Y-140484541D01*
X145976667Y-140484540D01*
X145772257Y-140418124D01*
X145630729Y-140395708D01*
X145559967Y-140384500D01*
X145345033Y-140384500D01*
X145274270Y-140395708D01*
X145132743Y-140418124D01*
X145132740Y-140418124D01*
X144928332Y-140484540D01*
X144928329Y-140484541D01*
X144736821Y-140582120D01*
X144562938Y-140708454D01*
X144468022Y-140803370D01*
X144406698Y-140836854D01*
X144337007Y-140831870D01*
X144281074Y-140789998D01*
X144264159Y-140759021D01*
X144220854Y-140642913D01*
X144220850Y-140642906D01*
X144134690Y-140527812D01*
X144134687Y-140527809D01*
X144019593Y-140441649D01*
X144019586Y-140441645D01*
X143884879Y-140391403D01*
X143884872Y-140391401D01*
X143825344Y-140385000D01*
X143162500Y-140385000D01*
X143162500Y-141455439D01*
X143109353Y-141424755D01*
X142979643Y-141390000D01*
X142845357Y-141390000D01*
X142715647Y-141424755D01*
X142662500Y-141455439D01*
X142662500Y-140385000D01*
X141999655Y-140385000D01*
X141940127Y-140391401D01*
X141940120Y-140391403D01*
X141805413Y-140441645D01*
X141805406Y-140441649D01*
X141690312Y-140527809D01*
X141690309Y-140527812D01*
X141604149Y-140642906D01*
X141604145Y-140642913D01*
X141553903Y-140777620D01*
X141553901Y-140777627D01*
X141547500Y-140837155D01*
X141547500Y-141650000D01*
X142467940Y-141650000D01*
X142437255Y-141703147D01*
X142402500Y-141832857D01*
X142402500Y-141967143D01*
X142437255Y-142096853D01*
X142467940Y-142150000D01*
X141547500Y-142150000D01*
X141547500Y-142962844D01*
X141553901Y-143022372D01*
X141553903Y-143022379D01*
X141604145Y-143157086D01*
X141604149Y-143157093D01*
X141690309Y-143272187D01*
X141690312Y-143272190D01*
X141805406Y-143358350D01*
X141805413Y-143358354D01*
X141940120Y-143408596D01*
X141940127Y-143408598D01*
X141999655Y-143414999D01*
X141999672Y-143415000D01*
X142662500Y-143415000D01*
X142662500Y-142344560D01*
X142715647Y-142375245D01*
X142845357Y-142410000D01*
X142979643Y-142410000D01*
X143109353Y-142375245D01*
X143162500Y-142344560D01*
X143162500Y-143415000D01*
X143825328Y-143415000D01*
X143825344Y-143414999D01*
X143884872Y-143408598D01*
X143884879Y-143408596D01*
X144019586Y-143358354D01*
X144019593Y-143358350D01*
X144134687Y-143272190D01*
X144134690Y-143272187D01*
X144220850Y-143157093D01*
X144220855Y-143157084D01*
X144264159Y-143040979D01*
X144306029Y-142985045D01*
X144371494Y-142960627D01*
X144439767Y-142975478D01*
X144468022Y-142996630D01*
X144562937Y-143091545D01*
X144736822Y-143217880D01*
X144813768Y-143257086D01*
X144928329Y-143315458D01*
X144928332Y-143315459D01*
X145060339Y-143358350D01*
X145132745Y-143381876D01*
X145345033Y-143415500D01*
X145345034Y-143415500D01*
X145559966Y-143415500D01*
X145559967Y-143415500D01*
X145772255Y-143381876D01*
X145772258Y-143381875D01*
X145772259Y-143381875D01*
X145976667Y-143315459D01*
X145976670Y-143315458D01*
X146061588Y-143272190D01*
X146168178Y-143217880D01*
X146342063Y-143091545D01*
X146494045Y-142939563D01*
X146620380Y-142765678D01*
X146620379Y-142765678D01*
X146622182Y-142763198D01*
X146677512Y-142720532D01*
X146747125Y-142714553D01*
X146808920Y-142747159D01*
X146822818Y-142763198D01*
X146897274Y-142865678D01*
X146950955Y-142939563D01*
X147102937Y-143091545D01*
X147276822Y-143217880D01*
X147353768Y-143257086D01*
X147468329Y-143315458D01*
X147468332Y-143315459D01*
X147600339Y-143358350D01*
X147672745Y-143381876D01*
X147885033Y-143415500D01*
X147885034Y-143415500D01*
X148099966Y-143415500D01*
X148099967Y-143415500D01*
X148312255Y-143381876D01*
X148312258Y-143381875D01*
X148312259Y-143381875D01*
X148516667Y-143315459D01*
X148516670Y-143315458D01*
X148601588Y-143272190D01*
X148708178Y-143217880D01*
X148882063Y-143091545D01*
X149034045Y-142939563D01*
X149160380Y-142765678D01*
X149160379Y-142765678D01*
X149162182Y-142763198D01*
X149217512Y-142720532D01*
X149287125Y-142714553D01*
X149348920Y-142747159D01*
X149362818Y-142763198D01*
X149437274Y-142865678D01*
X149490955Y-142939563D01*
X149642937Y-143091545D01*
X149816822Y-143217880D01*
X149893768Y-143257086D01*
X150008329Y-143315458D01*
X150008332Y-143315459D01*
X150140339Y-143358350D01*
X150212745Y-143381876D01*
X150425033Y-143415500D01*
X150425034Y-143415500D01*
X150639966Y-143415500D01*
X150639967Y-143415500D01*
X150852255Y-143381876D01*
X150852258Y-143381875D01*
X150852259Y-143381875D01*
X151056667Y-143315459D01*
X151056670Y-143315458D01*
X151141588Y-143272190D01*
X151248178Y-143217880D01*
X151422063Y-143091545D01*
X151574045Y-142939563D01*
X151700380Y-142765678D01*
X151797958Y-142574170D01*
X151818808Y-142510000D01*
X151864375Y-142369759D01*
X151864375Y-142369758D01*
X151864376Y-142369755D01*
X151898000Y-142157467D01*
X151898000Y-141642533D01*
X151864376Y-141430245D01*
X151864375Y-141430241D01*
X151864375Y-141430240D01*
X151797959Y-141225832D01*
X151797958Y-141225829D01*
X151709815Y-141052840D01*
X151700380Y-141034322D01*
X151574045Y-140860437D01*
X151565743Y-140852135D01*
X152512000Y-140852135D01*
X152512000Y-142947870D01*
X152512001Y-142947876D01*
X152518408Y-143007483D01*
X152568702Y-143142328D01*
X152568706Y-143142335D01*
X152654952Y-143257544D01*
X152654955Y-143257547D01*
X152770164Y-143343793D01*
X152770171Y-143343797D01*
X152905017Y-143394091D01*
X152905016Y-143394091D01*
X152911944Y-143394835D01*
X152964627Y-143400500D01*
X155060372Y-143400499D01*
X155119983Y-143394091D01*
X155254831Y-143343796D01*
X155370046Y-143257546D01*
X155456296Y-143142331D01*
X155506591Y-143007483D01*
X155513000Y-142947873D01*
X155512999Y-140852128D01*
X155506591Y-140792517D01*
X155505651Y-140789998D01*
X155456297Y-140657671D01*
X155456293Y-140657664D01*
X155370047Y-140542455D01*
X155370044Y-140542452D01*
X155254835Y-140456206D01*
X155254828Y-140456202D01*
X155119982Y-140405908D01*
X155119983Y-140405908D01*
X155060383Y-140399501D01*
X155060381Y-140399500D01*
X155060373Y-140399500D01*
X155060364Y-140399500D01*
X152964629Y-140399500D01*
X152964623Y-140399501D01*
X152905016Y-140405908D01*
X152770171Y-140456202D01*
X152770164Y-140456206D01*
X152654955Y-140542452D01*
X152654952Y-140542455D01*
X152568706Y-140657664D01*
X152568702Y-140657671D01*
X152518408Y-140792517D01*
X152512001Y-140852116D01*
X152512001Y-140852123D01*
X152512000Y-140852135D01*
X151565743Y-140852135D01*
X151422063Y-140708455D01*
X151248178Y-140582120D01*
X151197311Y-140556202D01*
X151056670Y-140484541D01*
X151056667Y-140484540D01*
X150852260Y-140418124D01*
X150819384Y-140412917D01*
X150756250Y-140382986D01*
X150719320Y-140323673D01*
X150720320Y-140253810D01*
X150751102Y-140202765D01*
X154382951Y-136570916D01*
X154465084Y-136447995D01*
X154521658Y-136311413D01*
X154550500Y-136166418D01*
X154550500Y-136018583D01*
X154550500Y-129624499D01*
X154570185Y-129557460D01*
X154622989Y-129511705D01*
X154674500Y-129500499D01*
X154847871Y-129500499D01*
X154847872Y-129500499D01*
X154907483Y-129494091D01*
X155042331Y-129443796D01*
X155157546Y-129357546D01*
X155243796Y-129242331D01*
X155294091Y-129107483D01*
X155300500Y-129047873D01*
X155300499Y-126952128D01*
X155294091Y-126892517D01*
X155281094Y-126857671D01*
X155243797Y-126757671D01*
X155243793Y-126757664D01*
X155157547Y-126642455D01*
X155157544Y-126642452D01*
X155042335Y-126556206D01*
X155042328Y-126556202D01*
X154907482Y-126505908D01*
X154907483Y-126505908D01*
X154847883Y-126499501D01*
X154847881Y-126499500D01*
X154847873Y-126499500D01*
X154847865Y-126499500D01*
X153412230Y-126499500D01*
X153345191Y-126479815D01*
X153324549Y-126463181D01*
X152815819Y-125954451D01*
X152782334Y-125893128D01*
X152779500Y-125866770D01*
X152779500Y-115454499D01*
X152799185Y-115387460D01*
X152851989Y-115341705D01*
X152903500Y-115330499D01*
X154797871Y-115330499D01*
X154797872Y-115330499D01*
X154857483Y-115324091D01*
X154992331Y-115273796D01*
X155107546Y-115187546D01*
X155193796Y-115072331D01*
X155197960Y-115061165D01*
X155239829Y-115005234D01*
X155305293Y-114980816D01*
X155314141Y-114980500D01*
X157875501Y-114980500D01*
X157942540Y-115000185D01*
X157988295Y-115052989D01*
X157999501Y-115104500D01*
X157999501Y-115547876D01*
X158005908Y-115607483D01*
X158056202Y-115742328D01*
X158056206Y-115742335D01*
X158142452Y-115857544D01*
X158142455Y-115857547D01*
X158257664Y-115943793D01*
X158257671Y-115943797D01*
X158392517Y-115994091D01*
X158392516Y-115994091D01*
X158399444Y-115994835D01*
X158452127Y-116000500D01*
X160547872Y-116000499D01*
X160607483Y-115994091D01*
X160742331Y-115943796D01*
X160857546Y-115857546D01*
X160943796Y-115742331D01*
X160994091Y-115607483D01*
X161000500Y-115547873D01*
X161000499Y-114361228D01*
X161020184Y-114294190D01*
X161072987Y-114248435D01*
X161142146Y-114238491D01*
X161205702Y-114267516D01*
X161212180Y-114273548D01*
X169645506Y-122706873D01*
X169678991Y-122768196D01*
X169674007Y-122837888D01*
X169632135Y-122893821D01*
X169566671Y-122918238D01*
X169520936Y-122912940D01*
X169387378Y-122871323D01*
X169317798Y-122865000D01*
X168750000Y-122865000D01*
X168750000Y-123684314D01*
X168745606Y-123679920D01*
X168654394Y-123627259D01*
X168552661Y-123600000D01*
X168447339Y-123600000D01*
X168345606Y-123627259D01*
X168254394Y-123679920D01*
X168250000Y-123684314D01*
X168250000Y-122865000D01*
X167682191Y-122865000D01*
X167612623Y-122871321D01*
X167612616Y-122871323D01*
X167452529Y-122921208D01*
X167452527Y-122921209D01*
X167309032Y-123007954D01*
X167309028Y-123007957D01*
X167190457Y-123126528D01*
X167190454Y-123126532D01*
X167103710Y-123270026D01*
X167053822Y-123430123D01*
X167047500Y-123499701D01*
X167047500Y-123750000D01*
X168184314Y-123750000D01*
X168179920Y-123754394D01*
X168127259Y-123845606D01*
X168100000Y-123947339D01*
X168100000Y-124052661D01*
X168127259Y-124154394D01*
X168179920Y-124245606D01*
X168184314Y-124250000D01*
X167047501Y-124250000D01*
X167047501Y-124500308D01*
X167053821Y-124569875D01*
X167053823Y-124569883D01*
X167103708Y-124729970D01*
X167103709Y-124729972D01*
X167190454Y-124873467D01*
X167190457Y-124873471D01*
X167309028Y-124992042D01*
X167309032Y-124992045D01*
X167452526Y-125078789D01*
X167612623Y-125128677D01*
X167682201Y-125134999D01*
X168249999Y-125134999D01*
X168250000Y-125134998D01*
X168250000Y-124315686D01*
X168254394Y-124320080D01*
X168345606Y-124372741D01*
X168447339Y-124400000D01*
X168552661Y-124400000D01*
X168654394Y-124372741D01*
X168745606Y-124320080D01*
X168750000Y-124315686D01*
X168750000Y-125134999D01*
X169317807Y-125134999D01*
X169387375Y-125128678D01*
X169387383Y-125128676D01*
X169547470Y-125078791D01*
X169547472Y-125078790D01*
X169690967Y-124992045D01*
X169690971Y-124992042D01*
X169809542Y-124873471D01*
X169809545Y-124873467D01*
X169896289Y-124729973D01*
X169946177Y-124569876D01*
X169952500Y-124500298D01*
X169952500Y-124250000D01*
X168815686Y-124250000D01*
X168820080Y-124245606D01*
X168872741Y-124154394D01*
X168900000Y-124052661D01*
X168900000Y-123947339D01*
X168872741Y-123845606D01*
X168820080Y-123754394D01*
X168815686Y-123750000D01*
X169952499Y-123750000D01*
X169952499Y-123499691D01*
X169946178Y-123430124D01*
X169946176Y-123430116D01*
X169904560Y-123296565D01*
X169903408Y-123226704D01*
X169940209Y-123167312D01*
X170003278Y-123137244D01*
X170072591Y-123146046D01*
X170110626Y-123171993D01*
X173038181Y-126099548D01*
X173071666Y-126160871D01*
X173074500Y-126187229D01*
X173074500Y-126475500D01*
X173054815Y-126542539D01*
X173002011Y-126588294D01*
X172950501Y-126599500D01*
X172777130Y-126599500D01*
X172777123Y-126599501D01*
X172717516Y-126605908D01*
X172582671Y-126656202D01*
X172582664Y-126656206D01*
X172467455Y-126742452D01*
X172467452Y-126742455D01*
X172381206Y-126857664D01*
X172381202Y-126857671D01*
X172330908Y-126992517D01*
X172324501Y-127052116D01*
X172324501Y-127052123D01*
X172324500Y-127052135D01*
X172324500Y-129147870D01*
X172324501Y-129147876D01*
X172330908Y-129207483D01*
X172381202Y-129342328D01*
X172381206Y-129342335D01*
X172467452Y-129457544D01*
X172467455Y-129457547D01*
X172582664Y-129543793D01*
X172582671Y-129543797D01*
X172619304Y-129557460D01*
X172717517Y-129594091D01*
X172777127Y-129600500D01*
X172950500Y-129600499D01*
X173017539Y-129620183D01*
X173063294Y-129672987D01*
X173074500Y-129724499D01*
X173074500Y-135830269D01*
X173054815Y-135897308D01*
X173038181Y-135917950D01*
X169029681Y-139926450D01*
X168968358Y-139959935D01*
X168898666Y-139954951D01*
X168842733Y-139913079D01*
X168818316Y-139847615D01*
X168818000Y-139838769D01*
X168818000Y-139761155D01*
X168817999Y-139761153D01*
X168815306Y-139747615D01*
X168787237Y-139606503D01*
X168745814Y-139506498D01*
X168726897Y-139460827D01*
X168726890Y-139460814D01*
X168639289Y-139329711D01*
X168639286Y-139329707D01*
X168527792Y-139218213D01*
X168527788Y-139218210D01*
X168396685Y-139130609D01*
X168396672Y-139130602D01*
X168251001Y-139070264D01*
X168250989Y-139070261D01*
X168096345Y-139039500D01*
X168096342Y-139039500D01*
X167938658Y-139039500D01*
X167938655Y-139039500D01*
X167784010Y-139070261D01*
X167783998Y-139070264D01*
X167638327Y-139130602D01*
X167638314Y-139130609D01*
X167507211Y-139218210D01*
X167507207Y-139218213D01*
X167395713Y-139329707D01*
X167395710Y-139329711D01*
X167308109Y-139460814D01*
X167308102Y-139460827D01*
X167247764Y-139606498D01*
X167247761Y-139606510D01*
X167217000Y-139761153D01*
X167217000Y-139918846D01*
X167247761Y-140073489D01*
X167247764Y-140073501D01*
X167308102Y-140219172D01*
X167308109Y-140219185D01*
X167395710Y-140350288D01*
X167395713Y-140350292D01*
X167463160Y-140417739D01*
X167496645Y-140479062D01*
X167491661Y-140548754D01*
X167449789Y-140604687D01*
X167431775Y-140615904D01*
X167301823Y-140682118D01*
X167197838Y-140757669D01*
X167127937Y-140808455D01*
X167127935Y-140808457D01*
X167127934Y-140808457D01*
X166975957Y-140960434D01*
X166975957Y-140960435D01*
X166975955Y-140960437D01*
X166920473Y-141036802D01*
X166847818Y-141136802D01*
X166792488Y-141179467D01*
X166722874Y-141185446D01*
X166661079Y-141152840D01*
X166647182Y-141136802D01*
X166605525Y-141079467D01*
X166519045Y-140960437D01*
X166367063Y-140808455D01*
X166193178Y-140682120D01*
X166193174Y-140682118D01*
X166001670Y-140584541D01*
X166001667Y-140584540D01*
X165797257Y-140518124D01*
X165655729Y-140495708D01*
X165584967Y-140484500D01*
X165370033Y-140484500D01*
X165299270Y-140495708D01*
X165157743Y-140518124D01*
X165157740Y-140518124D01*
X164953332Y-140584540D01*
X164953329Y-140584541D01*
X164761821Y-140682120D01*
X164587938Y-140808454D01*
X164493022Y-140903370D01*
X164431698Y-140936854D01*
X164362007Y-140931870D01*
X164306074Y-140889998D01*
X164289159Y-140859021D01*
X164245854Y-140742913D01*
X164245850Y-140742906D01*
X164159690Y-140627812D01*
X164159687Y-140627809D01*
X164044593Y-140541649D01*
X164044586Y-140541645D01*
X163909879Y-140491403D01*
X163909872Y-140491401D01*
X163850344Y-140485000D01*
X163187500Y-140485000D01*
X163187500Y-141555439D01*
X163134353Y-141524755D01*
X163004643Y-141490000D01*
X162870357Y-141490000D01*
X162740647Y-141524755D01*
X162687500Y-141555439D01*
X162687500Y-140485000D01*
X162024655Y-140485000D01*
X161965127Y-140491401D01*
X161965120Y-140491403D01*
X161830413Y-140541645D01*
X161830406Y-140541649D01*
X161715312Y-140627809D01*
X161715309Y-140627812D01*
X161629149Y-140742906D01*
X161629145Y-140742913D01*
X161578903Y-140877620D01*
X161578901Y-140877627D01*
X161572500Y-140937155D01*
X161572500Y-141750000D01*
X162492940Y-141750000D01*
X162462255Y-141803147D01*
X162427500Y-141932857D01*
X162427500Y-142067143D01*
X162462255Y-142196853D01*
X162492940Y-142250000D01*
X161572500Y-142250000D01*
X161572500Y-143062844D01*
X161578901Y-143122372D01*
X161578903Y-143122379D01*
X161629145Y-143257086D01*
X161629149Y-143257093D01*
X161715309Y-143372187D01*
X161715312Y-143372190D01*
X161830406Y-143458350D01*
X161830413Y-143458354D01*
X161965120Y-143508596D01*
X161965127Y-143508598D01*
X162024655Y-143514999D01*
X162024672Y-143515000D01*
X162687500Y-143515000D01*
X162687500Y-142444560D01*
X162740647Y-142475245D01*
X162870357Y-142510000D01*
X163004643Y-142510000D01*
X163134353Y-142475245D01*
X163187500Y-142444560D01*
X163187500Y-143515000D01*
X163850328Y-143515000D01*
X163850344Y-143514999D01*
X163909872Y-143508598D01*
X163909879Y-143508596D01*
X164044586Y-143458354D01*
X164044593Y-143458350D01*
X164159687Y-143372190D01*
X164159690Y-143372187D01*
X164245850Y-143257093D01*
X164245855Y-143257084D01*
X164289159Y-143140979D01*
X164331029Y-143085045D01*
X164396494Y-143060627D01*
X164464767Y-143075478D01*
X164493022Y-143096630D01*
X164587937Y-143191545D01*
X164761822Y-143317880D01*
X164839667Y-143357544D01*
X164953329Y-143415458D01*
X164953332Y-143415459D01*
X165085339Y-143458350D01*
X165157745Y-143481876D01*
X165370033Y-143515500D01*
X165370034Y-143515500D01*
X165584966Y-143515500D01*
X165584967Y-143515500D01*
X165797255Y-143481876D01*
X165797258Y-143481875D01*
X165797259Y-143481875D01*
X166001667Y-143415459D01*
X166001670Y-143415458D01*
X166002571Y-143414999D01*
X166193178Y-143317880D01*
X166367063Y-143191545D01*
X166519045Y-143039563D01*
X166645380Y-142865678D01*
X166645379Y-142865678D01*
X166647182Y-142863198D01*
X166702512Y-142820532D01*
X166772125Y-142814553D01*
X166833920Y-142847159D01*
X166847818Y-142863198D01*
X166920215Y-142962844D01*
X166975955Y-143039563D01*
X167127937Y-143191545D01*
X167301822Y-143317880D01*
X167379667Y-143357544D01*
X167493329Y-143415458D01*
X167493332Y-143415459D01*
X167625339Y-143458350D01*
X167697745Y-143481876D01*
X167910033Y-143515500D01*
X167910034Y-143515500D01*
X168124966Y-143515500D01*
X168124967Y-143515500D01*
X168337255Y-143481876D01*
X168337258Y-143481875D01*
X168337259Y-143481875D01*
X168541667Y-143415459D01*
X168541670Y-143415458D01*
X168542571Y-143414999D01*
X168733178Y-143317880D01*
X168907063Y-143191545D01*
X169059045Y-143039563D01*
X169185380Y-142865678D01*
X169185379Y-142865678D01*
X169187182Y-142863198D01*
X169242512Y-142820532D01*
X169312125Y-142814553D01*
X169373920Y-142847159D01*
X169387818Y-142863198D01*
X169460215Y-142962844D01*
X169515955Y-143039563D01*
X169667937Y-143191545D01*
X169841822Y-143317880D01*
X169919667Y-143357544D01*
X170033329Y-143415458D01*
X170033332Y-143415459D01*
X170165339Y-143458350D01*
X170237745Y-143481876D01*
X170450033Y-143515500D01*
X170450034Y-143515500D01*
X170664966Y-143515500D01*
X170664967Y-143515500D01*
X170877255Y-143481876D01*
X170877258Y-143481875D01*
X170877259Y-143481875D01*
X171081667Y-143415459D01*
X171081670Y-143415458D01*
X171082571Y-143414999D01*
X171273178Y-143317880D01*
X171447063Y-143191545D01*
X171599045Y-143039563D01*
X171725380Y-142865678D01*
X171822958Y-142674170D01*
X171844836Y-142606836D01*
X171889375Y-142469759D01*
X171889375Y-142469758D01*
X171889376Y-142469755D01*
X171923000Y-142257467D01*
X171923000Y-141742533D01*
X171889376Y-141530245D01*
X171889375Y-141530241D01*
X171889375Y-141530240D01*
X171822959Y-141325832D01*
X171822958Y-141325829D01*
X171734815Y-141152840D01*
X171725380Y-141134322D01*
X171599045Y-140960437D01*
X171590743Y-140952135D01*
X172537000Y-140952135D01*
X172537000Y-143047870D01*
X172537001Y-143047876D01*
X172543408Y-143107483D01*
X172593702Y-143242328D01*
X172593706Y-143242335D01*
X172679952Y-143357544D01*
X172679955Y-143357547D01*
X172795164Y-143443793D01*
X172795171Y-143443797D01*
X172930017Y-143494091D01*
X172930016Y-143494091D01*
X172936944Y-143494835D01*
X172989627Y-143500500D01*
X175085372Y-143500499D01*
X175144983Y-143494091D01*
X175279831Y-143443796D01*
X175395046Y-143357546D01*
X175481296Y-143242331D01*
X175531591Y-143107483D01*
X175538000Y-143047873D01*
X175537999Y-140952128D01*
X175531591Y-140892517D01*
X175530651Y-140889998D01*
X175481297Y-140757671D01*
X175481293Y-140757664D01*
X175395047Y-140642455D01*
X175395044Y-140642452D01*
X175279835Y-140556206D01*
X175279828Y-140556202D01*
X175144982Y-140505908D01*
X175144983Y-140505908D01*
X175085383Y-140499501D01*
X175085381Y-140499500D01*
X175085373Y-140499500D01*
X175085364Y-140499500D01*
X172989629Y-140499500D01*
X172989623Y-140499501D01*
X172930016Y-140505908D01*
X172795171Y-140556202D01*
X172795164Y-140556206D01*
X172679955Y-140642452D01*
X172679952Y-140642455D01*
X172593706Y-140757664D01*
X172593702Y-140757671D01*
X172543408Y-140892517D01*
X172537001Y-140952116D01*
X172537001Y-140952123D01*
X172537000Y-140952135D01*
X171590743Y-140952135D01*
X171447063Y-140808455D01*
X171273178Y-140682120D01*
X171273174Y-140682118D01*
X171081670Y-140584541D01*
X171081667Y-140584540D01*
X170877260Y-140518124D01*
X170844384Y-140512917D01*
X170781250Y-140482986D01*
X170744320Y-140423673D01*
X170745320Y-140353810D01*
X170776102Y-140302765D01*
X174407951Y-136670916D01*
X174490084Y-136547995D01*
X174546658Y-136411413D01*
X174575500Y-136266418D01*
X174575500Y-136118583D01*
X174575500Y-129724499D01*
X174595185Y-129657460D01*
X174647989Y-129611705D01*
X174699500Y-129600499D01*
X174872871Y-129600499D01*
X174872872Y-129600499D01*
X174932483Y-129594091D01*
X175067331Y-129543796D01*
X175182546Y-129457546D01*
X175268796Y-129342331D01*
X175319091Y-129207483D01*
X175325500Y-129147873D01*
X175325499Y-127052128D01*
X175319091Y-126992517D01*
X175304029Y-126952135D01*
X186999500Y-126952135D01*
X186999500Y-129047870D01*
X186999501Y-129047876D01*
X187005908Y-129107483D01*
X187056202Y-129242328D01*
X187056206Y-129242335D01*
X187142452Y-129357544D01*
X187142455Y-129357547D01*
X187257664Y-129443793D01*
X187257671Y-129443797D01*
X187392517Y-129494091D01*
X187392516Y-129494091D01*
X187399444Y-129494835D01*
X187452127Y-129500500D01*
X189547872Y-129500499D01*
X189607483Y-129494091D01*
X189742331Y-129443796D01*
X189857546Y-129357546D01*
X189943796Y-129242331D01*
X189994091Y-129107483D01*
X190000500Y-129047873D01*
X190000499Y-126952128D01*
X189994091Y-126892517D01*
X189981094Y-126857671D01*
X189943797Y-126757671D01*
X189943793Y-126757664D01*
X189857547Y-126642455D01*
X189857544Y-126642452D01*
X189742335Y-126556206D01*
X189742328Y-126556202D01*
X189607482Y-126505908D01*
X189607483Y-126505908D01*
X189547883Y-126499501D01*
X189547881Y-126499500D01*
X189547873Y-126499500D01*
X189547864Y-126499500D01*
X187452129Y-126499500D01*
X187452123Y-126499501D01*
X187392516Y-126505908D01*
X187257671Y-126556202D01*
X187257664Y-126556206D01*
X187142455Y-126642452D01*
X187142452Y-126642455D01*
X187056206Y-126757664D01*
X187056202Y-126757671D01*
X187005908Y-126892517D01*
X186999501Y-126952116D01*
X186999501Y-126952123D01*
X186999500Y-126952135D01*
X175304029Y-126952135D01*
X175304022Y-126952116D01*
X175268797Y-126857671D01*
X175268793Y-126857664D01*
X175182547Y-126742455D01*
X175182544Y-126742452D01*
X175067335Y-126656206D01*
X175067328Y-126656202D01*
X174932482Y-126605908D01*
X174932483Y-126605908D01*
X174872883Y-126599501D01*
X174872881Y-126599500D01*
X174872873Y-126599500D01*
X174872865Y-126599500D01*
X174699500Y-126599500D01*
X174632461Y-126579815D01*
X174586706Y-126527011D01*
X174575500Y-126475500D01*
X174575500Y-125751079D01*
X174546659Y-125606092D01*
X174546658Y-125606091D01*
X174546658Y-125606087D01*
X174546656Y-125606082D01*
X174490087Y-125469511D01*
X174490080Y-125469498D01*
X174407952Y-125346585D01*
X174407951Y-125346584D01*
X174303416Y-125242049D01*
X172561022Y-123499655D01*
X186047000Y-123499655D01*
X186047000Y-124500354D01*
X186053325Y-124569966D01*
X186053328Y-124569977D01*
X186103247Y-124730175D01*
X186103249Y-124730179D01*
X186190056Y-124873777D01*
X186190060Y-124873782D01*
X186308717Y-124992439D01*
X186308722Y-124992443D01*
X186429315Y-125065343D01*
X186452322Y-125079251D01*
X186612529Y-125129173D01*
X186682153Y-125135500D01*
X188317846Y-125135499D01*
X188317853Y-125135499D01*
X188387466Y-125129174D01*
X188387469Y-125129173D01*
X188387471Y-125129173D01*
X188547678Y-125079251D01*
X188686610Y-124995264D01*
X188691277Y-124992443D01*
X188691278Y-124992441D01*
X188691283Y-124992439D01*
X188809939Y-124873783D01*
X188896751Y-124730178D01*
X188946673Y-124569971D01*
X188953000Y-124500347D01*
X188952999Y-123499654D01*
X188952999Y-123499653D01*
X188952999Y-123499645D01*
X188946674Y-123430033D01*
X188946671Y-123430022D01*
X188896752Y-123269824D01*
X188896750Y-123269820D01*
X188809943Y-123126222D01*
X188809939Y-123126217D01*
X188691282Y-123007560D01*
X188691277Y-123007556D01*
X188547680Y-122920750D01*
X188547679Y-122920749D01*
X188547678Y-122920749D01*
X188387471Y-122870827D01*
X188387469Y-122870826D01*
X188387467Y-122870826D01*
X188338721Y-122866396D01*
X188317847Y-122864500D01*
X188317844Y-122864500D01*
X186682145Y-122864500D01*
X186612533Y-122870825D01*
X186612522Y-122870828D01*
X186452324Y-122920747D01*
X186452320Y-122920749D01*
X186308722Y-123007556D01*
X186308717Y-123007560D01*
X186190060Y-123126217D01*
X186190056Y-123126222D01*
X186103250Y-123269819D01*
X186053326Y-123430032D01*
X186047000Y-123499655D01*
X172561022Y-123499655D01*
X161396553Y-112335185D01*
X157628421Y-108567052D01*
X157628414Y-108567046D01*
X157549334Y-108514207D01*
X157549235Y-108514142D01*
X157505495Y-108484916D01*
X157505494Y-108484915D01*
X157505492Y-108484914D01*
X157368917Y-108428343D01*
X157368907Y-108428340D01*
X157223920Y-108399500D01*
X157223918Y-108399500D01*
X155291701Y-108399500D01*
X155224662Y-108379815D01*
X155204020Y-108363181D01*
X155124729Y-108283890D01*
X155087831Y-108257082D01*
X154980132Y-108178833D01*
X154820881Y-108097691D01*
X154820878Y-108097689D01*
X154650899Y-108042460D01*
X154533209Y-108023820D01*
X154474366Y-108014500D01*
X154474365Y-108014500D01*
X153706229Y-108014500D01*
X153684983Y-108008261D01*
X153662895Y-108006682D01*
X153652111Y-107998609D01*
X153639190Y-107994815D01*
X153624690Y-107978081D01*
X153606962Y-107964810D01*
X153602254Y-107952189D01*
X153593435Y-107942011D01*
X153590283Y-107920093D01*
X153582545Y-107899346D01*
X153585407Y-107886185D01*
X153583491Y-107872853D01*
X153592690Y-107852709D01*
X153597397Y-107831073D01*
X153610665Y-107813347D01*
X153612516Y-107809297D01*
X153618548Y-107802819D01*
X153639548Y-107781819D01*
X153700871Y-107748334D01*
X153727229Y-107745500D01*
X154474365Y-107745500D01*
X154474366Y-107745500D01*
X154650897Y-107717540D01*
X154650900Y-107717539D01*
X154650901Y-107717539D01*
X154820878Y-107662310D01*
X154820878Y-107662309D01*
X154820881Y-107662309D01*
X154980132Y-107581167D01*
X155124728Y-107476111D01*
X155251111Y-107349728D01*
X155356167Y-107205132D01*
X155437309Y-107045881D01*
X155492540Y-106875897D01*
X155520500Y-106699366D01*
X155520500Y-106520634D01*
X155492540Y-106344103D01*
X155492539Y-106344099D01*
X155492539Y-106344098D01*
X155437310Y-106174121D01*
X155437308Y-106174118D01*
X155356166Y-106014867D01*
X155251111Y-105870272D01*
X155124728Y-105743889D01*
X154980132Y-105638833D01*
X154820881Y-105557691D01*
X154820878Y-105557689D01*
X154650899Y-105502460D01*
X154533209Y-105483820D01*
X154474366Y-105474500D01*
X154474365Y-105474500D01*
X153706229Y-105474500D01*
X153684983Y-105468261D01*
X153662895Y-105466682D01*
X153652111Y-105458609D01*
X153639190Y-105454815D01*
X153624690Y-105438081D01*
X153606962Y-105424810D01*
X153602254Y-105412189D01*
X153593435Y-105402011D01*
X153590283Y-105380093D01*
X153582545Y-105359346D01*
X153585407Y-105346185D01*
X153583491Y-105332853D01*
X153592690Y-105312709D01*
X153597397Y-105291073D01*
X153610665Y-105273347D01*
X153612516Y-105269297D01*
X153618548Y-105262819D01*
X153639548Y-105241819D01*
X153700871Y-105208334D01*
X153727229Y-105205500D01*
X154474365Y-105205500D01*
X154474366Y-105205500D01*
X154650897Y-105177540D01*
X154650900Y-105177539D01*
X154650901Y-105177539D01*
X154820878Y-105122310D01*
X154820878Y-105122309D01*
X154820881Y-105122309D01*
X154980132Y-105041167D01*
X155124728Y-104936111D01*
X155251111Y-104809728D01*
X155356167Y-104665132D01*
X155437309Y-104505881D01*
X155492540Y-104335897D01*
X155520500Y-104159366D01*
X155520500Y-103980634D01*
X155492540Y-103804103D01*
X155492539Y-103804099D01*
X155492539Y-103804098D01*
X155437310Y-103634121D01*
X155437308Y-103634118D01*
X155356166Y-103474867D01*
X155251111Y-103330272D01*
X155124728Y-103203889D01*
X154980132Y-103098833D01*
X154820881Y-103017691D01*
X154820878Y-103017689D01*
X154650899Y-102962460D01*
X154533209Y-102943820D01*
X154474366Y-102934500D01*
X153025634Y-102934500D01*
X152966790Y-102943820D01*
X152849101Y-102962460D01*
X152849098Y-102962460D01*
X152679121Y-103017689D01*
X152679118Y-103017691D01*
X152519867Y-103098833D01*
X152375270Y-103203890D01*
X152248890Y-103330270D01*
X152143833Y-103474867D01*
X152062691Y-103634118D01*
X152062689Y-103634121D01*
X152007460Y-103804098D01*
X152007460Y-103804101D01*
X151979500Y-103980634D01*
X151979500Y-104159365D01*
X152007460Y-104335898D01*
X152007460Y-104335901D01*
X152062689Y-104505877D01*
X152062690Y-104505878D01*
X152062691Y-104505881D01*
X152085943Y-104551516D01*
X152098839Y-104620184D01*
X152072563Y-104684925D01*
X152063139Y-104695491D01*
X134417050Y-122341580D01*
X134417044Y-122341588D01*
X134367812Y-122415268D01*
X134367813Y-122415269D01*
X134334921Y-122464496D01*
X134334914Y-122464508D01*
X134278342Y-122601086D01*
X134278340Y-122601092D01*
X134249500Y-122746079D01*
X134249500Y-126375500D01*
X134229815Y-126442539D01*
X134177011Y-126488294D01*
X134125501Y-126499500D01*
X133952130Y-126499500D01*
X133952123Y-126499501D01*
X133892516Y-126505908D01*
X133757671Y-126556202D01*
X133757664Y-126556206D01*
X133642455Y-126642452D01*
X133642452Y-126642455D01*
X133556206Y-126757664D01*
X133556202Y-126757671D01*
X133505908Y-126892517D01*
X133499501Y-126952116D01*
X133499501Y-126952123D01*
X133499500Y-126952135D01*
X133499500Y-129047870D01*
X133499501Y-129047876D01*
X133505908Y-129107483D01*
X133556202Y-129242328D01*
X133556206Y-129242335D01*
X133642452Y-129357544D01*
X133642455Y-129357547D01*
X133757664Y-129443793D01*
X133757671Y-129443797D01*
X133794529Y-129457544D01*
X133892517Y-129494091D01*
X133952127Y-129500500D01*
X134125500Y-129500499D01*
X134192539Y-129520183D01*
X134238294Y-129572987D01*
X134249500Y-129624499D01*
X134249500Y-135730269D01*
X134229815Y-135797308D01*
X134213181Y-135817950D01*
X130204681Y-139826450D01*
X130143358Y-139859935D01*
X130073666Y-139854951D01*
X130017733Y-139813079D01*
X129993316Y-139747615D01*
X129993000Y-139738769D01*
X129993000Y-139661155D01*
X129992999Y-139661153D01*
X129962238Y-139506510D01*
X129962237Y-139506503D01*
X129943312Y-139460814D01*
X129901897Y-139360827D01*
X129901890Y-139360814D01*
X129814289Y-139229711D01*
X129814286Y-139229707D01*
X129702792Y-139118213D01*
X129702788Y-139118210D01*
X129571685Y-139030609D01*
X129571672Y-139030602D01*
X129426001Y-138970264D01*
X129425989Y-138970261D01*
X129271345Y-138939500D01*
X129271342Y-138939500D01*
X129113658Y-138939500D01*
X129113655Y-138939500D01*
X128959010Y-138970261D01*
X128958998Y-138970264D01*
X128813327Y-139030602D01*
X128813314Y-139030609D01*
X128682211Y-139118210D01*
X128682207Y-139118213D01*
X128570713Y-139229707D01*
X128570710Y-139229711D01*
X128483109Y-139360814D01*
X128483102Y-139360827D01*
X128422764Y-139506498D01*
X128422761Y-139506510D01*
X128392000Y-139661153D01*
X128392000Y-139818846D01*
X128422761Y-139973489D01*
X128422764Y-139973501D01*
X128483102Y-140119172D01*
X128483109Y-140119185D01*
X128570710Y-140250288D01*
X128570713Y-140250292D01*
X128638160Y-140317739D01*
X128671645Y-140379062D01*
X128666661Y-140448754D01*
X128624789Y-140504687D01*
X128606775Y-140515904D01*
X128476823Y-140582118D01*
X128372838Y-140657669D01*
X128302937Y-140708455D01*
X128302935Y-140708457D01*
X128302934Y-140708457D01*
X128150957Y-140860434D01*
X128150957Y-140860435D01*
X128150955Y-140860437D01*
X128078303Y-140960434D01*
X128022818Y-141036802D01*
X127967488Y-141079467D01*
X127897874Y-141085446D01*
X127836079Y-141052840D01*
X127822182Y-141036802D01*
X127766699Y-140960437D01*
X127694045Y-140860437D01*
X127542063Y-140708455D01*
X127368178Y-140582120D01*
X127317311Y-140556202D01*
X127176670Y-140484541D01*
X127176667Y-140484540D01*
X126972257Y-140418124D01*
X126830729Y-140395708D01*
X126759967Y-140384500D01*
X126545033Y-140384500D01*
X126474270Y-140395708D01*
X126332743Y-140418124D01*
X126332740Y-140418124D01*
X126128332Y-140484540D01*
X126128329Y-140484541D01*
X125936821Y-140582120D01*
X125762938Y-140708454D01*
X125668022Y-140803370D01*
X125606698Y-140836854D01*
X125537007Y-140831870D01*
X125481074Y-140789998D01*
X125464159Y-140759021D01*
X125420854Y-140642913D01*
X125420850Y-140642906D01*
X125334690Y-140527812D01*
X125334687Y-140527809D01*
X125219593Y-140441649D01*
X125219586Y-140441645D01*
X125084879Y-140391403D01*
X125084872Y-140391401D01*
X125025344Y-140385000D01*
X124362500Y-140385000D01*
X124362500Y-141455439D01*
X124309353Y-141424755D01*
X124179643Y-141390000D01*
X124045357Y-141390000D01*
X123915647Y-141424755D01*
X123862500Y-141455439D01*
X123862500Y-140385000D01*
X123199655Y-140385000D01*
X123140127Y-140391401D01*
X123140120Y-140391403D01*
X123005413Y-140441645D01*
X123005406Y-140441649D01*
X122890312Y-140527809D01*
X122890309Y-140527812D01*
X122804149Y-140642906D01*
X122804145Y-140642913D01*
X122753903Y-140777620D01*
X122753901Y-140777627D01*
X122747500Y-140837155D01*
X122747500Y-141650000D01*
X123667940Y-141650000D01*
X123637255Y-141703147D01*
X123602500Y-141832857D01*
X123602500Y-141967143D01*
X123637255Y-142096853D01*
X123667940Y-142150000D01*
X122747500Y-142150000D01*
X122747500Y-142962844D01*
X122753901Y-143022372D01*
X122753903Y-143022379D01*
X122804145Y-143157086D01*
X122804149Y-143157093D01*
X122890309Y-143272187D01*
X122890312Y-143272190D01*
X123005406Y-143358350D01*
X123005413Y-143358354D01*
X123140120Y-143408596D01*
X123140127Y-143408598D01*
X123199655Y-143414999D01*
X123199672Y-143415000D01*
X123862500Y-143415000D01*
X123862500Y-142344560D01*
X123915647Y-142375245D01*
X124045357Y-142410000D01*
X124179643Y-142410000D01*
X124309353Y-142375245D01*
X124362500Y-142344560D01*
X124362500Y-143415000D01*
X125025328Y-143415000D01*
X125025344Y-143414999D01*
X125084872Y-143408598D01*
X125084879Y-143408596D01*
X125219586Y-143358354D01*
X125219593Y-143358350D01*
X125334687Y-143272190D01*
X125334690Y-143272187D01*
X125420850Y-143157093D01*
X125420855Y-143157084D01*
X125464159Y-143040979D01*
X125506029Y-142985045D01*
X125571494Y-142960627D01*
X125639767Y-142975478D01*
X125668022Y-142996630D01*
X125762937Y-143091545D01*
X125936822Y-143217880D01*
X126013768Y-143257086D01*
X126128329Y-143315458D01*
X126128332Y-143315459D01*
X126260339Y-143358350D01*
X126332745Y-143381876D01*
X126545033Y-143415500D01*
X126545034Y-143415500D01*
X126759966Y-143415500D01*
X126759967Y-143415500D01*
X126972255Y-143381876D01*
X126972258Y-143381875D01*
X126972259Y-143381875D01*
X127176667Y-143315459D01*
X127176670Y-143315458D01*
X127261588Y-143272190D01*
X127368178Y-143217880D01*
X127542063Y-143091545D01*
X127694045Y-142939563D01*
X127820380Y-142765678D01*
X127820379Y-142765678D01*
X127822182Y-142763198D01*
X127877512Y-142720532D01*
X127947125Y-142714553D01*
X128008920Y-142747159D01*
X128022818Y-142763198D01*
X128097274Y-142865678D01*
X128150955Y-142939563D01*
X128302937Y-143091545D01*
X128476822Y-143217880D01*
X128553768Y-143257086D01*
X128668329Y-143315458D01*
X128668332Y-143315459D01*
X128800339Y-143358350D01*
X128872745Y-143381876D01*
X129085033Y-143415500D01*
X129085034Y-143415500D01*
X129299966Y-143415500D01*
X129299967Y-143415500D01*
X129512255Y-143381876D01*
X129512258Y-143381875D01*
X129512259Y-143381875D01*
X129716667Y-143315459D01*
X129716670Y-143315458D01*
X129801588Y-143272190D01*
X129908178Y-143217880D01*
X130082063Y-143091545D01*
X130234045Y-142939563D01*
X130360380Y-142765678D01*
X130360379Y-142765678D01*
X130362182Y-142763198D01*
X130417512Y-142720532D01*
X130487125Y-142714553D01*
X130548920Y-142747159D01*
X130562818Y-142763198D01*
X130637274Y-142865678D01*
X130690955Y-142939563D01*
X130842937Y-143091545D01*
X131016822Y-143217880D01*
X131093768Y-143257086D01*
X131208329Y-143315458D01*
X131208332Y-143315459D01*
X131340339Y-143358350D01*
X131412745Y-143381876D01*
X131625033Y-143415500D01*
X131625034Y-143415500D01*
X131839966Y-143415500D01*
X131839967Y-143415500D01*
X132052255Y-143381876D01*
X132052258Y-143381875D01*
X132052259Y-143381875D01*
X132256667Y-143315459D01*
X132256670Y-143315458D01*
X132341588Y-143272190D01*
X132448178Y-143217880D01*
X132622063Y-143091545D01*
X132774045Y-142939563D01*
X132900380Y-142765678D01*
X132997958Y-142574170D01*
X133018808Y-142510000D01*
X133064375Y-142369759D01*
X133064375Y-142369758D01*
X133064376Y-142369755D01*
X133098000Y-142157467D01*
X133098000Y-141642533D01*
X133064376Y-141430245D01*
X133064375Y-141430241D01*
X133064375Y-141430240D01*
X132997959Y-141225832D01*
X132997958Y-141225829D01*
X132909815Y-141052840D01*
X132900380Y-141034322D01*
X132774045Y-140860437D01*
X132622063Y-140708455D01*
X132448178Y-140582120D01*
X132397311Y-140556202D01*
X132256670Y-140484541D01*
X132256667Y-140484540D01*
X132052260Y-140418125D01*
X132052256Y-140418124D01*
X132052255Y-140418124D01*
X132041862Y-140416477D01*
X132019383Y-140412917D01*
X131956249Y-140382986D01*
X131919319Y-140323674D01*
X131920319Y-140253811D01*
X131951100Y-140202767D01*
X133514810Y-138639056D01*
X133576131Y-138605573D01*
X133645823Y-138610557D01*
X133701756Y-138652429D01*
X133724106Y-138702547D01*
X133730261Y-138733491D01*
X133730264Y-138733501D01*
X133790602Y-138879172D01*
X133790609Y-138879185D01*
X133878210Y-139010288D01*
X133878213Y-139010292D01*
X133989707Y-139121786D01*
X133989711Y-139121789D01*
X134120814Y-139209390D01*
X134120827Y-139209397D01*
X134266498Y-139269735D01*
X134266503Y-139269737D01*
X134421153Y-139300499D01*
X134421156Y-139300500D01*
X134421158Y-139300500D01*
X134578844Y-139300500D01*
X134578845Y-139300499D01*
X134733497Y-139269737D01*
X134879179Y-139209394D01*
X135010289Y-139121789D01*
X135121789Y-139010289D01*
X135209394Y-138879179D01*
X135269737Y-138733497D01*
X135291858Y-138622282D01*
X135324240Y-138560375D01*
X135325734Y-138558854D01*
X136537820Y-137346768D01*
X136599142Y-137313285D01*
X136668834Y-137318269D01*
X136724767Y-137360141D01*
X136749184Y-137425605D01*
X136749500Y-137434451D01*
X136749500Y-140429071D01*
X136729815Y-140496110D01*
X136677011Y-140541865D01*
X136607853Y-140551809D01*
X136551189Y-140528338D01*
X136550486Y-140527812D01*
X136454831Y-140456204D01*
X136454830Y-140456203D01*
X136454828Y-140456202D01*
X136319982Y-140405908D01*
X136319983Y-140405908D01*
X136260383Y-140399501D01*
X136260381Y-140399500D01*
X136260373Y-140399500D01*
X136260364Y-140399500D01*
X134164629Y-140399500D01*
X134164623Y-140399501D01*
X134105016Y-140405908D01*
X133970171Y-140456202D01*
X133970164Y-140456206D01*
X133854955Y-140542452D01*
X133854952Y-140542455D01*
X133768706Y-140657664D01*
X133768702Y-140657671D01*
X133718408Y-140792517D01*
X133712001Y-140852116D01*
X133712001Y-140852123D01*
X133712000Y-140852135D01*
X133712000Y-142947870D01*
X133712001Y-142947876D01*
X133718408Y-143007483D01*
X133768702Y-143142328D01*
X133768706Y-143142335D01*
X133854952Y-143257544D01*
X133854955Y-143257547D01*
X133970164Y-143343793D01*
X133970171Y-143343797D01*
X134105017Y-143394091D01*
X134105016Y-143394091D01*
X134111944Y-143394835D01*
X134164627Y-143400500D01*
X136260372Y-143400499D01*
X136319983Y-143394091D01*
X136454831Y-143343796D01*
X136551190Y-143271660D01*
X136616652Y-143247244D01*
X136684925Y-143262095D01*
X136734331Y-143311500D01*
X136749500Y-143370928D01*
X136749500Y-146195396D01*
X136740062Y-146242844D01*
X136730263Y-146266503D01*
X136730262Y-146266506D01*
X136730260Y-146266511D01*
X136699500Y-146421153D01*
X136699500Y-146578846D01*
X136730261Y-146733489D01*
X136730264Y-146733501D01*
X136790602Y-146879172D01*
X136790609Y-146879185D01*
X136878210Y-147010288D01*
X136878213Y-147010292D01*
X136989707Y-147121786D01*
X136989711Y-147121789D01*
X137120814Y-147209390D01*
X137120827Y-147209397D01*
X137245262Y-147260939D01*
X137299666Y-147304779D01*
X137321731Y-147371074D01*
X137304452Y-147438773D01*
X137253315Y-147486384D01*
X137197810Y-147499500D01*
X120802190Y-147499500D01*
X120735151Y-147479815D01*
X120689396Y-147427011D01*
X120679452Y-147357853D01*
X120708477Y-147294297D01*
X120754738Y-147260939D01*
X120879172Y-147209397D01*
X120879172Y-147209396D01*
X120879179Y-147209394D01*
X121010289Y-147121789D01*
X121121789Y-147010289D01*
X121209394Y-146879179D01*
X121269737Y-146733497D01*
X121300500Y-146578842D01*
X121300500Y-146421158D01*
X121300500Y-146421155D01*
X121300499Y-146421153D01*
X121269739Y-146266511D01*
X121269738Y-146266508D01*
X121269737Y-146266503D01*
X121259937Y-146242844D01*
X121250500Y-146195396D01*
X121250500Y-136804604D01*
X121259939Y-136757151D01*
X121262719Y-136750440D01*
X121269737Y-136733497D01*
X121300500Y-136578842D01*
X121300500Y-136421158D01*
X121300500Y-136421155D01*
X121300499Y-136421153D01*
X121269738Y-136266510D01*
X121269737Y-136266503D01*
X121236687Y-136186712D01*
X121209397Y-136120827D01*
X121209390Y-136120814D01*
X121121789Y-135989711D01*
X121121786Y-135989707D01*
X121010292Y-135878213D01*
X121010288Y-135878210D01*
X120879185Y-135790609D01*
X120879172Y-135790602D01*
X120733501Y-135730264D01*
X120733489Y-135730261D01*
X120578845Y-135699500D01*
X120578842Y-135699500D01*
X120421158Y-135699500D01*
X120421155Y-135699500D01*
X120266510Y-135730261D01*
X120266498Y-135730264D01*
X120120827Y-135790602D01*
X120120814Y-135790609D01*
X119989711Y-135878210D01*
X119989707Y-135878213D01*
X119878213Y-135989707D01*
X119878210Y-135989711D01*
X119790609Y-136120814D01*
X119790602Y-136120827D01*
X119730264Y-136266498D01*
X119730261Y-136266510D01*
X119699500Y-136421153D01*
X119699500Y-136578846D01*
X119730261Y-136733489D01*
X119730263Y-136733497D01*
X119740061Y-136757151D01*
X119749500Y-136804604D01*
X119749500Y-146195396D01*
X119740062Y-146242844D01*
X119730263Y-146266503D01*
X119730262Y-146266506D01*
X119730260Y-146266511D01*
X119699500Y-146421153D01*
X119699500Y-146578846D01*
X119730261Y-146733489D01*
X119730264Y-146733501D01*
X119790602Y-146879172D01*
X119790609Y-146879185D01*
X119878210Y-147010288D01*
X119878213Y-147010292D01*
X119989707Y-147121786D01*
X119989711Y-147121789D01*
X120120814Y-147209390D01*
X120120827Y-147209397D01*
X120245262Y-147260939D01*
X120299666Y-147304779D01*
X120321731Y-147371074D01*
X120304452Y-147438773D01*
X120253315Y-147486384D01*
X120197810Y-147499500D01*
X102302190Y-147499500D01*
X102235151Y-147479815D01*
X102189396Y-147427011D01*
X102179452Y-147357853D01*
X102208477Y-147294297D01*
X102254738Y-147260939D01*
X102379172Y-147209397D01*
X102379172Y-147209396D01*
X102379179Y-147209394D01*
X102510289Y-147121789D01*
X102621789Y-147010289D01*
X102709394Y-146879179D01*
X102769737Y-146733497D01*
X102800500Y-146578842D01*
X102800500Y-146421158D01*
X102800500Y-146421155D01*
X102800499Y-146421153D01*
X102769739Y-146266511D01*
X102769738Y-146266508D01*
X102769737Y-146266503D01*
X102759937Y-146242844D01*
X102750500Y-146195396D01*
X102750500Y-140837155D01*
X103947500Y-140837155D01*
X103947500Y-141650000D01*
X104867940Y-141650000D01*
X104837255Y-141703147D01*
X104802500Y-141832857D01*
X104802500Y-141967143D01*
X104837255Y-142096853D01*
X104867940Y-142150000D01*
X103947500Y-142150000D01*
X103947500Y-142962844D01*
X103953901Y-143022372D01*
X103953903Y-143022379D01*
X104004145Y-143157086D01*
X104004149Y-143157093D01*
X104090309Y-143272187D01*
X104090312Y-143272190D01*
X104205406Y-143358350D01*
X104205413Y-143358354D01*
X104340120Y-143408596D01*
X104340127Y-143408598D01*
X104399655Y-143414999D01*
X104399672Y-143415000D01*
X105062500Y-143415000D01*
X105062500Y-142344560D01*
X105115647Y-142375245D01*
X105245357Y-142410000D01*
X105379643Y-142410000D01*
X105509353Y-142375245D01*
X105562500Y-142344560D01*
X105562500Y-143415000D01*
X106225328Y-143415000D01*
X106225344Y-143414999D01*
X106284872Y-143408598D01*
X106284879Y-143408596D01*
X106419586Y-143358354D01*
X106419593Y-143358350D01*
X106534687Y-143272190D01*
X106534690Y-143272187D01*
X106620850Y-143157093D01*
X106620855Y-143157084D01*
X106664159Y-143040979D01*
X106706029Y-142985045D01*
X106771494Y-142960627D01*
X106839767Y-142975478D01*
X106868022Y-142996630D01*
X106962937Y-143091545D01*
X107136822Y-143217880D01*
X107213768Y-143257086D01*
X107328329Y-143315458D01*
X107328332Y-143315459D01*
X107460339Y-143358350D01*
X107532745Y-143381876D01*
X107745033Y-143415500D01*
X107745034Y-143415500D01*
X107959966Y-143415500D01*
X107959967Y-143415500D01*
X108172255Y-143381876D01*
X108172258Y-143381875D01*
X108172259Y-143381875D01*
X108376667Y-143315459D01*
X108376670Y-143315458D01*
X108461588Y-143272190D01*
X108568178Y-143217880D01*
X108742063Y-143091545D01*
X108894045Y-142939563D01*
X109020380Y-142765678D01*
X109020379Y-142765678D01*
X109022182Y-142763198D01*
X109077512Y-142720532D01*
X109147125Y-142714553D01*
X109208920Y-142747159D01*
X109222818Y-142763198D01*
X109297274Y-142865678D01*
X109350955Y-142939563D01*
X109502937Y-143091545D01*
X109676822Y-143217880D01*
X109753768Y-143257086D01*
X109868329Y-143315458D01*
X109868332Y-143315459D01*
X110000339Y-143358350D01*
X110072745Y-143381876D01*
X110285033Y-143415500D01*
X110285034Y-143415500D01*
X110499966Y-143415500D01*
X110499967Y-143415500D01*
X110712255Y-143381876D01*
X110712258Y-143381875D01*
X110712259Y-143381875D01*
X110916667Y-143315459D01*
X110916670Y-143315458D01*
X111001588Y-143272190D01*
X111108178Y-143217880D01*
X111282063Y-143091545D01*
X111434045Y-142939563D01*
X111560380Y-142765678D01*
X111560379Y-142765678D01*
X111562182Y-142763198D01*
X111617512Y-142720532D01*
X111687125Y-142714553D01*
X111748920Y-142747159D01*
X111762818Y-142763198D01*
X111837274Y-142865678D01*
X111890955Y-142939563D01*
X112042937Y-143091545D01*
X112216822Y-143217880D01*
X112293768Y-143257086D01*
X112408329Y-143315458D01*
X112408332Y-143315459D01*
X112540339Y-143358350D01*
X112612745Y-143381876D01*
X112825033Y-143415500D01*
X112825034Y-143415500D01*
X113039966Y-143415500D01*
X113039967Y-143415500D01*
X113252255Y-143381876D01*
X113252258Y-143381875D01*
X113252259Y-143381875D01*
X113456667Y-143315459D01*
X113456670Y-143315458D01*
X113541588Y-143272190D01*
X113648178Y-143217880D01*
X113822063Y-143091545D01*
X113974045Y-142939563D01*
X114100380Y-142765678D01*
X114197958Y-142574170D01*
X114218808Y-142510000D01*
X114264375Y-142369759D01*
X114264375Y-142369758D01*
X114264376Y-142369755D01*
X114298000Y-142157467D01*
X114298000Y-141642533D01*
X114264376Y-141430245D01*
X114264375Y-141430241D01*
X114264375Y-141430240D01*
X114197959Y-141225832D01*
X114197958Y-141225829D01*
X114109815Y-141052840D01*
X114100380Y-141034322D01*
X113974045Y-140860437D01*
X113965743Y-140852135D01*
X114912000Y-140852135D01*
X114912000Y-142947870D01*
X114912001Y-142947876D01*
X114918408Y-143007483D01*
X114968702Y-143142328D01*
X114968706Y-143142335D01*
X115054952Y-143257544D01*
X115054955Y-143257547D01*
X115170164Y-143343793D01*
X115170171Y-143343797D01*
X115305017Y-143394091D01*
X115305016Y-143394091D01*
X115311944Y-143394835D01*
X115364627Y-143400500D01*
X117460372Y-143400499D01*
X117519983Y-143394091D01*
X117654831Y-143343796D01*
X117770046Y-143257546D01*
X117856296Y-143142331D01*
X117906591Y-143007483D01*
X117913000Y-142947873D01*
X117912999Y-140852128D01*
X117906591Y-140792517D01*
X117905651Y-140789998D01*
X117856297Y-140657671D01*
X117856293Y-140657664D01*
X117770047Y-140542455D01*
X117770044Y-140542452D01*
X117654835Y-140456206D01*
X117654828Y-140456202D01*
X117519982Y-140405908D01*
X117519983Y-140405908D01*
X117460383Y-140399501D01*
X117460381Y-140399500D01*
X117460373Y-140399500D01*
X117460364Y-140399500D01*
X115364629Y-140399500D01*
X115364623Y-140399501D01*
X115305016Y-140405908D01*
X115170171Y-140456202D01*
X115170164Y-140456206D01*
X115054955Y-140542452D01*
X115054952Y-140542455D01*
X114968706Y-140657664D01*
X114968702Y-140657671D01*
X114918408Y-140792517D01*
X114912001Y-140852116D01*
X114912001Y-140852123D01*
X114912000Y-140852135D01*
X113965743Y-140852135D01*
X113822063Y-140708455D01*
X113648178Y-140582120D01*
X113597311Y-140556202D01*
X113456670Y-140484541D01*
X113456667Y-140484540D01*
X113252260Y-140418124D01*
X113219384Y-140412917D01*
X113156250Y-140382986D01*
X113119320Y-140323673D01*
X113120320Y-140253810D01*
X113151102Y-140202765D01*
X116782951Y-136570916D01*
X116865084Y-136447995D01*
X116921658Y-136311413D01*
X116950500Y-136166418D01*
X116950500Y-136018583D01*
X116950500Y-134852135D01*
X123212000Y-134852135D01*
X123212000Y-136947870D01*
X123212001Y-136947876D01*
X123218408Y-137007483D01*
X123268702Y-137142328D01*
X123268706Y-137142335D01*
X123354952Y-137257544D01*
X123354955Y-137257547D01*
X123470164Y-137343793D01*
X123470171Y-137343797D01*
X123605017Y-137394091D01*
X123605016Y-137394091D01*
X123611944Y-137394835D01*
X123664627Y-137400500D01*
X125760372Y-137400499D01*
X125819983Y-137394091D01*
X125954831Y-137343796D01*
X126070046Y-137257546D01*
X126156296Y-137142331D01*
X126206591Y-137007483D01*
X126213000Y-136947873D01*
X126213000Y-136649500D01*
X126232685Y-136582461D01*
X126285489Y-136536706D01*
X126337000Y-136525500D01*
X128589548Y-136525500D01*
X128656587Y-136545185D01*
X128677229Y-136561819D01*
X130101263Y-137985855D01*
X130101267Y-137985858D01*
X130203710Y-138054309D01*
X130203711Y-138054309D01*
X130203715Y-138054312D01*
X130257198Y-138076465D01*
X130317548Y-138101463D01*
X130337597Y-138105451D01*
X130346018Y-138107126D01*
X130438392Y-138125501D01*
X130438394Y-138125501D01*
X130457651Y-138125501D01*
X130524690Y-138145186D01*
X130526542Y-138146399D01*
X130620821Y-138209394D01*
X130766503Y-138269737D01*
X130921153Y-138300499D01*
X130921156Y-138300500D01*
X130921158Y-138300500D01*
X131078844Y-138300500D01*
X131078845Y-138300499D01*
X131233497Y-138269737D01*
X131379179Y-138209394D01*
X131510289Y-138121789D01*
X131621789Y-138010289D01*
X131709394Y-137879179D01*
X131769737Y-137733497D01*
X131800500Y-137578842D01*
X131800500Y-137421158D01*
X131800500Y-137421155D01*
X131800499Y-137421153D01*
X131785112Y-137343797D01*
X131769737Y-137266503D01*
X131766026Y-137257544D01*
X131709397Y-137120827D01*
X131709390Y-137120814D01*
X131621789Y-136989711D01*
X131621786Y-136989707D01*
X131510292Y-136878213D01*
X131510288Y-136878210D01*
X131379185Y-136790609D01*
X131379172Y-136790602D01*
X131233501Y-136730264D01*
X131233489Y-136730261D01*
X131078845Y-136699500D01*
X131078842Y-136699500D01*
X130921158Y-136699500D01*
X130921155Y-136699500D01*
X130766505Y-136730261D01*
X130766497Y-136730264D01*
X130735814Y-136742973D01*
X130666344Y-136750440D01*
X130603866Y-136719164D01*
X130600683Y-136716092D01*
X129396225Y-135511635D01*
X129385859Y-135501269D01*
X129385858Y-135501267D01*
X129298733Y-135414142D01*
X129233930Y-135370842D01*
X129227667Y-135366657D01*
X129227666Y-135366656D01*
X129196285Y-135345687D01*
X129156822Y-135329342D01*
X129115792Y-135312347D01*
X129082452Y-135298537D01*
X129022029Y-135286518D01*
X129017306Y-135285578D01*
X129017304Y-135285578D01*
X128961610Y-135274500D01*
X128961607Y-135274500D01*
X128961606Y-135274500D01*
X126336999Y-135274500D01*
X126269960Y-135254815D01*
X126224205Y-135202011D01*
X126212999Y-135150500D01*
X126212999Y-134852129D01*
X126212998Y-134852123D01*
X126212997Y-134852116D01*
X126206591Y-134792517D01*
X126193594Y-134757671D01*
X126156297Y-134657671D01*
X126156293Y-134657664D01*
X126070047Y-134542455D01*
X126070044Y-134542452D01*
X125954835Y-134456206D01*
X125954828Y-134456202D01*
X125819982Y-134405908D01*
X125819983Y-134405908D01*
X125760383Y-134399501D01*
X125760381Y-134399500D01*
X125760373Y-134399500D01*
X125760364Y-134399500D01*
X123664629Y-134399500D01*
X123664623Y-134399501D01*
X123605016Y-134405908D01*
X123470171Y-134456202D01*
X123470164Y-134456206D01*
X123354955Y-134542452D01*
X123354952Y-134542455D01*
X123268706Y-134657664D01*
X123268702Y-134657671D01*
X123218408Y-134792517D01*
X123212001Y-134852116D01*
X123212001Y-134852123D01*
X123212000Y-134852135D01*
X116950500Y-134852135D01*
X116950500Y-132421153D01*
X117699500Y-132421153D01*
X117699500Y-132578846D01*
X117730261Y-132733489D01*
X117730264Y-132733501D01*
X117790602Y-132879172D01*
X117790609Y-132879185D01*
X117878210Y-133010288D01*
X117878213Y-133010292D01*
X117989707Y-133121786D01*
X117989711Y-133121789D01*
X118120814Y-133209390D01*
X118120827Y-133209397D01*
X118215939Y-133248793D01*
X118266503Y-133269737D01*
X118394458Y-133295189D01*
X118421153Y-133300499D01*
X118421156Y-133300500D01*
X118421158Y-133300500D01*
X118578844Y-133300500D01*
X118578845Y-133300499D01*
X118709316Y-133274547D01*
X118733488Y-133269739D01*
X118733489Y-133269738D01*
X118733497Y-133269737D01*
X118757155Y-133259937D01*
X118804604Y-133250500D01*
X132695396Y-133250500D01*
X132742844Y-133259937D01*
X132766503Y-133269737D01*
X132766508Y-133269738D01*
X132766511Y-133269739D01*
X132921153Y-133300499D01*
X132921156Y-133300500D01*
X132921158Y-133300500D01*
X133078844Y-133300500D01*
X133078845Y-133300499D01*
X133233497Y-133269737D01*
X133379179Y-133209394D01*
X133510289Y-133121789D01*
X133621789Y-133010289D01*
X133709394Y-132879179D01*
X133769737Y-132733497D01*
X133800500Y-132578842D01*
X133800500Y-132421158D01*
X133800500Y-132421155D01*
X133800499Y-132421153D01*
X133769738Y-132266510D01*
X133769737Y-132266503D01*
X133769735Y-132266498D01*
X133709397Y-132120827D01*
X133709390Y-132120814D01*
X133621789Y-131989711D01*
X133621786Y-131989707D01*
X133510292Y-131878213D01*
X133510288Y-131878210D01*
X133379185Y-131790609D01*
X133379172Y-131790602D01*
X133233501Y-131730264D01*
X133233489Y-131730261D01*
X133078845Y-131699500D01*
X133078842Y-131699500D01*
X132921158Y-131699500D01*
X132921155Y-131699500D01*
X132766511Y-131730260D01*
X132766506Y-131730262D01*
X132766504Y-131730262D01*
X132766503Y-131730263D01*
X132742844Y-131740062D01*
X132695396Y-131749500D01*
X118804604Y-131749500D01*
X118757155Y-131740062D01*
X118733497Y-131730263D01*
X118733493Y-131730262D01*
X118733488Y-131730260D01*
X118578845Y-131699500D01*
X118578842Y-131699500D01*
X118421158Y-131699500D01*
X118421155Y-131699500D01*
X118266510Y-131730261D01*
X118266498Y-131730264D01*
X118120827Y-131790602D01*
X118120814Y-131790609D01*
X117989711Y-131878210D01*
X117989707Y-131878213D01*
X117878213Y-131989707D01*
X117878210Y-131989711D01*
X117790609Y-132120814D01*
X117790602Y-132120827D01*
X117730264Y-132266498D01*
X117730261Y-132266510D01*
X117699500Y-132421153D01*
X116950500Y-132421153D01*
X116950500Y-129624499D01*
X116970185Y-129557460D01*
X117022989Y-129511705D01*
X117074500Y-129500499D01*
X117247871Y-129500499D01*
X117247872Y-129500499D01*
X117307483Y-129494091D01*
X117442331Y-129443796D01*
X117557546Y-129357546D01*
X117643796Y-129242331D01*
X117694091Y-129107483D01*
X117700500Y-129047873D01*
X117700499Y-127612228D01*
X117720184Y-127545190D01*
X117736813Y-127524553D01*
X121974548Y-123286819D01*
X122035871Y-123253334D01*
X122062229Y-123250500D01*
X131573920Y-123250500D01*
X131671462Y-123231096D01*
X131718913Y-123221658D01*
X131855495Y-123165084D01*
X131920291Y-123121789D01*
X131920294Y-123121786D01*
X131920296Y-123121786D01*
X131961061Y-123094548D01*
X131978416Y-123082952D01*
X152482883Y-102578482D01*
X152544204Y-102544999D01*
X152613896Y-102549983D01*
X152626857Y-102555680D01*
X152679121Y-102582310D01*
X152849099Y-102637539D01*
X152849100Y-102637539D01*
X152849103Y-102637540D01*
X153025634Y-102665500D01*
X153025635Y-102665500D01*
X154474365Y-102665500D01*
X154474366Y-102665500D01*
X154650897Y-102637540D01*
X154650900Y-102637539D01*
X154650901Y-102637539D01*
X154820878Y-102582310D01*
X154820878Y-102582309D01*
X154820881Y-102582309D01*
X154980132Y-102501167D01*
X155124728Y-102396111D01*
X155251111Y-102269728D01*
X155356167Y-102125132D01*
X155437309Y-101965881D01*
X155492540Y-101795897D01*
X155520500Y-101619366D01*
X155520500Y-101440634D01*
X155492540Y-101264103D01*
X155492539Y-101264099D01*
X155492539Y-101264098D01*
X155437310Y-101094121D01*
X155437308Y-101094118D01*
X155362375Y-100947051D01*
X155356167Y-100934868D01*
X155251111Y-100790272D01*
X155124728Y-100663889D01*
X154980132Y-100558833D01*
X154820881Y-100477691D01*
X154820878Y-100477689D01*
X154650899Y-100422460D01*
X154533209Y-100403820D01*
X154474366Y-100394500D01*
X153025634Y-100394500D01*
X152966790Y-100403820D01*
X152849101Y-100422460D01*
X152849098Y-100422460D01*
X152679121Y-100477689D01*
X152679118Y-100477691D01*
X152519867Y-100558833D01*
X152375273Y-100663888D01*
X152248885Y-100790275D01*
X152245725Y-100793976D01*
X152244699Y-100793100D01*
X152196853Y-100830804D01*
X152114513Y-100864911D01*
X152114498Y-100864919D01*
X151991584Y-100947048D01*
X151991580Y-100947051D01*
X131225451Y-121713181D01*
X131164128Y-121746666D01*
X131137770Y-121749500D01*
X121626076Y-121749500D01*
X121597242Y-121755234D01*
X121597243Y-121755235D01*
X121481093Y-121778339D01*
X121481083Y-121778342D01*
X121401081Y-121811479D01*
X121401082Y-121811480D01*
X121344505Y-121834915D01*
X121282835Y-121876121D01*
X121279706Y-121878213D01*
X121262372Y-121889795D01*
X121221585Y-121917047D01*
X121221581Y-121917050D01*
X116675449Y-126463181D01*
X116614126Y-126496666D01*
X116587768Y-126499500D01*
X115152129Y-126499500D01*
X115152123Y-126499501D01*
X115092516Y-126505908D01*
X114957671Y-126556202D01*
X114957664Y-126556206D01*
X114842455Y-126642452D01*
X114842452Y-126642455D01*
X114756206Y-126757664D01*
X114756202Y-126757671D01*
X114705908Y-126892517D01*
X114699501Y-126952116D01*
X114699501Y-126952123D01*
X114699500Y-126952135D01*
X114699500Y-129047870D01*
X114699501Y-129047876D01*
X114705908Y-129107483D01*
X114756202Y-129242328D01*
X114756206Y-129242335D01*
X114842452Y-129357544D01*
X114842455Y-129357547D01*
X114957664Y-129443793D01*
X114957671Y-129443797D01*
X114994529Y-129457544D01*
X115092517Y-129494091D01*
X115152127Y-129500500D01*
X115325500Y-129500499D01*
X115392539Y-129520183D01*
X115438294Y-129572987D01*
X115449500Y-129624499D01*
X115449500Y-135730269D01*
X115429815Y-135797308D01*
X115413181Y-135817950D01*
X111404681Y-139826450D01*
X111343358Y-139859935D01*
X111273666Y-139854951D01*
X111217733Y-139813079D01*
X111193316Y-139747615D01*
X111193000Y-139738769D01*
X111193000Y-139661155D01*
X111192999Y-139661153D01*
X111162238Y-139506510D01*
X111162237Y-139506503D01*
X111143312Y-139460814D01*
X111101897Y-139360827D01*
X111101890Y-139360814D01*
X111014289Y-139229711D01*
X111014286Y-139229707D01*
X110902792Y-139118213D01*
X110902788Y-139118210D01*
X110771685Y-139030609D01*
X110771672Y-139030602D01*
X110626001Y-138970264D01*
X110625989Y-138970261D01*
X110471345Y-138939500D01*
X110471342Y-138939500D01*
X110313658Y-138939500D01*
X110313655Y-138939500D01*
X110159010Y-138970261D01*
X110158998Y-138970264D01*
X110013327Y-139030602D01*
X110013314Y-139030609D01*
X109882211Y-139118210D01*
X109882207Y-139118213D01*
X109770713Y-139229707D01*
X109770710Y-139229711D01*
X109683109Y-139360814D01*
X109683102Y-139360827D01*
X109622764Y-139506498D01*
X109622761Y-139506510D01*
X109592000Y-139661153D01*
X109592000Y-139818846D01*
X109622761Y-139973489D01*
X109622764Y-139973501D01*
X109683102Y-140119172D01*
X109683109Y-140119185D01*
X109770710Y-140250288D01*
X109770713Y-140250292D01*
X109838160Y-140317739D01*
X109871645Y-140379062D01*
X109866661Y-140448754D01*
X109824789Y-140504687D01*
X109806775Y-140515904D01*
X109676823Y-140582118D01*
X109572838Y-140657669D01*
X109502937Y-140708455D01*
X109502935Y-140708457D01*
X109502934Y-140708457D01*
X109350957Y-140860434D01*
X109350957Y-140860435D01*
X109350955Y-140860437D01*
X109278303Y-140960434D01*
X109222818Y-141036802D01*
X109167488Y-141079467D01*
X109097874Y-141085446D01*
X109036079Y-141052840D01*
X109022182Y-141036802D01*
X108966699Y-140960437D01*
X108894045Y-140860437D01*
X108742063Y-140708455D01*
X108568178Y-140582120D01*
X108517311Y-140556202D01*
X108376670Y-140484541D01*
X108376667Y-140484540D01*
X108172257Y-140418124D01*
X108030729Y-140395708D01*
X107959967Y-140384500D01*
X107745033Y-140384500D01*
X107674270Y-140395708D01*
X107532743Y-140418124D01*
X107532740Y-140418124D01*
X107328332Y-140484540D01*
X107328329Y-140484541D01*
X107136821Y-140582120D01*
X106962938Y-140708454D01*
X106868022Y-140803370D01*
X106806698Y-140836854D01*
X106737007Y-140831870D01*
X106681074Y-140789998D01*
X106664159Y-140759021D01*
X106620854Y-140642913D01*
X106620850Y-140642906D01*
X106534690Y-140527812D01*
X106534687Y-140527809D01*
X106419593Y-140441649D01*
X106419586Y-140441645D01*
X106284879Y-140391403D01*
X106284872Y-140391401D01*
X106225344Y-140385000D01*
X105562500Y-140385000D01*
X105562500Y-141455439D01*
X105509353Y-141424755D01*
X105379643Y-141390000D01*
X105245357Y-141390000D01*
X105115647Y-141424755D01*
X105062500Y-141455439D01*
X105062500Y-140385000D01*
X104399655Y-140385000D01*
X104340127Y-140391401D01*
X104340120Y-140391403D01*
X104205413Y-140441645D01*
X104205406Y-140441649D01*
X104090312Y-140527809D01*
X104090309Y-140527812D01*
X104004149Y-140642906D01*
X104004145Y-140642913D01*
X103953903Y-140777620D01*
X103953901Y-140777627D01*
X103947500Y-140837155D01*
X102750500Y-140837155D01*
X102750500Y-134852135D01*
X104412000Y-134852135D01*
X104412000Y-136947870D01*
X104412001Y-136947876D01*
X104418408Y-137007483D01*
X104468702Y-137142328D01*
X104468706Y-137142335D01*
X104554952Y-137257544D01*
X104554955Y-137257547D01*
X104670164Y-137343793D01*
X104670171Y-137343797D01*
X104805017Y-137394091D01*
X104805016Y-137394091D01*
X104811944Y-137394835D01*
X104864627Y-137400500D01*
X106960372Y-137400499D01*
X107019983Y-137394091D01*
X107154831Y-137343796D01*
X107270046Y-137257546D01*
X107356296Y-137142331D01*
X107406591Y-137007483D01*
X107413000Y-136947873D01*
X107412999Y-134852128D01*
X107406591Y-134792517D01*
X107393594Y-134757671D01*
X107356297Y-134657671D01*
X107356293Y-134657664D01*
X107270047Y-134542455D01*
X107270044Y-134542452D01*
X107154835Y-134456206D01*
X107154828Y-134456202D01*
X107019982Y-134405908D01*
X107019983Y-134405908D01*
X106960383Y-134399501D01*
X106960381Y-134399500D01*
X106960373Y-134399500D01*
X106960365Y-134399500D01*
X106662000Y-134399500D01*
X106594961Y-134379815D01*
X106549206Y-134327011D01*
X106538000Y-134275500D01*
X106538000Y-130512654D01*
X106557685Y-130445615D01*
X106574319Y-130424973D01*
X123019293Y-113979999D01*
X129141767Y-113979999D01*
X129141768Y-113980000D01*
X129970634Y-113980000D01*
X129966240Y-113984394D01*
X129913579Y-114075606D01*
X129886320Y-114177339D01*
X129886320Y-114282661D01*
X129913579Y-114384394D01*
X129966240Y-114475606D01*
X129970634Y-114480000D01*
X129141768Y-114480000D01*
X129144266Y-114495778D01*
X129199475Y-114665693D01*
X129280583Y-114824873D01*
X129385584Y-114969396D01*
X129385588Y-114969401D01*
X129511918Y-115095731D01*
X129511923Y-115095735D01*
X129656446Y-115200736D01*
X129815626Y-115281844D01*
X129985539Y-115337053D01*
X130161989Y-115365000D01*
X130636320Y-115365000D01*
X130636320Y-114630000D01*
X131136320Y-114630000D01*
X131136320Y-115365000D01*
X131610651Y-115365000D01*
X131787100Y-115337053D01*
X131957013Y-115281844D01*
X132116193Y-115200736D01*
X132260716Y-115095735D01*
X132260721Y-115095731D01*
X132387051Y-114969401D01*
X132387055Y-114969396D01*
X132492056Y-114824873D01*
X132573164Y-114665693D01*
X132628373Y-114495778D01*
X132630872Y-114480000D01*
X131802006Y-114480000D01*
X131806400Y-114475606D01*
X131859061Y-114384394D01*
X131886320Y-114282661D01*
X131886320Y-114177339D01*
X131859061Y-114075606D01*
X131806400Y-113984394D01*
X131802006Y-113980000D01*
X132630872Y-113980000D01*
X132630872Y-113979999D01*
X132628373Y-113964221D01*
X132573164Y-113794306D01*
X132492056Y-113635126D01*
X132387055Y-113490603D01*
X132387051Y-113490598D01*
X132260721Y-113364268D01*
X132260716Y-113364264D01*
X132116193Y-113259263D01*
X131957013Y-113178155D01*
X131787100Y-113122946D01*
X131610651Y-113095000D01*
X131136320Y-113095000D01*
X131136320Y-113830000D01*
X130636320Y-113830000D01*
X130636320Y-113095000D01*
X130161989Y-113095000D01*
X129985539Y-113122946D01*
X129815626Y-113178155D01*
X129656446Y-113259263D01*
X129511923Y-113364264D01*
X129511918Y-113364268D01*
X129385588Y-113490598D01*
X129385584Y-113490603D01*
X129280583Y-113635126D01*
X129199475Y-113794306D01*
X129144266Y-113964221D01*
X129141767Y-113979999D01*
X123019293Y-113979999D01*
X124647473Y-112351819D01*
X124708796Y-112318334D01*
X124735154Y-112315500D01*
X129239036Y-112315500D01*
X129306075Y-112335185D01*
X129339353Y-112366613D01*
X129385209Y-112429728D01*
X129511592Y-112556111D01*
X129656188Y-112661167D01*
X129815439Y-112742309D01*
X129815441Y-112742310D01*
X129915818Y-112774924D01*
X129985423Y-112797540D01*
X130161954Y-112825500D01*
X130161955Y-112825500D01*
X131610685Y-112825500D01*
X131610686Y-112825500D01*
X131787217Y-112797540D01*
X131787220Y-112797539D01*
X131787221Y-112797539D01*
X131957198Y-112742310D01*
X131957198Y-112742309D01*
X131957201Y-112742309D01*
X132116452Y-112661167D01*
X132261048Y-112556111D01*
X132387431Y-112429728D01*
X132492487Y-112285132D01*
X132573629Y-112125881D01*
X132628860Y-111955897D01*
X132656820Y-111779366D01*
X132656820Y-111600634D01*
X132628860Y-111424103D01*
X132628859Y-111424099D01*
X132628859Y-111424098D01*
X132573630Y-111254121D01*
X132573628Y-111254118D01*
X132548166Y-111204144D01*
X132492487Y-111094868D01*
X132387431Y-110950272D01*
X132261048Y-110823889D01*
X132116452Y-110718833D01*
X131957201Y-110637691D01*
X131957198Y-110637689D01*
X131787219Y-110582460D01*
X131656877Y-110561816D01*
X131610686Y-110554500D01*
X130161954Y-110554500D01*
X130115763Y-110561816D01*
X129985421Y-110582460D01*
X129985418Y-110582460D01*
X129815441Y-110637689D01*
X129815438Y-110637691D01*
X129656187Y-110718833D01*
X129511590Y-110823890D01*
X129385210Y-110950270D01*
X129339354Y-111013386D01*
X129284023Y-111056051D01*
X129239036Y-111064500D01*
X124363091Y-111064500D01*
X124302673Y-111076518D01*
X124242250Y-111088537D01*
X124242249Y-111088537D01*
X124242246Y-111088538D01*
X124226965Y-111094868D01*
X124128412Y-111135689D01*
X124128410Y-111135690D01*
X124025974Y-111204138D01*
X124025966Y-111204144D01*
X105426644Y-129803466D01*
X105426638Y-129803474D01*
X105358192Y-129905907D01*
X105358184Y-129905921D01*
X105324847Y-129986409D01*
X105319323Y-129999745D01*
X105311037Y-130019747D01*
X105311035Y-130019755D01*
X105287000Y-130140591D01*
X105287000Y-134275500D01*
X105267315Y-134342539D01*
X105214511Y-134388294D01*
X105163000Y-134399500D01*
X104864630Y-134399500D01*
X104864623Y-134399501D01*
X104805016Y-134405908D01*
X104670171Y-134456202D01*
X104670164Y-134456206D01*
X104554955Y-134542452D01*
X104554952Y-134542455D01*
X104468706Y-134657664D01*
X104468702Y-134657671D01*
X104418408Y-134792517D01*
X104412001Y-134852116D01*
X104412001Y-134852123D01*
X104412000Y-134852135D01*
X102750500Y-134852135D01*
X102750500Y-133362228D01*
X102770185Y-133295189D01*
X102786814Y-133274552D01*
X104315295Y-131746070D01*
X104355519Y-131719193D01*
X104379179Y-131709394D01*
X104510289Y-131621789D01*
X104621789Y-131510289D01*
X104709394Y-131379179D01*
X104769737Y-131233497D01*
X104800500Y-131078842D01*
X104800500Y-130921158D01*
X104800500Y-130921155D01*
X104800499Y-130921153D01*
X104769738Y-130766510D01*
X104769737Y-130766503D01*
X104735855Y-130684704D01*
X104709397Y-130620827D01*
X104709390Y-130620814D01*
X104621789Y-130489711D01*
X104621786Y-130489707D01*
X104510292Y-130378213D01*
X104510288Y-130378210D01*
X104379185Y-130290609D01*
X104379172Y-130290602D01*
X104233501Y-130230264D01*
X104233489Y-130230261D01*
X104078845Y-130199500D01*
X104078842Y-130199500D01*
X103921158Y-130199500D01*
X103921155Y-130199500D01*
X103766510Y-130230261D01*
X103766498Y-130230264D01*
X103620827Y-130290602D01*
X103620814Y-130290609D01*
X103489711Y-130378210D01*
X103489707Y-130378213D01*
X103378213Y-130489707D01*
X103378207Y-130489715D01*
X103290607Y-130620818D01*
X103290605Y-130620822D01*
X103280805Y-130644480D01*
X103253927Y-130684704D01*
X101417050Y-132521581D01*
X101417048Y-132521584D01*
X101376392Y-132582429D01*
X101376393Y-132582430D01*
X101334913Y-132644508D01*
X101278343Y-132781082D01*
X101278340Y-132781092D01*
X101249500Y-132926079D01*
X101249500Y-143596975D01*
X101229815Y-143664014D01*
X101177011Y-143709769D01*
X101107853Y-143719713D01*
X101044297Y-143690688D01*
X101010939Y-143644428D01*
X100991283Y-143596975D01*
X100987215Y-143587153D01*
X100948648Y-143515000D01*
X100834353Y-143301169D01*
X100834352Y-143301167D01*
X100834347Y-143301158D01*
X100654183Y-143031524D01*
X100448458Y-142780847D01*
X100448457Y-142780846D01*
X100448453Y-142780841D01*
X100219158Y-142551546D01*
X99968481Y-142345821D01*
X99968480Y-142345820D01*
X99968476Y-142345817D01*
X99698842Y-142165653D01*
X99698837Y-142165650D01*
X99698830Y-142165646D01*
X99412854Y-142012788D01*
X99412849Y-142012786D01*
X99113247Y-141888686D01*
X98802913Y-141794548D01*
X98802902Y-141794545D01*
X98484874Y-141731287D01*
X98484857Y-141731284D01*
X98240812Y-141707248D01*
X98162143Y-141699500D01*
X97837857Y-141699500D01*
X97765099Y-141706666D01*
X97515142Y-141731284D01*
X97515125Y-141731287D01*
X97197097Y-141794545D01*
X97197086Y-141794548D01*
X96886752Y-141888686D01*
X96587150Y-142012786D01*
X96587145Y-142012788D01*
X96301169Y-142165646D01*
X96301151Y-142165657D01*
X96031532Y-142345811D01*
X96031518Y-142345821D01*
X95780841Y-142551546D01*
X95712181Y-142620207D01*
X95650858Y-142653692D01*
X95581166Y-142648708D01*
X95525233Y-142606836D01*
X95500816Y-142541372D01*
X95500500Y-142532526D01*
X95500500Y-107952135D01*
X101499500Y-107952135D01*
X101499500Y-110047870D01*
X101499501Y-110047876D01*
X101505908Y-110107483D01*
X101556202Y-110242328D01*
X101556206Y-110242335D01*
X101642452Y-110357544D01*
X101642455Y-110357547D01*
X101757664Y-110443793D01*
X101757671Y-110443797D01*
X101892517Y-110494091D01*
X101892516Y-110494091D01*
X101899444Y-110494835D01*
X101952127Y-110500500D01*
X104047872Y-110500499D01*
X104107483Y-110494091D01*
X104242331Y-110443796D01*
X104357546Y-110357546D01*
X104443796Y-110242331D01*
X104494091Y-110107483D01*
X104500500Y-110047873D01*
X104500499Y-108612228D01*
X104520184Y-108545190D01*
X104536813Y-108524553D01*
X105109231Y-107952135D01*
X107999500Y-107952135D01*
X107999500Y-110047870D01*
X107999501Y-110047876D01*
X108005908Y-110107483D01*
X108056202Y-110242328D01*
X108056206Y-110242335D01*
X108142452Y-110357544D01*
X108142455Y-110357547D01*
X108257664Y-110443793D01*
X108257671Y-110443797D01*
X108392517Y-110494091D01*
X108392516Y-110494091D01*
X108399444Y-110494835D01*
X108452127Y-110500500D01*
X110547872Y-110500499D01*
X110607483Y-110494091D01*
X110742331Y-110443796D01*
X110857546Y-110357546D01*
X110943796Y-110242331D01*
X110994091Y-110107483D01*
X111000500Y-110047873D01*
X111000499Y-108612228D01*
X111020184Y-108545190D01*
X111036813Y-108524553D01*
X111609231Y-107952135D01*
X113499500Y-107952135D01*
X113499500Y-110047870D01*
X113499501Y-110047876D01*
X113505908Y-110107483D01*
X113556202Y-110242328D01*
X113556206Y-110242335D01*
X113642452Y-110357544D01*
X113642455Y-110357547D01*
X113757664Y-110443793D01*
X113757671Y-110443797D01*
X113892517Y-110494091D01*
X113892516Y-110494091D01*
X113899444Y-110494835D01*
X113952127Y-110500500D01*
X116047872Y-110500499D01*
X116107483Y-110494091D01*
X116242331Y-110443796D01*
X116357546Y-110357546D01*
X116443796Y-110242331D01*
X116494091Y-110107483D01*
X116500500Y-110047873D01*
X116500499Y-108612228D01*
X116520184Y-108545190D01*
X116536813Y-108524553D01*
X117109231Y-107952135D01*
X119499500Y-107952135D01*
X119499500Y-110047870D01*
X119499501Y-110047876D01*
X119505908Y-110107483D01*
X119556202Y-110242328D01*
X119556206Y-110242335D01*
X119642452Y-110357544D01*
X119642455Y-110357547D01*
X119757664Y-110443793D01*
X119757671Y-110443797D01*
X119892517Y-110494091D01*
X119892516Y-110494091D01*
X119899444Y-110494835D01*
X119952127Y-110500500D01*
X122047872Y-110500499D01*
X122107483Y-110494091D01*
X122242331Y-110443796D01*
X122357546Y-110357546D01*
X122443796Y-110242331D01*
X122494091Y-110107483D01*
X122500500Y-110047873D01*
X122500500Y-109874500D01*
X122520185Y-109807461D01*
X122572989Y-109761706D01*
X122624500Y-109750500D01*
X129220872Y-109750500D01*
X129287911Y-109770185D01*
X129321189Y-109801613D01*
X129385209Y-109889728D01*
X129511592Y-110016111D01*
X129656188Y-110121167D01*
X129815439Y-110202309D01*
X129815441Y-110202310D01*
X129973990Y-110253825D01*
X129985423Y-110257540D01*
X130161954Y-110285500D01*
X130161955Y-110285500D01*
X131610685Y-110285500D01*
X131610686Y-110285500D01*
X131787217Y-110257540D01*
X131787220Y-110257539D01*
X131787221Y-110257539D01*
X131957198Y-110202310D01*
X131957198Y-110202309D01*
X131957201Y-110202309D01*
X132116452Y-110121167D01*
X132261048Y-110016111D01*
X132387431Y-109889728D01*
X132492487Y-109745132D01*
X132573629Y-109585881D01*
X132628860Y-109415897D01*
X132656820Y-109239366D01*
X132656820Y-109060634D01*
X132628860Y-108884103D01*
X132628859Y-108884099D01*
X132628859Y-108884098D01*
X132573630Y-108714121D01*
X132573628Y-108714118D01*
X132526092Y-108620821D01*
X132492487Y-108554868D01*
X132387431Y-108410272D01*
X132261048Y-108283889D01*
X132116452Y-108178833D01*
X131957201Y-108097691D01*
X131957198Y-108097689D01*
X131787219Y-108042460D01*
X131669529Y-108023820D01*
X131610686Y-108014500D01*
X130161954Y-108014500D01*
X130103110Y-108023820D01*
X129985421Y-108042460D01*
X129985418Y-108042460D01*
X129815441Y-108097689D01*
X129815438Y-108097691D01*
X129656187Y-108178833D01*
X129591519Y-108225818D01*
X129525712Y-108249298D01*
X129518633Y-108249500D01*
X122624499Y-108249500D01*
X122557460Y-108229815D01*
X122511705Y-108177011D01*
X122500499Y-108125500D01*
X122500499Y-107952129D01*
X122500498Y-107952123D01*
X122500497Y-107952116D01*
X122494091Y-107892517D01*
X122491729Y-107886185D01*
X122443797Y-107757671D01*
X122443793Y-107757664D01*
X122357547Y-107642455D01*
X122357544Y-107642452D01*
X122242335Y-107556206D01*
X122242328Y-107556202D01*
X122107482Y-107505908D01*
X122107483Y-107505908D01*
X122047883Y-107499501D01*
X122047881Y-107499500D01*
X122047873Y-107499500D01*
X122047864Y-107499500D01*
X119952129Y-107499500D01*
X119952123Y-107499501D01*
X119892516Y-107505908D01*
X119757671Y-107556202D01*
X119757664Y-107556206D01*
X119642455Y-107642452D01*
X119642452Y-107642455D01*
X119556206Y-107757664D01*
X119556202Y-107757671D01*
X119505908Y-107892517D01*
X119499501Y-107952116D01*
X119499501Y-107952123D01*
X119499500Y-107952135D01*
X117109231Y-107952135D01*
X118540732Y-106520634D01*
X129115820Y-106520634D01*
X129115820Y-106699365D01*
X129143780Y-106875898D01*
X129143780Y-106875901D01*
X129199009Y-107045878D01*
X129199011Y-107045881D01*
X129280153Y-107205132D01*
X129385209Y-107349728D01*
X129511592Y-107476111D01*
X129656188Y-107581167D01*
X129815439Y-107662309D01*
X129815441Y-107662310D01*
X129973990Y-107713825D01*
X129985423Y-107717540D01*
X130161954Y-107745500D01*
X130161955Y-107745500D01*
X131610685Y-107745500D01*
X131610686Y-107745500D01*
X131787217Y-107717540D01*
X131787220Y-107717539D01*
X131787221Y-107717539D01*
X131957198Y-107662310D01*
X131957198Y-107662309D01*
X131957201Y-107662309D01*
X132116452Y-107581167D01*
X132261048Y-107476111D01*
X132387431Y-107349728D01*
X132492487Y-107205132D01*
X132573629Y-107045881D01*
X132628860Y-106875897D01*
X132656820Y-106699366D01*
X132656820Y-106520634D01*
X132628860Y-106344103D01*
X132628859Y-106344099D01*
X132628859Y-106344098D01*
X132573630Y-106174121D01*
X132573628Y-106174118D01*
X132492486Y-106014867D01*
X132387431Y-105870272D01*
X132261048Y-105743889D01*
X132116452Y-105638833D01*
X131957201Y-105557691D01*
X131957198Y-105557689D01*
X131787219Y-105502460D01*
X131669529Y-105483820D01*
X131610686Y-105474500D01*
X130161954Y-105474500D01*
X130103110Y-105483820D01*
X129985421Y-105502460D01*
X129985418Y-105502460D01*
X129815441Y-105557689D01*
X129815438Y-105557691D01*
X129656187Y-105638833D01*
X129511590Y-105743890D01*
X129385210Y-105870270D01*
X129280153Y-106014867D01*
X129199011Y-106174118D01*
X129199009Y-106174121D01*
X129143780Y-106344098D01*
X129143780Y-106344101D01*
X129115820Y-106520634D01*
X118540732Y-106520634D01*
X121080733Y-103980634D01*
X129115820Y-103980634D01*
X129115820Y-104159365D01*
X129143780Y-104335898D01*
X129143780Y-104335901D01*
X129199009Y-104505878D01*
X129199011Y-104505881D01*
X129280153Y-104665132D01*
X129385209Y-104809728D01*
X129511592Y-104936111D01*
X129656188Y-105041167D01*
X129815439Y-105122309D01*
X129815441Y-105122310D01*
X129973990Y-105173825D01*
X129985423Y-105177540D01*
X130161954Y-105205500D01*
X130161955Y-105205500D01*
X131610685Y-105205500D01*
X131610686Y-105205500D01*
X131787217Y-105177540D01*
X131787220Y-105177539D01*
X131787221Y-105177539D01*
X131957198Y-105122310D01*
X131957198Y-105122309D01*
X131957201Y-105122309D01*
X132116452Y-105041167D01*
X132261048Y-104936111D01*
X132387431Y-104809728D01*
X132492487Y-104665132D01*
X132573629Y-104505881D01*
X132628860Y-104335897D01*
X132656820Y-104159366D01*
X132656820Y-103980634D01*
X132628860Y-103804103D01*
X132628859Y-103804099D01*
X132628859Y-103804098D01*
X132573630Y-103634121D01*
X132573628Y-103634118D01*
X132492486Y-103474867D01*
X132387431Y-103330272D01*
X132261048Y-103203889D01*
X132116452Y-103098833D01*
X131957201Y-103017691D01*
X131957198Y-103017689D01*
X131787219Y-102962460D01*
X131669529Y-102943820D01*
X131610686Y-102934500D01*
X130161954Y-102934500D01*
X130103110Y-102943820D01*
X129985421Y-102962460D01*
X129985418Y-102962460D01*
X129815441Y-103017689D01*
X129815438Y-103017691D01*
X129656187Y-103098833D01*
X129511590Y-103203890D01*
X129385210Y-103330270D01*
X129280153Y-103474867D01*
X129199011Y-103634118D01*
X129199009Y-103634121D01*
X129143780Y-103804098D01*
X129143780Y-103804101D01*
X129115820Y-103980634D01*
X121080733Y-103980634D01*
X122744548Y-102316819D01*
X122805871Y-102283334D01*
X122832229Y-102280500D01*
X129344619Y-102280500D01*
X129411658Y-102300185D01*
X129432300Y-102316819D01*
X129511592Y-102396111D01*
X129656188Y-102501167D01*
X129815439Y-102582309D01*
X129815441Y-102582310D01*
X129973990Y-102633825D01*
X129985423Y-102637540D01*
X130161954Y-102665500D01*
X130161955Y-102665500D01*
X131610685Y-102665500D01*
X131610686Y-102665500D01*
X131787217Y-102637540D01*
X131787220Y-102637539D01*
X131787221Y-102637539D01*
X131957198Y-102582310D01*
X131957198Y-102582309D01*
X131957201Y-102582309D01*
X132116452Y-102501167D01*
X132261048Y-102396111D01*
X132387431Y-102269728D01*
X132492487Y-102125132D01*
X132573629Y-101965881D01*
X132628860Y-101795897D01*
X132656820Y-101619366D01*
X132656820Y-101440634D01*
X132628860Y-101264103D01*
X132628859Y-101264099D01*
X132628859Y-101264098D01*
X132573630Y-101094121D01*
X132573628Y-101094118D01*
X132498695Y-100947051D01*
X132492487Y-100934868D01*
X132387431Y-100790272D01*
X132261048Y-100663889D01*
X132116452Y-100558833D01*
X131957201Y-100477691D01*
X131957198Y-100477689D01*
X131787219Y-100422460D01*
X131669529Y-100403820D01*
X131610686Y-100394500D01*
X130161954Y-100394500D01*
X130103110Y-100403820D01*
X129985421Y-100422460D01*
X129985418Y-100422460D01*
X129815441Y-100477689D01*
X129815438Y-100477691D01*
X129656187Y-100558833D01*
X129511590Y-100663890D01*
X129511589Y-100663891D01*
X129432300Y-100743181D01*
X129370977Y-100776666D01*
X129344619Y-100779500D01*
X122396080Y-100779500D01*
X122251092Y-100808340D01*
X122251082Y-100808343D01*
X122114511Y-100864912D01*
X122114498Y-100864919D01*
X121991584Y-100947048D01*
X121991580Y-100947051D01*
X115475449Y-107463181D01*
X115414126Y-107496666D01*
X115387768Y-107499500D01*
X113952129Y-107499500D01*
X113952123Y-107499501D01*
X113892516Y-107505908D01*
X113757671Y-107556202D01*
X113757664Y-107556206D01*
X113642455Y-107642452D01*
X113642452Y-107642455D01*
X113556206Y-107757664D01*
X113556202Y-107757671D01*
X113505908Y-107892517D01*
X113499501Y-107952116D01*
X113499501Y-107952123D01*
X113499500Y-107952135D01*
X111609231Y-107952135D01*
X120821368Y-98739999D01*
X129141767Y-98739999D01*
X129141768Y-98740000D01*
X129970634Y-98740000D01*
X129966240Y-98744394D01*
X129913579Y-98835606D01*
X129886320Y-98937339D01*
X129886320Y-99042661D01*
X129913579Y-99144394D01*
X129966240Y-99235606D01*
X129970634Y-99240000D01*
X129141768Y-99240000D01*
X129144266Y-99255778D01*
X129199475Y-99425693D01*
X129280583Y-99584873D01*
X129385584Y-99729396D01*
X129385588Y-99729401D01*
X129511918Y-99855731D01*
X129511923Y-99855735D01*
X129656446Y-99960736D01*
X129815626Y-100041844D01*
X129985539Y-100097053D01*
X130161989Y-100125000D01*
X130636320Y-100125000D01*
X130636320Y-99390000D01*
X131136320Y-99390000D01*
X131136320Y-100125000D01*
X131610651Y-100125000D01*
X131787100Y-100097053D01*
X131957013Y-100041844D01*
X132116193Y-99960736D01*
X132260716Y-99855735D01*
X132260721Y-99855731D01*
X132387051Y-99729401D01*
X132387055Y-99729396D01*
X132492056Y-99584873D01*
X132573164Y-99425693D01*
X132628373Y-99255778D01*
X132630872Y-99240000D01*
X131802006Y-99240000D01*
X131806400Y-99235606D01*
X131859061Y-99144394D01*
X131886320Y-99042661D01*
X131886320Y-98937339D01*
X131859061Y-98835606D01*
X131806400Y-98744394D01*
X131802006Y-98740000D01*
X132630872Y-98740000D01*
X132630872Y-98739999D01*
X132628373Y-98724221D01*
X132573164Y-98554306D01*
X132492056Y-98395126D01*
X132387055Y-98250603D01*
X132387051Y-98250598D01*
X132260721Y-98124268D01*
X132260716Y-98124264D01*
X132116193Y-98019263D01*
X131957013Y-97938155D01*
X131787100Y-97882946D01*
X131610651Y-97855000D01*
X131136320Y-97855000D01*
X131136320Y-98590000D01*
X130636320Y-98590000D01*
X130636320Y-97855000D01*
X130161989Y-97855000D01*
X129985539Y-97882946D01*
X129815626Y-97938155D01*
X129656446Y-98019263D01*
X129511923Y-98124264D01*
X129511918Y-98124268D01*
X129385588Y-98250598D01*
X129385584Y-98250603D01*
X129280583Y-98395126D01*
X129199475Y-98554306D01*
X129144266Y-98724221D01*
X129141767Y-98739999D01*
X120821368Y-98739999D01*
X122324548Y-97236819D01*
X122385871Y-97203334D01*
X122412229Y-97200500D01*
X129344619Y-97200500D01*
X129411658Y-97220185D01*
X129432300Y-97236819D01*
X129511592Y-97316111D01*
X129656188Y-97421167D01*
X129815439Y-97502309D01*
X129815441Y-97502310D01*
X129973990Y-97553825D01*
X129985423Y-97557540D01*
X130161954Y-97585500D01*
X130161955Y-97585500D01*
X131610685Y-97585500D01*
X131610686Y-97585500D01*
X131787217Y-97557540D01*
X131787220Y-97557539D01*
X131787221Y-97557539D01*
X131957198Y-97502310D01*
X131957198Y-97502309D01*
X131957201Y-97502309D01*
X132116452Y-97421167D01*
X132261048Y-97316111D01*
X132387431Y-97189728D01*
X132492487Y-97045132D01*
X132573629Y-96885881D01*
X132628860Y-96715897D01*
X132656820Y-96539366D01*
X132656820Y-96360634D01*
X132628860Y-96184103D01*
X132628859Y-96184099D01*
X132628859Y-96184098D01*
X132573630Y-96014121D01*
X132573628Y-96014118D01*
X132498695Y-95867051D01*
X132492487Y-95854868D01*
X132387431Y-95710272D01*
X132261048Y-95583889D01*
X132116452Y-95478833D01*
X131957201Y-95397691D01*
X131957198Y-95397689D01*
X131787219Y-95342460D01*
X131656877Y-95321816D01*
X131610686Y-95314500D01*
X130161954Y-95314500D01*
X130115763Y-95321816D01*
X129985421Y-95342460D01*
X129985418Y-95342460D01*
X129815441Y-95397689D01*
X129815438Y-95397691D01*
X129656187Y-95478833D01*
X129511590Y-95583890D01*
X129511589Y-95583891D01*
X129432300Y-95663181D01*
X129370977Y-95696666D01*
X129344619Y-95699500D01*
X121976080Y-95699500D01*
X121831092Y-95728340D01*
X121831082Y-95728343D01*
X121694511Y-95784912D01*
X121694498Y-95784919D01*
X121571584Y-95867048D01*
X121571580Y-95867051D01*
X109975449Y-107463181D01*
X109914126Y-107496666D01*
X109887768Y-107499500D01*
X108452129Y-107499500D01*
X108452123Y-107499501D01*
X108392516Y-107505908D01*
X108257671Y-107556202D01*
X108257664Y-107556206D01*
X108142455Y-107642452D01*
X108142452Y-107642455D01*
X108056206Y-107757664D01*
X108056202Y-107757671D01*
X108005908Y-107892517D01*
X107999501Y-107952116D01*
X107999501Y-107952123D01*
X107999500Y-107952135D01*
X105109231Y-107952135D01*
X118364548Y-94696819D01*
X118425871Y-94663334D01*
X118452229Y-94660500D01*
X129344619Y-94660500D01*
X129411658Y-94680185D01*
X129432300Y-94696819D01*
X129511592Y-94776111D01*
X129656188Y-94881167D01*
X129815439Y-94962309D01*
X129815441Y-94962310D01*
X129915818Y-94994924D01*
X129985423Y-95017540D01*
X130161954Y-95045500D01*
X130161955Y-95045500D01*
X131610685Y-95045500D01*
X131610686Y-95045500D01*
X131787217Y-95017540D01*
X131787220Y-95017539D01*
X131787221Y-95017539D01*
X131957198Y-94962310D01*
X131957198Y-94962309D01*
X131957201Y-94962309D01*
X132116452Y-94881167D01*
X132261048Y-94776111D01*
X132387431Y-94649728D01*
X132492487Y-94505132D01*
X132573629Y-94345881D01*
X132628860Y-94175897D01*
X132656820Y-93999366D01*
X132656820Y-93820634D01*
X132628860Y-93644103D01*
X132628859Y-93644099D01*
X132628859Y-93644098D01*
X132573630Y-93474121D01*
X132573628Y-93474118D01*
X132498693Y-93327048D01*
X132492487Y-93314868D01*
X132387431Y-93170272D01*
X132261048Y-93043889D01*
X132116452Y-92938833D01*
X131957201Y-92857691D01*
X131957198Y-92857689D01*
X131787219Y-92802460D01*
X131656877Y-92781816D01*
X131610686Y-92774500D01*
X130161954Y-92774500D01*
X130115763Y-92781816D01*
X129985421Y-92802460D01*
X129985418Y-92802460D01*
X129815441Y-92857689D01*
X129815438Y-92857691D01*
X129656187Y-92938833D01*
X129511590Y-93043890D01*
X129511589Y-93043891D01*
X129432300Y-93123181D01*
X129370977Y-93156666D01*
X129344619Y-93159500D01*
X118016076Y-93159500D01*
X117987242Y-93165234D01*
X117987243Y-93165235D01*
X117871093Y-93188339D01*
X117871083Y-93188342D01*
X117791081Y-93221479D01*
X117791082Y-93221480D01*
X117734506Y-93244915D01*
X117676757Y-93283502D01*
X117611582Y-93327049D01*
X117611579Y-93327052D01*
X103475449Y-107463181D01*
X103414126Y-107496666D01*
X103387768Y-107499500D01*
X101952129Y-107499500D01*
X101952123Y-107499501D01*
X101892516Y-107505908D01*
X101757671Y-107556202D01*
X101757664Y-107556206D01*
X101642455Y-107642452D01*
X101642452Y-107642455D01*
X101556206Y-107757664D01*
X101556202Y-107757671D01*
X101505908Y-107892517D01*
X101499501Y-107952116D01*
X101499501Y-107952123D01*
X101499500Y-107952135D01*
X95500500Y-107952135D01*
X95500500Y-91280634D01*
X129115820Y-91280634D01*
X129115820Y-91459365D01*
X129143780Y-91635898D01*
X129143780Y-91635901D01*
X129199009Y-91805878D01*
X129199011Y-91805881D01*
X129280153Y-91965132D01*
X129385209Y-92109728D01*
X129511592Y-92236111D01*
X129656188Y-92341167D01*
X129815439Y-92422309D01*
X129815441Y-92422310D01*
X129973990Y-92473825D01*
X129985423Y-92477540D01*
X130161954Y-92505500D01*
X130161955Y-92505500D01*
X131610685Y-92505500D01*
X131610686Y-92505500D01*
X131787217Y-92477540D01*
X131787220Y-92477539D01*
X131787221Y-92477539D01*
X131957198Y-92422310D01*
X131957198Y-92422309D01*
X131957201Y-92422309D01*
X132116452Y-92341167D01*
X132261048Y-92236111D01*
X132387431Y-92109728D01*
X132492487Y-91965132D01*
X132573629Y-91805881D01*
X132628860Y-91635897D01*
X132656820Y-91459366D01*
X132656820Y-91280634D01*
X132628860Y-91104103D01*
X132628859Y-91104099D01*
X132628859Y-91104098D01*
X132573630Y-90934121D01*
X132573628Y-90934118D01*
X132492486Y-90774867D01*
X132387431Y-90630272D01*
X132261048Y-90503889D01*
X132116452Y-90398833D01*
X131957201Y-90317691D01*
X131957198Y-90317689D01*
X131787219Y-90262460D01*
X131669529Y-90243820D01*
X131610686Y-90234500D01*
X130161954Y-90234500D01*
X130103110Y-90243820D01*
X129985421Y-90262460D01*
X129985418Y-90262460D01*
X129815441Y-90317689D01*
X129815438Y-90317691D01*
X129656187Y-90398833D01*
X129511590Y-90503890D01*
X129385210Y-90630270D01*
X129280153Y-90774867D01*
X129199011Y-90934118D01*
X129199009Y-90934121D01*
X129143780Y-91104098D01*
X129143780Y-91104101D01*
X129115820Y-91280634D01*
X95500500Y-91280634D01*
X95500500Y-88740634D01*
X129115820Y-88740634D01*
X129115820Y-88919365D01*
X129143780Y-89095898D01*
X129143780Y-89095901D01*
X129199009Y-89265878D01*
X129199011Y-89265881D01*
X129280153Y-89425132D01*
X129385209Y-89569728D01*
X129511592Y-89696111D01*
X129656188Y-89801167D01*
X129815439Y-89882309D01*
X129815441Y-89882310D01*
X129973990Y-89933825D01*
X129985423Y-89937540D01*
X130161954Y-89965500D01*
X130161955Y-89965500D01*
X131610685Y-89965500D01*
X131610686Y-89965500D01*
X131787217Y-89937540D01*
X131787220Y-89937539D01*
X131787221Y-89937539D01*
X131957198Y-89882310D01*
X131957198Y-89882309D01*
X131957201Y-89882309D01*
X132116452Y-89801167D01*
X132261048Y-89696111D01*
X132387431Y-89569728D01*
X132492487Y-89425132D01*
X132573629Y-89265881D01*
X132628860Y-89095897D01*
X132656820Y-88919366D01*
X132656820Y-88740634D01*
X132628860Y-88564103D01*
X132628859Y-88564099D01*
X132628859Y-88564098D01*
X132573630Y-88394121D01*
X132573628Y-88394118D01*
X132492486Y-88234867D01*
X132387431Y-88090272D01*
X132261048Y-87963889D01*
X132116452Y-87858833D01*
X131957201Y-87777691D01*
X131957198Y-87777689D01*
X131787219Y-87722460D01*
X131669529Y-87703820D01*
X131610686Y-87694500D01*
X130161954Y-87694500D01*
X130103110Y-87703820D01*
X129985421Y-87722460D01*
X129985418Y-87722460D01*
X129815441Y-87777689D01*
X129815438Y-87777691D01*
X129656187Y-87858833D01*
X129511590Y-87963890D01*
X129385210Y-88090270D01*
X129280153Y-88234867D01*
X129199011Y-88394118D01*
X129199009Y-88394121D01*
X129143780Y-88564098D01*
X129143780Y-88564101D01*
X129115820Y-88740634D01*
X95500500Y-88740634D01*
X95500500Y-86200634D01*
X129115820Y-86200634D01*
X129115820Y-86379365D01*
X129143780Y-86555898D01*
X129143780Y-86555901D01*
X129199009Y-86725878D01*
X129199011Y-86725881D01*
X129280153Y-86885132D01*
X129385209Y-87029728D01*
X129511592Y-87156111D01*
X129656188Y-87261167D01*
X129815439Y-87342309D01*
X129815441Y-87342310D01*
X129973990Y-87393825D01*
X129985423Y-87397540D01*
X130161954Y-87425500D01*
X130161955Y-87425500D01*
X131610685Y-87425500D01*
X131610686Y-87425500D01*
X131787217Y-87397540D01*
X131787220Y-87397539D01*
X131787221Y-87397539D01*
X131957198Y-87342310D01*
X131957198Y-87342309D01*
X131957201Y-87342309D01*
X132116452Y-87261167D01*
X132261048Y-87156111D01*
X132387431Y-87029728D01*
X132492487Y-86885132D01*
X132573629Y-86725881D01*
X132628860Y-86555897D01*
X132656820Y-86379366D01*
X132656820Y-86200634D01*
X132628860Y-86024103D01*
X132628859Y-86024099D01*
X132628859Y-86024098D01*
X132573630Y-85854121D01*
X132573628Y-85854118D01*
X132492486Y-85694867D01*
X132387431Y-85550272D01*
X132261048Y-85423889D01*
X132116452Y-85318833D01*
X131957201Y-85237691D01*
X131957198Y-85237689D01*
X131787219Y-85182460D01*
X131669529Y-85163820D01*
X131610686Y-85154500D01*
X130161954Y-85154500D01*
X130103110Y-85163820D01*
X129985421Y-85182460D01*
X129985418Y-85182460D01*
X129815441Y-85237689D01*
X129815438Y-85237691D01*
X129656187Y-85318833D01*
X129511590Y-85423890D01*
X129385210Y-85550270D01*
X129280153Y-85694867D01*
X129199011Y-85854118D01*
X129199009Y-85854121D01*
X129143780Y-86024098D01*
X129143780Y-86024101D01*
X129115820Y-86200634D01*
X95500500Y-86200634D01*
X95500500Y-83660634D01*
X129115820Y-83660634D01*
X129115820Y-83839365D01*
X129143780Y-84015898D01*
X129143780Y-84015901D01*
X129199009Y-84185878D01*
X129199011Y-84185881D01*
X129280153Y-84345132D01*
X129385209Y-84489728D01*
X129511592Y-84616111D01*
X129656188Y-84721167D01*
X129815439Y-84802309D01*
X129815441Y-84802310D01*
X129973990Y-84853825D01*
X129985423Y-84857540D01*
X130161954Y-84885500D01*
X130161955Y-84885500D01*
X131610685Y-84885500D01*
X131610686Y-84885500D01*
X131787217Y-84857540D01*
X131787220Y-84857539D01*
X131787221Y-84857539D01*
X131957198Y-84802310D01*
X131957198Y-84802309D01*
X131957201Y-84802309D01*
X132116452Y-84721167D01*
X132261048Y-84616111D01*
X132387431Y-84489728D01*
X132492487Y-84345132D01*
X132573629Y-84185881D01*
X132628860Y-84015897D01*
X132656820Y-83839366D01*
X132656820Y-83660634D01*
X132628860Y-83484103D01*
X132628859Y-83484099D01*
X132628859Y-83484098D01*
X132573630Y-83314121D01*
X132573628Y-83314118D01*
X132492486Y-83154867D01*
X132473817Y-83129171D01*
X132387431Y-83010272D01*
X132261048Y-82883889D01*
X132116452Y-82778833D01*
X131957201Y-82697691D01*
X131957198Y-82697689D01*
X131787219Y-82642460D01*
X131669529Y-82623820D01*
X131610686Y-82614500D01*
X130161954Y-82614500D01*
X130103110Y-82623820D01*
X129985421Y-82642460D01*
X129985418Y-82642460D01*
X129815441Y-82697689D01*
X129815438Y-82697691D01*
X129656187Y-82778833D01*
X129511590Y-82883890D01*
X129385210Y-83010270D01*
X129280153Y-83154867D01*
X129199011Y-83314118D01*
X129199009Y-83314121D01*
X129143780Y-83484098D01*
X129143780Y-83484101D01*
X129115820Y-83660634D01*
X95500500Y-83660634D01*
X95500500Y-81120634D01*
X129115820Y-81120634D01*
X129115820Y-81299365D01*
X129143780Y-81475898D01*
X129143780Y-81475901D01*
X129199009Y-81645878D01*
X129199011Y-81645881D01*
X129280153Y-81805132D01*
X129385209Y-81949728D01*
X129511592Y-82076111D01*
X129656188Y-82181167D01*
X129815439Y-82262309D01*
X129815441Y-82262310D01*
X129973990Y-82313825D01*
X129985423Y-82317540D01*
X130161954Y-82345500D01*
X130161955Y-82345500D01*
X131610685Y-82345500D01*
X131610686Y-82345500D01*
X131787217Y-82317540D01*
X131787220Y-82317539D01*
X131787221Y-82317539D01*
X131957198Y-82262310D01*
X131957198Y-82262309D01*
X131957201Y-82262309D01*
X132116452Y-82181167D01*
X132261048Y-82076111D01*
X132387431Y-81949728D01*
X132492487Y-81805132D01*
X132573629Y-81645881D01*
X132588537Y-81600000D01*
X132628859Y-81475901D01*
X132628859Y-81475900D01*
X132628860Y-81475897D01*
X132656820Y-81299366D01*
X132656820Y-81120634D01*
X132628860Y-80944103D01*
X132628859Y-80944099D01*
X132628859Y-80944098D01*
X132573630Y-80774121D01*
X132573628Y-80774118D01*
X132492486Y-80614867D01*
X132387671Y-80470603D01*
X132387431Y-80470272D01*
X132261048Y-80343889D01*
X132116452Y-80238833D01*
X131957201Y-80157691D01*
X131957198Y-80157689D01*
X131787219Y-80102460D01*
X131669529Y-80083820D01*
X131610686Y-80074500D01*
X130161954Y-80074500D01*
X130103110Y-80083820D01*
X129985421Y-80102460D01*
X129985418Y-80102460D01*
X129815441Y-80157689D01*
X129815438Y-80157691D01*
X129656187Y-80238833D01*
X129511590Y-80343890D01*
X129385210Y-80470270D01*
X129280153Y-80614867D01*
X129199011Y-80774118D01*
X129199009Y-80774121D01*
X129143780Y-80944098D01*
X129143780Y-80944101D01*
X129115820Y-81120634D01*
X95500500Y-81120634D01*
X95500500Y-78580634D01*
X129115820Y-78580634D01*
X129115820Y-78759365D01*
X129143780Y-78935898D01*
X129143780Y-78935901D01*
X129199009Y-79105878D01*
X129199011Y-79105881D01*
X129280153Y-79265132D01*
X129385209Y-79409728D01*
X129511592Y-79536111D01*
X129656188Y-79641167D01*
X129815439Y-79722309D01*
X129815441Y-79722310D01*
X129973990Y-79773825D01*
X129985423Y-79777540D01*
X130161954Y-79805500D01*
X130161955Y-79805500D01*
X131610685Y-79805500D01*
X131610686Y-79805500D01*
X131787217Y-79777540D01*
X131787220Y-79777539D01*
X131787221Y-79777539D01*
X131957198Y-79722310D01*
X131957198Y-79722309D01*
X131957201Y-79722309D01*
X132116452Y-79641167D01*
X132261048Y-79536111D01*
X132387431Y-79409728D01*
X132492487Y-79265132D01*
X132573629Y-79105881D01*
X132628860Y-78935897D01*
X132656820Y-78759366D01*
X132656820Y-78580634D01*
X132628860Y-78404103D01*
X132628859Y-78404099D01*
X132628859Y-78404098D01*
X132573630Y-78234121D01*
X132573628Y-78234118D01*
X132509105Y-78107482D01*
X132492487Y-78074868D01*
X132387431Y-77930272D01*
X132261048Y-77803889D01*
X132116452Y-77698833D01*
X131957201Y-77617691D01*
X131957198Y-77617689D01*
X131787219Y-77562460D01*
X131669529Y-77543820D01*
X131610686Y-77534500D01*
X130161954Y-77534500D01*
X130103110Y-77543820D01*
X129985421Y-77562460D01*
X129985418Y-77562460D01*
X129815441Y-77617689D01*
X129815438Y-77617691D01*
X129656187Y-77698833D01*
X129511590Y-77803890D01*
X129385210Y-77930270D01*
X129280153Y-78074867D01*
X129199011Y-78234118D01*
X129199009Y-78234121D01*
X129143780Y-78404098D01*
X129143780Y-78404101D01*
X129115820Y-78580634D01*
X95500500Y-78580634D01*
X95500500Y-76040634D01*
X129115820Y-76040634D01*
X129115820Y-76219365D01*
X129143780Y-76395898D01*
X129143780Y-76395901D01*
X129199009Y-76565878D01*
X129199011Y-76565881D01*
X129280153Y-76725132D01*
X129385209Y-76869728D01*
X129511592Y-76996111D01*
X129656188Y-77101167D01*
X129815439Y-77182309D01*
X129815441Y-77182310D01*
X129973990Y-77233825D01*
X129985423Y-77237540D01*
X130161954Y-77265500D01*
X130161955Y-77265500D01*
X131610685Y-77265500D01*
X131610686Y-77265500D01*
X131787217Y-77237540D01*
X131787220Y-77237539D01*
X131787221Y-77237539D01*
X131957198Y-77182310D01*
X131957198Y-77182309D01*
X131957201Y-77182309D01*
X132116452Y-77101167D01*
X132261048Y-76996111D01*
X132387431Y-76869728D01*
X132492487Y-76725132D01*
X132573629Y-76565881D01*
X132628860Y-76395897D01*
X132656820Y-76219366D01*
X132656820Y-76040634D01*
X132628860Y-75864103D01*
X132628859Y-75864099D01*
X132628859Y-75864098D01*
X132573630Y-75694121D01*
X132573628Y-75694118D01*
X132547305Y-75642454D01*
X132492487Y-75534868D01*
X132387431Y-75390272D01*
X132261048Y-75263889D01*
X132116452Y-75158833D01*
X131957201Y-75077691D01*
X131957198Y-75077689D01*
X131787219Y-75022460D01*
X131669529Y-75003820D01*
X131610686Y-74994500D01*
X130161954Y-74994500D01*
X130103110Y-75003820D01*
X129985421Y-75022460D01*
X129985418Y-75022460D01*
X129815441Y-75077689D01*
X129815438Y-75077691D01*
X129656187Y-75158833D01*
X129511590Y-75263890D01*
X129385210Y-75390270D01*
X129280153Y-75534867D01*
X129199011Y-75694118D01*
X129199009Y-75694121D01*
X129143780Y-75864098D01*
X129143780Y-75864101D01*
X129115820Y-76040634D01*
X95500500Y-76040634D01*
X95500500Y-54892734D01*
X107010000Y-54892734D01*
X107010000Y-55750000D01*
X107889175Y-55750000D01*
X107865364Y-55807485D01*
X107840000Y-55934996D01*
X107840000Y-56065004D01*
X107865364Y-56192515D01*
X107889175Y-56250000D01*
X107010000Y-56250000D01*
X107010000Y-57107265D01*
X107046689Y-57338909D01*
X107119164Y-57561965D01*
X107225638Y-57770930D01*
X107363494Y-57960672D01*
X107529327Y-58126505D01*
X107719069Y-58264361D01*
X107928036Y-58370835D01*
X108151089Y-58443310D01*
X108250000Y-58458976D01*
X108250000Y-56610824D01*
X108307485Y-56634636D01*
X108434996Y-56660000D01*
X108565004Y-56660000D01*
X108692515Y-56634636D01*
X108750000Y-56610824D01*
X108750000Y-58458975D01*
X108848909Y-58443310D01*
X108848912Y-58443310D01*
X109071963Y-58370835D01*
X109280930Y-58264361D01*
X109470672Y-58126505D01*
X109636505Y-57960672D01*
X109774361Y-57770930D01*
X109880835Y-57561965D01*
X109953310Y-57338909D01*
X109990000Y-57107265D01*
X109990000Y-56250000D01*
X109110825Y-56250000D01*
X109134636Y-56192515D01*
X109160000Y-56065004D01*
X109160000Y-55934996D01*
X109134636Y-55807485D01*
X109110825Y-55750000D01*
X109990000Y-55750000D01*
X109990000Y-54892734D01*
X109989994Y-54892695D01*
X112009500Y-54892695D01*
X112009500Y-57107304D01*
X112046201Y-57339027D01*
X112118697Y-57562150D01*
X112225212Y-57771195D01*
X112363104Y-57960989D01*
X112363108Y-57960994D01*
X112529005Y-58126891D01*
X112529010Y-58126895D01*
X112577326Y-58161998D01*
X112718808Y-58264790D01*
X112926932Y-58370835D01*
X112927849Y-58371302D01*
X113039410Y-58407550D01*
X113150974Y-58443799D01*
X113382695Y-58480500D01*
X113382696Y-58480500D01*
X113617304Y-58480500D01*
X113617305Y-58480500D01*
X113849026Y-58443799D01*
X114072153Y-58371301D01*
X114281192Y-58264790D01*
X114440070Y-58149358D01*
X114505870Y-58125881D01*
X114573924Y-58141706D01*
X114600631Y-58161998D01*
X129269795Y-72831162D01*
X129303280Y-72892485D01*
X129298296Y-72962177D01*
X129282443Y-72991713D01*
X129280157Y-72994860D01*
X129199011Y-73154118D01*
X129199009Y-73154121D01*
X129143780Y-73324098D01*
X129143780Y-73324101D01*
X129115820Y-73500634D01*
X129115820Y-73679365D01*
X129143780Y-73855898D01*
X129143780Y-73855901D01*
X129199009Y-74025878D01*
X129199011Y-74025881D01*
X129280153Y-74185132D01*
X129385209Y-74329728D01*
X129511592Y-74456111D01*
X129656188Y-74561167D01*
X129815439Y-74642309D01*
X129815441Y-74642310D01*
X129973990Y-74693825D01*
X129985423Y-74697540D01*
X130161954Y-74725500D01*
X130161955Y-74725500D01*
X131610685Y-74725500D01*
X131610686Y-74725500D01*
X131787217Y-74697540D01*
X131787220Y-74697539D01*
X131787221Y-74697539D01*
X131957198Y-74642310D01*
X131957198Y-74642309D01*
X131957201Y-74642309D01*
X132116452Y-74561167D01*
X132261048Y-74456111D01*
X132387431Y-74329728D01*
X132448571Y-74245575D01*
X132503900Y-74202911D01*
X132573513Y-74196932D01*
X132635308Y-74229537D01*
X132636569Y-74230781D01*
X151242181Y-92836393D01*
X151275666Y-92897716D01*
X151278500Y-92924074D01*
X151278500Y-97342918D01*
X151278500Y-97342920D01*
X151278499Y-97342920D01*
X151307340Y-97487907D01*
X151307343Y-97487917D01*
X151363914Y-97624492D01*
X151396812Y-97673727D01*
X151396813Y-97673730D01*
X151446046Y-97747414D01*
X151446052Y-97747421D01*
X152063139Y-98364507D01*
X152096624Y-98425830D01*
X152091640Y-98495521D01*
X152085944Y-98508481D01*
X152062689Y-98554122D01*
X152007460Y-98724098D01*
X152007460Y-98724101D01*
X151979500Y-98900634D01*
X151979500Y-99079365D01*
X152007460Y-99255898D01*
X152007460Y-99255901D01*
X152062689Y-99425878D01*
X152062691Y-99425881D01*
X152143833Y-99585132D01*
X152248889Y-99729728D01*
X152375272Y-99856111D01*
X152519868Y-99961167D01*
X152679119Y-100042309D01*
X152679121Y-100042310D01*
X152837670Y-100093825D01*
X152849103Y-100097540D01*
X153025634Y-100125500D01*
X153025635Y-100125500D01*
X154474365Y-100125500D01*
X154474366Y-100125500D01*
X154650897Y-100097540D01*
X154650900Y-100097539D01*
X154650901Y-100097539D01*
X154820878Y-100042310D01*
X154820878Y-100042309D01*
X154820881Y-100042309D01*
X154980132Y-99961167D01*
X155124728Y-99856111D01*
X155251111Y-99729728D01*
X155356167Y-99585132D01*
X155437309Y-99425881D01*
X155448967Y-99390000D01*
X155492539Y-99255901D01*
X155492539Y-99255900D01*
X155492540Y-99255897D01*
X155520500Y-99079366D01*
X155520500Y-98900634D01*
X155492540Y-98724103D01*
X155492539Y-98724099D01*
X155492539Y-98724098D01*
X155437310Y-98554121D01*
X155437308Y-98554118D01*
X155407452Y-98495521D01*
X155356167Y-98394868D01*
X155251111Y-98250272D01*
X155124728Y-98123889D01*
X154980132Y-98018833D01*
X154820881Y-97937691D01*
X154820878Y-97937689D01*
X154650899Y-97882460D01*
X154533209Y-97863820D01*
X154474366Y-97854500D01*
X154474365Y-97854500D01*
X153727229Y-97854500D01*
X153697788Y-97845855D01*
X153667802Y-97839332D01*
X153662786Y-97835577D01*
X153660190Y-97834815D01*
X153639548Y-97818181D01*
X153618548Y-97797181D01*
X153585063Y-97735858D01*
X153590047Y-97666166D01*
X153631919Y-97610233D01*
X153697383Y-97585816D01*
X153706229Y-97585500D01*
X154474365Y-97585500D01*
X154474366Y-97585500D01*
X154650897Y-97557540D01*
X154650900Y-97557539D01*
X154650901Y-97557539D01*
X154820878Y-97502310D01*
X154820878Y-97502309D01*
X154820881Y-97502309D01*
X154980132Y-97421167D01*
X155124728Y-97316111D01*
X155251111Y-97189728D01*
X155356167Y-97045132D01*
X155437309Y-96885881D01*
X155492540Y-96715897D01*
X155520500Y-96539366D01*
X155520500Y-96360634D01*
X155492540Y-96184103D01*
X155492539Y-96184099D01*
X155492539Y-96184098D01*
X155437310Y-96014121D01*
X155437308Y-96014118D01*
X155362375Y-95867051D01*
X155356167Y-95854868D01*
X155251111Y-95710272D01*
X155124728Y-95583889D01*
X154980132Y-95478833D01*
X154820881Y-95397691D01*
X154820878Y-95397689D01*
X154650899Y-95342460D01*
X154520557Y-95321816D01*
X154474366Y-95314500D01*
X153025634Y-95314500D01*
X152930856Y-95329511D01*
X152922897Y-95330772D01*
X152904355Y-95328375D01*
X152885853Y-95331036D01*
X152870424Y-95323990D01*
X152853603Y-95321816D01*
X152839302Y-95309776D01*
X152822297Y-95302011D01*
X152813126Y-95287741D01*
X152800152Y-95276819D01*
X152794630Y-95258960D01*
X152784523Y-95243233D01*
X152779964Y-95211527D01*
X152779513Y-95210068D01*
X152779500Y-95208298D01*
X152779500Y-95151701D01*
X152799185Y-95084662D01*
X152851989Y-95038907D01*
X152921147Y-95028963D01*
X152922886Y-95029226D01*
X153025634Y-95045500D01*
X153025635Y-95045500D01*
X154474365Y-95045500D01*
X154474366Y-95045500D01*
X154650897Y-95017540D01*
X154650900Y-95017539D01*
X154650901Y-95017539D01*
X154820878Y-94962310D01*
X154820878Y-94962309D01*
X154820881Y-94962309D01*
X154980132Y-94881167D01*
X155124728Y-94776111D01*
X155251111Y-94649728D01*
X155356167Y-94505132D01*
X155437309Y-94345881D01*
X155492540Y-94175897D01*
X155520500Y-93999366D01*
X155520500Y-93820634D01*
X155492540Y-93644103D01*
X155492539Y-93644099D01*
X155492539Y-93644098D01*
X155437310Y-93474121D01*
X155437308Y-93474118D01*
X155362373Y-93327048D01*
X155356167Y-93314868D01*
X155251111Y-93170272D01*
X155124728Y-93043889D01*
X154980132Y-92938833D01*
X154820881Y-92857691D01*
X154820878Y-92857689D01*
X154650899Y-92802460D01*
X154520557Y-92781816D01*
X154474366Y-92774500D01*
X153025634Y-92774500D01*
X152930856Y-92789511D01*
X152922897Y-92790772D01*
X152904355Y-92788375D01*
X152885853Y-92791036D01*
X152870424Y-92783990D01*
X152853603Y-92781816D01*
X152839302Y-92769776D01*
X152822297Y-92762011D01*
X152813126Y-92747741D01*
X152800152Y-92736819D01*
X152794630Y-92718960D01*
X152784523Y-92703233D01*
X152779964Y-92671527D01*
X152779513Y-92670068D01*
X152779500Y-92668298D01*
X152779500Y-92611701D01*
X152799185Y-92544662D01*
X152851989Y-92498907D01*
X152921147Y-92488963D01*
X152922886Y-92489226D01*
X153025634Y-92505500D01*
X153025635Y-92505500D01*
X154474365Y-92505500D01*
X154474366Y-92505500D01*
X154650897Y-92477540D01*
X154650900Y-92477539D01*
X154650901Y-92477539D01*
X154820878Y-92422310D01*
X154820878Y-92422309D01*
X154820881Y-92422309D01*
X154980132Y-92341167D01*
X155124728Y-92236111D01*
X155251111Y-92109728D01*
X155356167Y-91965132D01*
X155437309Y-91805881D01*
X155492540Y-91635897D01*
X155520500Y-91459366D01*
X155520500Y-91280634D01*
X155492540Y-91104103D01*
X155492539Y-91104099D01*
X155492539Y-91104098D01*
X155437310Y-90934121D01*
X155437308Y-90934118D01*
X155356166Y-90774867D01*
X155251111Y-90630272D01*
X155124728Y-90503889D01*
X154980132Y-90398833D01*
X154820881Y-90317691D01*
X154820878Y-90317689D01*
X154650899Y-90262460D01*
X154533209Y-90243820D01*
X154474366Y-90234500D01*
X153025634Y-90234500D01*
X152966790Y-90243820D01*
X152849101Y-90262460D01*
X152849098Y-90262460D01*
X152679121Y-90317689D01*
X152679118Y-90317691D01*
X152519867Y-90398833D01*
X152375270Y-90503890D01*
X152248890Y-90630270D01*
X152143833Y-90774867D01*
X152062691Y-90934118D01*
X152062689Y-90934121D01*
X152007460Y-91104098D01*
X152007460Y-91104100D01*
X151994279Y-91187319D01*
X151964349Y-91250454D01*
X151905037Y-91287384D01*
X151835175Y-91286386D01*
X151784125Y-91255601D01*
X149351967Y-88823443D01*
X149269158Y-88740634D01*
X151979500Y-88740634D01*
X151979500Y-88919365D01*
X152007460Y-89095898D01*
X152007460Y-89095901D01*
X152062689Y-89265878D01*
X152062691Y-89265881D01*
X152143833Y-89425132D01*
X152248889Y-89569728D01*
X152375272Y-89696111D01*
X152519868Y-89801167D01*
X152679119Y-89882309D01*
X152679121Y-89882310D01*
X152837670Y-89933825D01*
X152849103Y-89937540D01*
X153025634Y-89965500D01*
X153025635Y-89965500D01*
X154474365Y-89965500D01*
X154474366Y-89965500D01*
X154650897Y-89937540D01*
X154650900Y-89937539D01*
X154650901Y-89937539D01*
X154820878Y-89882310D01*
X154820878Y-89882309D01*
X154820881Y-89882309D01*
X154980132Y-89801167D01*
X155124728Y-89696111D01*
X155251111Y-89569728D01*
X155356167Y-89425132D01*
X155437309Y-89265881D01*
X155492540Y-89095897D01*
X155520500Y-88919366D01*
X155520500Y-88740634D01*
X155492540Y-88564103D01*
X155492539Y-88564099D01*
X155492539Y-88564098D01*
X155437310Y-88394121D01*
X155437308Y-88394118D01*
X155356166Y-88234867D01*
X155251111Y-88090272D01*
X155124728Y-87963889D01*
X154980132Y-87858833D01*
X154820881Y-87777691D01*
X154820878Y-87777689D01*
X154650899Y-87722460D01*
X154533209Y-87703820D01*
X154474366Y-87694500D01*
X153025634Y-87694500D01*
X152966790Y-87703820D01*
X152849101Y-87722460D01*
X152849098Y-87722460D01*
X152679121Y-87777689D01*
X152679118Y-87777691D01*
X152519867Y-87858833D01*
X152375270Y-87963890D01*
X152248890Y-88090270D01*
X152143833Y-88234867D01*
X152062691Y-88394118D01*
X152062689Y-88394121D01*
X152007460Y-88564098D01*
X152007460Y-88564101D01*
X151979500Y-88740634D01*
X149269158Y-88740634D01*
X146811968Y-86283443D01*
X146729159Y-86200634D01*
X151979500Y-86200634D01*
X151979500Y-86379365D01*
X152007460Y-86555898D01*
X152007460Y-86555901D01*
X152062689Y-86725878D01*
X152062691Y-86725881D01*
X152143833Y-86885132D01*
X152248889Y-87029728D01*
X152375272Y-87156111D01*
X152519868Y-87261167D01*
X152679119Y-87342309D01*
X152679121Y-87342310D01*
X152837670Y-87393825D01*
X152849103Y-87397540D01*
X153025634Y-87425500D01*
X153025635Y-87425500D01*
X154474365Y-87425500D01*
X154474366Y-87425500D01*
X154650897Y-87397540D01*
X154650900Y-87397539D01*
X154650901Y-87397539D01*
X154820878Y-87342310D01*
X154820878Y-87342309D01*
X154820881Y-87342309D01*
X154980132Y-87261167D01*
X155124728Y-87156111D01*
X155251111Y-87029728D01*
X155356167Y-86885132D01*
X155437309Y-86725881D01*
X155492540Y-86555897D01*
X155520500Y-86379366D01*
X155520500Y-86200634D01*
X155492540Y-86024103D01*
X155492539Y-86024099D01*
X155492539Y-86024098D01*
X155437310Y-85854121D01*
X155437308Y-85854118D01*
X155356166Y-85694867D01*
X155251111Y-85550272D01*
X155124728Y-85423889D01*
X154980132Y-85318833D01*
X154820881Y-85237691D01*
X154820878Y-85237689D01*
X154650899Y-85182460D01*
X154533209Y-85163820D01*
X154474366Y-85154500D01*
X153025634Y-85154500D01*
X152966790Y-85163820D01*
X152849101Y-85182460D01*
X152849098Y-85182460D01*
X152679121Y-85237689D01*
X152679118Y-85237691D01*
X152519867Y-85318833D01*
X152375270Y-85423890D01*
X152248890Y-85550270D01*
X152143833Y-85694867D01*
X152062691Y-85854118D01*
X152062689Y-85854121D01*
X152007460Y-86024098D01*
X152007460Y-86024101D01*
X151979500Y-86200634D01*
X146729159Y-86200634D01*
X144189159Y-83660634D01*
X151979500Y-83660634D01*
X151979500Y-83839365D01*
X152007460Y-84015898D01*
X152007460Y-84015901D01*
X152062689Y-84185878D01*
X152062691Y-84185881D01*
X152143833Y-84345132D01*
X152248889Y-84489728D01*
X152375272Y-84616111D01*
X152519868Y-84721167D01*
X152679119Y-84802309D01*
X152679121Y-84802310D01*
X152837670Y-84853825D01*
X152849103Y-84857540D01*
X153025634Y-84885500D01*
X153025635Y-84885500D01*
X154474365Y-84885500D01*
X154474366Y-84885500D01*
X154650897Y-84857540D01*
X154650900Y-84857539D01*
X154650901Y-84857539D01*
X154820878Y-84802310D01*
X154820878Y-84802309D01*
X154820881Y-84802309D01*
X154980132Y-84721167D01*
X155124728Y-84616111D01*
X155251111Y-84489728D01*
X155356167Y-84345132D01*
X155437309Y-84185881D01*
X155492540Y-84015897D01*
X155520500Y-83839366D01*
X155520500Y-83660634D01*
X155492540Y-83484103D01*
X155492539Y-83484099D01*
X155492539Y-83484098D01*
X155437310Y-83314121D01*
X155437308Y-83314118D01*
X155356166Y-83154867D01*
X155337497Y-83129171D01*
X155251111Y-83010272D01*
X155124728Y-82883889D01*
X154980132Y-82778833D01*
X154820881Y-82697691D01*
X154820878Y-82697689D01*
X154650899Y-82642460D01*
X154533209Y-82623820D01*
X154474366Y-82614500D01*
X153025634Y-82614500D01*
X152966790Y-82623820D01*
X152849101Y-82642460D01*
X152849098Y-82642460D01*
X152679121Y-82697689D01*
X152679118Y-82697691D01*
X152519867Y-82778833D01*
X152375270Y-82883890D01*
X152248890Y-83010270D01*
X152143833Y-83154867D01*
X152062691Y-83314118D01*
X152062689Y-83314121D01*
X152007460Y-83484098D01*
X152007460Y-83484101D01*
X151979500Y-83660634D01*
X144189159Y-83660634D01*
X141488524Y-80959999D01*
X152005447Y-80959999D01*
X152005448Y-80960000D01*
X152834314Y-80960000D01*
X152829920Y-80964394D01*
X152777259Y-81055606D01*
X152750000Y-81157339D01*
X152750000Y-81262661D01*
X152777259Y-81364394D01*
X152829920Y-81455606D01*
X152834314Y-81460000D01*
X152005448Y-81460000D01*
X152007946Y-81475778D01*
X152063155Y-81645693D01*
X152144263Y-81804873D01*
X152249264Y-81949396D01*
X152249268Y-81949401D01*
X152375598Y-82075731D01*
X152375603Y-82075735D01*
X152520126Y-82180736D01*
X152679306Y-82261844D01*
X152849219Y-82317053D01*
X153025669Y-82345000D01*
X153500000Y-82345000D01*
X153500000Y-81610000D01*
X154000000Y-81610000D01*
X154000000Y-82345000D01*
X154474331Y-82345000D01*
X154650780Y-82317053D01*
X154820693Y-82261844D01*
X154979873Y-82180736D01*
X155093312Y-82098320D01*
X155124396Y-82075735D01*
X155124401Y-82075731D01*
X155250731Y-81949401D01*
X155250735Y-81949396D01*
X155355736Y-81804873D01*
X155436844Y-81645693D01*
X155484280Y-81499701D01*
X167047500Y-81499701D01*
X167047500Y-81750000D01*
X168184314Y-81750000D01*
X168179920Y-81754394D01*
X168127259Y-81845606D01*
X168100000Y-81947339D01*
X168100000Y-82052661D01*
X168127259Y-82154394D01*
X168179920Y-82245606D01*
X168184314Y-82250000D01*
X167047501Y-82250000D01*
X167047501Y-82500308D01*
X167053821Y-82569875D01*
X167053823Y-82569883D01*
X167103708Y-82729970D01*
X167103709Y-82729972D01*
X167190454Y-82873467D01*
X167190457Y-82873471D01*
X167309028Y-82992042D01*
X167309032Y-82992045D01*
X167452526Y-83078789D01*
X167612623Y-83128677D01*
X167682201Y-83134999D01*
X168249999Y-83134999D01*
X168250000Y-83134998D01*
X168250000Y-82315686D01*
X168254394Y-82320080D01*
X168345606Y-82372741D01*
X168447339Y-82400000D01*
X168552661Y-82400000D01*
X168654394Y-82372741D01*
X168745606Y-82320080D01*
X168750000Y-82315686D01*
X168750000Y-83134999D01*
X169317807Y-83134999D01*
X169387375Y-83128678D01*
X169387383Y-83128676D01*
X169547470Y-83078791D01*
X169547472Y-83078790D01*
X169690967Y-82992045D01*
X169690971Y-82992042D01*
X169809542Y-82873471D01*
X169809545Y-82873467D01*
X169896289Y-82729973D01*
X169946177Y-82569876D01*
X169952500Y-82500298D01*
X169952500Y-82250000D01*
X168815686Y-82250000D01*
X168820080Y-82245606D01*
X168872741Y-82154394D01*
X168900000Y-82052661D01*
X168900000Y-81947339D01*
X168872741Y-81845606D01*
X168820080Y-81754394D01*
X168815686Y-81750000D01*
X169952499Y-81750000D01*
X169952499Y-81499691D01*
X169952496Y-81499655D01*
X186047000Y-81499655D01*
X186047000Y-82500354D01*
X186053325Y-82569966D01*
X186053328Y-82569977D01*
X186103247Y-82730175D01*
X186103249Y-82730179D01*
X186190056Y-82873777D01*
X186190060Y-82873782D01*
X186308717Y-82992439D01*
X186308722Y-82992443D01*
X186429315Y-83065343D01*
X186452322Y-83079251D01*
X186612529Y-83129173D01*
X186682153Y-83135500D01*
X188317846Y-83135499D01*
X188317853Y-83135499D01*
X188387466Y-83129174D01*
X188387469Y-83129173D01*
X188387471Y-83129173D01*
X188547678Y-83079251D01*
X188661787Y-83010270D01*
X188691277Y-82992443D01*
X188691278Y-82992441D01*
X188691283Y-82992439D01*
X188809939Y-82873783D01*
X188896751Y-82730178D01*
X188946673Y-82569971D01*
X188953000Y-82500347D01*
X188952999Y-81499654D01*
X188952999Y-81499653D01*
X188952999Y-81499645D01*
X188946674Y-81430033D01*
X188946671Y-81430022D01*
X188896752Y-81269824D01*
X188896750Y-81269820D01*
X188809943Y-81126222D01*
X188809939Y-81126217D01*
X188691282Y-81007560D01*
X188691277Y-81007556D01*
X188547680Y-80920750D01*
X188547679Y-80920749D01*
X188547678Y-80920749D01*
X188387471Y-80870827D01*
X188387469Y-80870826D01*
X188387467Y-80870826D01*
X188338721Y-80866396D01*
X188317847Y-80864500D01*
X188317844Y-80864500D01*
X186682145Y-80864500D01*
X186612533Y-80870825D01*
X186612522Y-80870828D01*
X186452324Y-80920747D01*
X186452320Y-80920749D01*
X186308722Y-81007556D01*
X186308717Y-81007560D01*
X186190060Y-81126217D01*
X186190056Y-81126222D01*
X186103250Y-81269819D01*
X186103250Y-81269820D01*
X186103249Y-81269822D01*
X186094043Y-81299365D01*
X186053326Y-81430032D01*
X186047000Y-81499655D01*
X169952496Y-81499655D01*
X169946178Y-81430124D01*
X169946176Y-81430116D01*
X169896291Y-81270029D01*
X169896290Y-81270027D01*
X169809545Y-81126532D01*
X169809542Y-81126528D01*
X169690971Y-81007957D01*
X169690967Y-81007954D01*
X169547473Y-80921210D01*
X169387376Y-80871322D01*
X169317798Y-80865000D01*
X168750000Y-80865000D01*
X168750000Y-81684314D01*
X168745606Y-81679920D01*
X168654394Y-81627259D01*
X168552661Y-81600000D01*
X168447339Y-81600000D01*
X168345606Y-81627259D01*
X168254394Y-81679920D01*
X168250000Y-81684314D01*
X168250000Y-80865000D01*
X167682191Y-80865000D01*
X167612623Y-80871321D01*
X167612616Y-80871323D01*
X167452529Y-80921208D01*
X167452527Y-80921209D01*
X167309032Y-81007954D01*
X167309028Y-81007957D01*
X167190457Y-81126528D01*
X167190454Y-81126532D01*
X167103710Y-81270026D01*
X167053822Y-81430123D01*
X167047500Y-81499701D01*
X155484280Y-81499701D01*
X155492054Y-81475776D01*
X155494552Y-81460000D01*
X154665686Y-81460000D01*
X154670080Y-81455606D01*
X154722741Y-81364394D01*
X154750000Y-81262661D01*
X154750000Y-81157339D01*
X154722741Y-81055606D01*
X154670080Y-80964394D01*
X154665686Y-80960000D01*
X155494552Y-80960000D01*
X155494552Y-80959999D01*
X155492053Y-80944221D01*
X155436844Y-80774306D01*
X155355736Y-80615126D01*
X155250735Y-80470603D01*
X155250731Y-80470598D01*
X155124401Y-80344268D01*
X155124396Y-80344264D01*
X154979873Y-80239263D01*
X154820693Y-80158155D01*
X154650780Y-80102946D01*
X154474331Y-80075000D01*
X154000000Y-80075000D01*
X154000000Y-80810000D01*
X153500000Y-80810000D01*
X153500000Y-80075000D01*
X153025669Y-80075000D01*
X152849219Y-80102946D01*
X152679306Y-80158155D01*
X152520126Y-80239263D01*
X152375603Y-80344264D01*
X152375598Y-80344268D01*
X152249268Y-80470598D01*
X152249264Y-80470603D01*
X152144263Y-80615126D01*
X152063155Y-80774306D01*
X152007946Y-80944221D01*
X152005447Y-80959999D01*
X141488524Y-80959999D01*
X139109159Y-78580634D01*
X151979500Y-78580634D01*
X151979500Y-78759365D01*
X152007460Y-78935898D01*
X152007460Y-78935901D01*
X152062689Y-79105878D01*
X152062691Y-79105881D01*
X152143833Y-79265132D01*
X152248889Y-79409728D01*
X152375272Y-79536111D01*
X152519868Y-79641167D01*
X152679119Y-79722309D01*
X152679121Y-79722310D01*
X152837670Y-79773825D01*
X152849103Y-79777540D01*
X153025634Y-79805500D01*
X153025635Y-79805500D01*
X154474365Y-79805500D01*
X154474366Y-79805500D01*
X154650897Y-79777540D01*
X154650900Y-79777539D01*
X154650901Y-79777539D01*
X154820878Y-79722310D01*
X154820878Y-79722309D01*
X154820881Y-79722309D01*
X154980132Y-79641167D01*
X155124728Y-79536111D01*
X155251111Y-79409728D01*
X155356167Y-79265132D01*
X155437309Y-79105881D01*
X155492540Y-78935897D01*
X155520500Y-78759366D01*
X155520500Y-78580634D01*
X155492540Y-78404103D01*
X155492539Y-78404099D01*
X155492539Y-78404098D01*
X155437310Y-78234121D01*
X155437308Y-78234118D01*
X155372785Y-78107482D01*
X155356167Y-78074868D01*
X155251111Y-77930272D01*
X155124728Y-77803889D01*
X154980132Y-77698833D01*
X154820881Y-77617691D01*
X154820878Y-77617689D01*
X154650899Y-77562460D01*
X154533209Y-77543820D01*
X154474366Y-77534500D01*
X153025634Y-77534500D01*
X152966790Y-77543820D01*
X152849101Y-77562460D01*
X152849098Y-77562460D01*
X152679121Y-77617689D01*
X152679118Y-77617691D01*
X152519867Y-77698833D01*
X152375270Y-77803890D01*
X152248890Y-77930270D01*
X152143833Y-78074867D01*
X152062691Y-78234118D01*
X152062689Y-78234121D01*
X152007460Y-78404098D01*
X152007460Y-78404101D01*
X151979500Y-78580634D01*
X139109159Y-78580634D01*
X136569159Y-76040634D01*
X151979500Y-76040634D01*
X151979500Y-76219365D01*
X152007460Y-76395898D01*
X152007460Y-76395901D01*
X152062689Y-76565878D01*
X152062691Y-76565881D01*
X152143833Y-76725132D01*
X152248889Y-76869728D01*
X152375272Y-76996111D01*
X152519868Y-77101167D01*
X152679119Y-77182309D01*
X152679121Y-77182310D01*
X152837670Y-77233825D01*
X152849103Y-77237540D01*
X153025634Y-77265500D01*
X153025635Y-77265500D01*
X154474365Y-77265500D01*
X154474366Y-77265500D01*
X154650897Y-77237540D01*
X154650900Y-77237539D01*
X154650901Y-77237539D01*
X154820878Y-77182310D01*
X154820878Y-77182309D01*
X154820881Y-77182309D01*
X154980132Y-77101167D01*
X155124728Y-76996111D01*
X155251111Y-76869728D01*
X155356167Y-76725132D01*
X155437309Y-76565881D01*
X155492540Y-76395897D01*
X155520500Y-76219366D01*
X155520500Y-76040634D01*
X155506483Y-75952135D01*
X185999500Y-75952135D01*
X185999500Y-78047870D01*
X185999501Y-78047876D01*
X186005908Y-78107483D01*
X186056202Y-78242328D01*
X186056206Y-78242335D01*
X186142452Y-78357544D01*
X186142455Y-78357547D01*
X186257664Y-78443793D01*
X186257671Y-78443797D01*
X186392517Y-78494091D01*
X186392516Y-78494091D01*
X186399444Y-78494835D01*
X186452127Y-78500500D01*
X188547872Y-78500499D01*
X188607483Y-78494091D01*
X188742331Y-78443796D01*
X188857546Y-78357546D01*
X188943796Y-78242331D01*
X188994091Y-78107483D01*
X189000500Y-78047873D01*
X189000499Y-75952128D01*
X188994091Y-75892517D01*
X188983493Y-75864103D01*
X188943797Y-75757671D01*
X188943793Y-75757664D01*
X188857547Y-75642455D01*
X188857544Y-75642452D01*
X188742335Y-75556206D01*
X188742328Y-75556202D01*
X188607482Y-75505908D01*
X188607483Y-75505908D01*
X188547883Y-75499501D01*
X188547881Y-75499500D01*
X188547873Y-75499500D01*
X188547864Y-75499500D01*
X186452129Y-75499500D01*
X186452123Y-75499501D01*
X186392516Y-75505908D01*
X186257671Y-75556202D01*
X186257664Y-75556206D01*
X186142455Y-75642452D01*
X186142452Y-75642455D01*
X186056206Y-75757664D01*
X186056202Y-75757671D01*
X186005908Y-75892517D01*
X185999501Y-75952116D01*
X185999501Y-75952123D01*
X185999500Y-75952135D01*
X155506483Y-75952135D01*
X155492540Y-75864103D01*
X155492539Y-75864099D01*
X155492539Y-75864098D01*
X155437310Y-75694121D01*
X155437308Y-75694118D01*
X155410985Y-75642454D01*
X155356167Y-75534868D01*
X155251111Y-75390272D01*
X155124728Y-75263889D01*
X154980132Y-75158833D01*
X154820881Y-75077691D01*
X154820878Y-75077689D01*
X154650899Y-75022460D01*
X154533209Y-75003820D01*
X154474366Y-74994500D01*
X153025634Y-74994500D01*
X152966790Y-75003820D01*
X152849101Y-75022460D01*
X152849098Y-75022460D01*
X152679121Y-75077689D01*
X152679118Y-75077691D01*
X152519867Y-75158833D01*
X152375270Y-75263890D01*
X152248890Y-75390270D01*
X152143833Y-75534867D01*
X152062691Y-75694118D01*
X152062689Y-75694121D01*
X152007460Y-75864098D01*
X152007460Y-75864101D01*
X151979500Y-76040634D01*
X136569159Y-76040634D01*
X134029159Y-73500634D01*
X151979500Y-73500634D01*
X151979500Y-73679365D01*
X152007460Y-73855898D01*
X152007460Y-73855901D01*
X152062689Y-74025878D01*
X152062691Y-74025881D01*
X152143833Y-74185132D01*
X152248889Y-74329728D01*
X152375272Y-74456111D01*
X152519868Y-74561167D01*
X152679119Y-74642309D01*
X152679121Y-74642310D01*
X152837670Y-74693825D01*
X152849103Y-74697540D01*
X153025634Y-74725500D01*
X153025635Y-74725500D01*
X154474365Y-74725500D01*
X154474366Y-74725500D01*
X154650897Y-74697540D01*
X154650900Y-74697539D01*
X154650901Y-74697539D01*
X154820878Y-74642310D01*
X154820878Y-74642309D01*
X154820881Y-74642309D01*
X154980132Y-74561167D01*
X155124728Y-74456111D01*
X155251111Y-74329728D01*
X155356167Y-74185132D01*
X155437309Y-74025881D01*
X155492540Y-73855897D01*
X155520500Y-73679366D01*
X155520500Y-73500634D01*
X155492540Y-73324103D01*
X155492539Y-73324099D01*
X155492539Y-73324098D01*
X155437310Y-73154121D01*
X155437308Y-73154118D01*
X155356166Y-72994867D01*
X155356161Y-72994860D01*
X155251111Y-72850272D01*
X155124728Y-72723889D01*
X154980132Y-72618833D01*
X154820881Y-72537691D01*
X154820878Y-72537689D01*
X154650899Y-72482460D01*
X154514382Y-72460838D01*
X154474366Y-72454500D01*
X153025634Y-72454500D01*
X152985618Y-72460838D01*
X152849101Y-72482460D01*
X152849098Y-72482460D01*
X152679121Y-72537689D01*
X152679118Y-72537691D01*
X152519867Y-72618833D01*
X152375270Y-72723890D01*
X152248890Y-72850270D01*
X152143833Y-72994867D01*
X152062691Y-73154118D01*
X152062689Y-73154121D01*
X152007460Y-73324098D01*
X152007460Y-73324101D01*
X151979500Y-73500634D01*
X134029159Y-73500634D01*
X132449577Y-71921052D01*
X132444868Y-71917188D01*
X132446625Y-71915046D01*
X132409533Y-71870272D01*
X132401124Y-71800911D01*
X132423124Y-71748386D01*
X132485166Y-71662994D01*
X132496167Y-71647852D01*
X132577309Y-71488601D01*
X132632540Y-71318617D01*
X132660500Y-71142086D01*
X132660500Y-70963354D01*
X132660069Y-70960634D01*
X151979500Y-70960634D01*
X151979500Y-71139366D01*
X151993480Y-71227631D01*
X152007460Y-71315898D01*
X152007460Y-71315901D01*
X152062689Y-71485878D01*
X152062691Y-71485881D01*
X152143833Y-71645132D01*
X152248889Y-71789728D01*
X152375272Y-71916111D01*
X152519868Y-72021167D01*
X152679119Y-72102309D01*
X152679121Y-72102310D01*
X152837670Y-72153825D01*
X152849103Y-72157540D01*
X153025634Y-72185500D01*
X153025635Y-72185500D01*
X154474365Y-72185500D01*
X154474366Y-72185500D01*
X154650897Y-72157540D01*
X154650900Y-72157539D01*
X154650901Y-72157539D01*
X154820878Y-72102310D01*
X154820878Y-72102309D01*
X154820881Y-72102309D01*
X154980132Y-72021167D01*
X155124728Y-71916111D01*
X155251111Y-71789728D01*
X155356167Y-71645132D01*
X155437309Y-71485881D01*
X155491656Y-71318618D01*
X155492539Y-71315901D01*
X155492539Y-71315900D01*
X155492540Y-71315897D01*
X155520500Y-71139366D01*
X155520500Y-70960634D01*
X155492540Y-70784103D01*
X155492539Y-70784099D01*
X155492539Y-70784098D01*
X155437310Y-70614121D01*
X155437308Y-70614118D01*
X155356167Y-70454868D01*
X155354388Y-70452420D01*
X155341442Y-70434600D01*
X155341440Y-70434598D01*
X155291010Y-70365188D01*
X155291009Y-70365186D01*
X185099500Y-70365186D01*
X185099500Y-70634813D01*
X185129686Y-70902719D01*
X185129688Y-70902731D01*
X185189684Y-71165594D01*
X185189687Y-71165602D01*
X185278734Y-71420082D01*
X185395714Y-71662994D01*
X185395716Y-71662997D01*
X185539162Y-71891289D01*
X185707266Y-72102085D01*
X185897915Y-72292734D01*
X186108711Y-72460838D01*
X186337003Y-72604284D01*
X186579921Y-72721267D01*
X186771049Y-72788145D01*
X186834397Y-72810312D01*
X186834405Y-72810315D01*
X186834408Y-72810315D01*
X186834409Y-72810316D01*
X187097268Y-72870312D01*
X187365187Y-72900499D01*
X187365188Y-72900500D01*
X187365191Y-72900500D01*
X187634812Y-72900500D01*
X187634812Y-72900499D01*
X187902732Y-72870312D01*
X188165591Y-72810316D01*
X188420079Y-72721267D01*
X188662997Y-72604284D01*
X188891289Y-72460838D01*
X189102085Y-72292734D01*
X189292734Y-72102085D01*
X189460838Y-71891289D01*
X189604284Y-71662997D01*
X189721267Y-71420079D01*
X189810316Y-71165591D01*
X189870312Y-70902732D01*
X189900500Y-70634809D01*
X189900500Y-70365191D01*
X189870312Y-70097268D01*
X189810316Y-69834409D01*
X189721267Y-69579921D01*
X189604284Y-69337003D01*
X189460838Y-69108711D01*
X189292734Y-68897915D01*
X189102085Y-68707266D01*
X188891289Y-68539162D01*
X188733613Y-68440087D01*
X188662994Y-68395714D01*
X188420082Y-68278734D01*
X188165602Y-68189687D01*
X188165594Y-68189684D01*
X187998814Y-68151618D01*
X187969339Y-68144890D01*
X187908362Y-68110782D01*
X187875504Y-68049121D01*
X187881199Y-67979484D01*
X187923639Y-67923980D01*
X187989349Y-67900232D01*
X187996933Y-67900000D01*
X188704706Y-67900000D01*
X188704719Y-67899999D01*
X188837906Y-67889517D01*
X188837912Y-67889516D01*
X189057829Y-67834101D01*
X189057832Y-67834100D01*
X189264330Y-67740304D01*
X189264336Y-67740301D01*
X189450758Y-67611148D01*
X189450770Y-67611138D01*
X189611138Y-67450770D01*
X189611148Y-67450758D01*
X189740301Y-67264336D01*
X189740304Y-67264330D01*
X189834100Y-67057832D01*
X189834101Y-67057829D01*
X189889516Y-66837912D01*
X189889517Y-66837906D01*
X189899999Y-66704719D01*
X189900000Y-66704706D01*
X189900000Y-65750000D01*
X188827231Y-65750000D01*
X188850000Y-65606247D01*
X188850000Y-65393753D01*
X188827231Y-65250000D01*
X189900000Y-65250000D01*
X189900000Y-64295293D01*
X189899999Y-64295280D01*
X189889517Y-64162093D01*
X189889516Y-64162087D01*
X189834101Y-63942170D01*
X189834100Y-63942167D01*
X189740304Y-63735669D01*
X189740301Y-63735663D01*
X189611148Y-63549241D01*
X189611138Y-63549229D01*
X189450770Y-63388861D01*
X189450758Y-63388851D01*
X189264336Y-63259698D01*
X189264330Y-63259695D01*
X189057832Y-63165899D01*
X189057829Y-63165898D01*
X188837912Y-63110483D01*
X188837906Y-63110482D01*
X188704719Y-63100000D01*
X187750000Y-63100000D01*
X187750000Y-64172768D01*
X187606247Y-64150000D01*
X187393753Y-64150000D01*
X187250000Y-64172768D01*
X187250000Y-63100000D01*
X186295280Y-63100000D01*
X186162093Y-63110482D01*
X186162087Y-63110483D01*
X185942170Y-63165898D01*
X185942167Y-63165899D01*
X185735669Y-63259695D01*
X185735663Y-63259698D01*
X185549241Y-63388851D01*
X185549229Y-63388861D01*
X185388861Y-63549229D01*
X185388851Y-63549241D01*
X185259698Y-63735663D01*
X185259695Y-63735669D01*
X185165899Y-63942167D01*
X185165898Y-63942170D01*
X185110483Y-64162087D01*
X185110482Y-64162093D01*
X185100000Y-64295280D01*
X185100000Y-65250000D01*
X186172769Y-65250000D01*
X186150000Y-65393753D01*
X186150000Y-65606247D01*
X186172769Y-65750000D01*
X185100000Y-65750000D01*
X185100000Y-66704719D01*
X185110482Y-66837906D01*
X185110483Y-66837912D01*
X185165898Y-67057829D01*
X185165899Y-67057832D01*
X185259695Y-67264330D01*
X185259698Y-67264336D01*
X185388851Y-67450758D01*
X185388861Y-67450770D01*
X185549229Y-67611138D01*
X185549241Y-67611148D01*
X185735663Y-67740301D01*
X185735669Y-67740304D01*
X185942167Y-67834100D01*
X185942170Y-67834101D01*
X186162087Y-67889516D01*
X186162093Y-67889517D01*
X186295280Y-67899999D01*
X186295294Y-67900000D01*
X187003067Y-67900000D01*
X187070106Y-67919685D01*
X187115861Y-67972489D01*
X187125805Y-68041647D01*
X187096780Y-68105203D01*
X187038002Y-68142977D01*
X187030663Y-68144890D01*
X187007691Y-68150133D01*
X186834405Y-68189684D01*
X186834397Y-68189687D01*
X186579917Y-68278734D01*
X186337005Y-68395714D01*
X186108712Y-68539161D01*
X185897915Y-68707265D01*
X185707265Y-68897915D01*
X185539161Y-69108712D01*
X185395714Y-69337005D01*
X185278734Y-69579917D01*
X185189687Y-69834397D01*
X185189684Y-69834405D01*
X185129688Y-70097268D01*
X185129686Y-70097280D01*
X185099500Y-70365186D01*
X155291009Y-70365186D01*
X155251111Y-70310272D01*
X155124728Y-70183889D01*
X154980132Y-70078833D01*
X154820881Y-69997691D01*
X154820878Y-69997689D01*
X154650899Y-69942460D01*
X154491539Y-69917220D01*
X154474366Y-69914500D01*
X153025634Y-69914500D01*
X153008461Y-69917220D01*
X152849101Y-69942460D01*
X152849098Y-69942460D01*
X152679121Y-69997689D01*
X152679118Y-69997691D01*
X152519867Y-70078833D01*
X152375270Y-70183890D01*
X152248890Y-70310270D01*
X152143833Y-70454867D01*
X152062691Y-70614118D01*
X152062689Y-70614121D01*
X152007460Y-70784098D01*
X152007460Y-70784101D01*
X152007029Y-70786823D01*
X151979500Y-70960634D01*
X132660069Y-70960634D01*
X132632540Y-70786823D01*
X132632539Y-70786819D01*
X132632539Y-70786818D01*
X132577310Y-70616841D01*
X132577308Y-70616838D01*
X132575923Y-70614118D01*
X132496167Y-70457588D01*
X132391111Y-70312992D01*
X132264728Y-70186609D01*
X132120132Y-70081553D01*
X131960881Y-70000411D01*
X131960878Y-70000409D01*
X131790899Y-69945180D01*
X131673209Y-69926540D01*
X131614366Y-69917220D01*
X130165634Y-69917220D01*
X130106790Y-69926540D01*
X129989101Y-69945180D01*
X129989098Y-69945180D01*
X129819121Y-70000409D01*
X129819118Y-70000411D01*
X129659867Y-70081553D01*
X129515270Y-70186610D01*
X129388890Y-70312990D01*
X129283831Y-70457590D01*
X129271908Y-70480991D01*
X129223934Y-70531786D01*
X129156113Y-70548581D01*
X129089978Y-70526043D01*
X129073743Y-70512376D01*
X127067530Y-68506163D01*
X126984721Y-68423354D01*
X129119500Y-68423354D01*
X129119500Y-68602085D01*
X129147460Y-68778618D01*
X129147460Y-68778621D01*
X129202689Y-68948598D01*
X129202691Y-68948601D01*
X129283833Y-69107852D01*
X129388889Y-69252448D01*
X129515272Y-69378831D01*
X129659868Y-69483887D01*
X129819119Y-69565029D01*
X129819121Y-69565030D01*
X129977670Y-69616545D01*
X129989103Y-69620260D01*
X130165634Y-69648220D01*
X130165635Y-69648220D01*
X131614365Y-69648220D01*
X131614366Y-69648220D01*
X131790897Y-69620260D01*
X131790900Y-69620259D01*
X131790901Y-69620259D01*
X131960878Y-69565030D01*
X131960878Y-69565029D01*
X131960881Y-69565029D01*
X132120132Y-69483887D01*
X132264728Y-69378831D01*
X132391111Y-69252448D01*
X132496167Y-69107852D01*
X132577309Y-68948601D01*
X132632540Y-68778617D01*
X132660500Y-68602086D01*
X132660500Y-68423354D01*
X132632540Y-68246823D01*
X132632539Y-68246819D01*
X132632539Y-68246818D01*
X132577310Y-68076841D01*
X132577308Y-68076838D01*
X132575925Y-68074122D01*
X132496167Y-67917588D01*
X132391111Y-67772992D01*
X132264728Y-67646609D01*
X132120132Y-67541553D01*
X131960881Y-67460411D01*
X131960878Y-67460409D01*
X131790899Y-67405180D01*
X131673209Y-67386540D01*
X131614366Y-67377220D01*
X130165634Y-67377220D01*
X130106790Y-67386540D01*
X129989101Y-67405180D01*
X129989098Y-67405180D01*
X129819121Y-67460409D01*
X129819118Y-67460411D01*
X129659867Y-67541553D01*
X129515270Y-67646610D01*
X129388890Y-67772990D01*
X129283833Y-67917587D01*
X129202691Y-68076838D01*
X129202689Y-68076841D01*
X129147460Y-68246818D01*
X129147460Y-68246821D01*
X129119500Y-68423354D01*
X126984721Y-68423354D01*
X121950228Y-63388861D01*
X115026819Y-56465451D01*
X114993334Y-56404128D01*
X114990500Y-56377770D01*
X114990500Y-54892695D01*
X117009500Y-54892695D01*
X117009500Y-57107304D01*
X117046201Y-57339027D01*
X117118697Y-57562150D01*
X117225212Y-57771195D01*
X117363104Y-57960989D01*
X117363108Y-57960994D01*
X117529005Y-58126891D01*
X117529010Y-58126895D01*
X117577326Y-58161998D01*
X117718808Y-58264790D01*
X117926932Y-58370835D01*
X117927849Y-58371302D01*
X118039410Y-58407550D01*
X118150974Y-58443799D01*
X118382695Y-58480500D01*
X118382696Y-58480500D01*
X118617304Y-58480500D01*
X118617305Y-58480500D01*
X118849026Y-58443799D01*
X119072153Y-58371301D01*
X119281192Y-58264790D01*
X119470996Y-58126890D01*
X119636890Y-57960996D01*
X119774790Y-57771192D01*
X119881301Y-57562153D01*
X119953799Y-57339026D01*
X119990500Y-57107305D01*
X119990500Y-54892695D01*
X119953799Y-54660974D01*
X119881301Y-54437847D01*
X119774790Y-54228808D01*
X119689426Y-54111314D01*
X119638843Y-54041691D01*
X119638841Y-54041689D01*
X119636891Y-54039005D01*
X119570021Y-53972135D01*
X122009500Y-53972135D01*
X122009500Y-58027870D01*
X122009501Y-58027876D01*
X122015908Y-58087483D01*
X122066202Y-58222328D01*
X122066206Y-58222335D01*
X122152452Y-58337544D01*
X122152455Y-58337547D01*
X122267664Y-58423793D01*
X122267671Y-58423797D01*
X122402517Y-58474091D01*
X122402516Y-58474091D01*
X122409444Y-58474835D01*
X122462127Y-58480500D01*
X124537872Y-58480499D01*
X124597483Y-58474091D01*
X124732331Y-58423796D01*
X124847546Y-58337546D01*
X124933796Y-58222331D01*
X124984091Y-58087483D01*
X124990500Y-58027873D01*
X124990500Y-56874500D01*
X125010185Y-56807461D01*
X125062989Y-56761706D01*
X125114500Y-56750500D01*
X140877770Y-56750500D01*
X140944809Y-56770185D01*
X140965451Y-56786819D01*
X152063139Y-67884507D01*
X152096624Y-67945830D01*
X152091640Y-68015522D01*
X152085944Y-68028481D01*
X152062689Y-68074122D01*
X152007460Y-68244098D01*
X152007460Y-68244101D01*
X151979500Y-68420634D01*
X151979500Y-68599365D01*
X152007460Y-68775898D01*
X152007460Y-68775901D01*
X152062689Y-68945878D01*
X152062691Y-68945881D01*
X152143833Y-69105132D01*
X152248889Y-69249728D01*
X152375272Y-69376111D01*
X152519868Y-69481167D01*
X152679119Y-69562309D01*
X152679121Y-69562310D01*
X152733323Y-69579921D01*
X152849103Y-69617540D01*
X153025634Y-69645500D01*
X153025635Y-69645500D01*
X154474365Y-69645500D01*
X154474366Y-69645500D01*
X154650897Y-69617540D01*
X154650900Y-69617539D01*
X154650901Y-69617539D01*
X154820878Y-69562310D01*
X154820878Y-69562309D01*
X154820881Y-69562309D01*
X154980132Y-69481167D01*
X155124728Y-69376111D01*
X155251111Y-69249728D01*
X155356167Y-69105132D01*
X155437309Y-68945881D01*
X155491656Y-68778618D01*
X155492539Y-68775901D01*
X155492539Y-68775900D01*
X155492540Y-68775897D01*
X155520500Y-68599366D01*
X155520500Y-68420634D01*
X155492540Y-68244103D01*
X155492539Y-68244099D01*
X155492539Y-68244098D01*
X155437310Y-68074121D01*
X155437308Y-68074118D01*
X155424572Y-68049121D01*
X155356167Y-67914868D01*
X155251111Y-67770272D01*
X155124728Y-67643889D01*
X154980132Y-67538833D01*
X154820881Y-67457691D01*
X154820878Y-67457689D01*
X154650899Y-67402460D01*
X154491539Y-67377220D01*
X154474366Y-67374500D01*
X154474365Y-67374500D01*
X153727229Y-67374500D01*
X153660190Y-67354815D01*
X153639548Y-67338181D01*
X150681899Y-64380532D01*
X145087688Y-58786319D01*
X143753524Y-57452155D01*
X186000000Y-57452155D01*
X186000000Y-58250000D01*
X187066988Y-58250000D01*
X187034075Y-58307007D01*
X187000000Y-58434174D01*
X187000000Y-58565826D01*
X187034075Y-58692993D01*
X187066988Y-58750000D01*
X186000000Y-58750000D01*
X186000000Y-59547844D01*
X186006401Y-59607372D01*
X186006403Y-59607379D01*
X186056645Y-59742086D01*
X186056649Y-59742093D01*
X186142809Y-59857187D01*
X186142812Y-59857190D01*
X186257906Y-59943350D01*
X186257913Y-59943354D01*
X186392620Y-59993596D01*
X186392627Y-59993598D01*
X186452155Y-59999999D01*
X186452172Y-60000000D01*
X187250000Y-60000000D01*
X187250000Y-58933012D01*
X187307007Y-58965925D01*
X187434174Y-59000000D01*
X187565826Y-59000000D01*
X187692993Y-58965925D01*
X187750000Y-58933012D01*
X187750000Y-60000000D01*
X188547828Y-60000000D01*
X188547844Y-59999999D01*
X188607372Y-59993598D01*
X188607379Y-59993596D01*
X188742086Y-59943354D01*
X188742093Y-59943350D01*
X188857187Y-59857190D01*
X188857190Y-59857187D01*
X188943350Y-59742093D01*
X188943354Y-59742086D01*
X188993596Y-59607379D01*
X188993598Y-59607372D01*
X188999999Y-59547844D01*
X189000000Y-59547827D01*
X189000000Y-58750000D01*
X187933012Y-58750000D01*
X187965925Y-58692993D01*
X188000000Y-58565826D01*
X188000000Y-58434174D01*
X187965925Y-58307007D01*
X187933012Y-58250000D01*
X189000000Y-58250000D01*
X189000000Y-57452172D01*
X188999999Y-57452155D01*
X188993598Y-57392627D01*
X188993596Y-57392620D01*
X188943354Y-57257913D01*
X188943350Y-57257906D01*
X188857190Y-57142812D01*
X188857187Y-57142809D01*
X188742093Y-57056649D01*
X188742086Y-57056645D01*
X188607379Y-57006403D01*
X188607372Y-57006401D01*
X188547844Y-57000000D01*
X187750000Y-57000000D01*
X187750000Y-58066988D01*
X187692993Y-58034075D01*
X187565826Y-58000000D01*
X187434174Y-58000000D01*
X187307007Y-58034075D01*
X187250000Y-58066988D01*
X187250000Y-57000000D01*
X186452155Y-57000000D01*
X186392627Y-57006401D01*
X186392620Y-57006403D01*
X186257913Y-57056645D01*
X186257906Y-57056649D01*
X186142812Y-57142809D01*
X186142809Y-57142812D01*
X186056649Y-57257906D01*
X186056645Y-57257913D01*
X186006403Y-57392620D01*
X186006401Y-57392627D01*
X186000000Y-57452155D01*
X143753524Y-57452155D01*
X141718421Y-55417052D01*
X141718414Y-55417046D01*
X141644729Y-55367812D01*
X141644729Y-55367813D01*
X141595491Y-55334913D01*
X141458917Y-55278343D01*
X141458907Y-55278340D01*
X141313920Y-55249500D01*
X141313918Y-55249500D01*
X125114499Y-55249500D01*
X125047460Y-55229815D01*
X125001705Y-55177011D01*
X124990499Y-55125500D01*
X124990499Y-53972129D01*
X124990498Y-53972123D01*
X124990497Y-53972116D01*
X124984091Y-53912517D01*
X124969536Y-53873494D01*
X124933797Y-53777671D01*
X124933793Y-53777664D01*
X124847547Y-53662455D01*
X124847544Y-53662452D01*
X124732335Y-53576206D01*
X124732328Y-53576202D01*
X124597482Y-53525908D01*
X124597483Y-53525908D01*
X124537883Y-53519501D01*
X124537881Y-53519500D01*
X124537873Y-53519500D01*
X124537864Y-53519500D01*
X122462129Y-53519500D01*
X122462123Y-53519501D01*
X122402516Y-53525908D01*
X122267671Y-53576202D01*
X122267664Y-53576206D01*
X122152455Y-53662452D01*
X122152452Y-53662455D01*
X122066206Y-53777664D01*
X122066202Y-53777671D01*
X122015908Y-53912517D01*
X122009501Y-53972116D01*
X122009501Y-53972123D01*
X122009500Y-53972135D01*
X119570021Y-53972135D01*
X119470994Y-53873108D01*
X119470989Y-53873104D01*
X119281195Y-53735212D01*
X119281194Y-53735211D01*
X119281192Y-53735210D01*
X119122178Y-53654188D01*
X119072150Y-53628697D01*
X118849027Y-53556201D01*
X118733165Y-53537850D01*
X118617305Y-53519500D01*
X118382695Y-53519500D01*
X118305454Y-53531733D01*
X118150972Y-53556201D01*
X117927849Y-53628697D01*
X117718804Y-53735212D01*
X117529010Y-53873104D01*
X117529005Y-53873108D01*
X117363108Y-54039005D01*
X117363104Y-54039010D01*
X117225212Y-54228804D01*
X117118697Y-54437849D01*
X117046201Y-54660972D01*
X117009500Y-54892695D01*
X114990500Y-54892695D01*
X114953817Y-54661090D01*
X114953799Y-54660974D01*
X114881301Y-54437847D01*
X114774790Y-54228808D01*
X114689426Y-54111314D01*
X114636895Y-54039010D01*
X114636891Y-54039005D01*
X114470994Y-53873108D01*
X114470989Y-53873104D01*
X114281195Y-53735212D01*
X114281194Y-53735211D01*
X114281192Y-53735210D01*
X114122178Y-53654188D01*
X114072150Y-53628697D01*
X113849027Y-53556201D01*
X113733165Y-53537850D01*
X113617305Y-53519500D01*
X113382695Y-53519500D01*
X113305454Y-53531733D01*
X113150972Y-53556201D01*
X112927849Y-53628697D01*
X112718804Y-53735212D01*
X112529010Y-53873104D01*
X112529005Y-53873108D01*
X112363108Y-54039005D01*
X112363104Y-54039010D01*
X112225212Y-54228804D01*
X112118697Y-54437849D01*
X112046201Y-54660972D01*
X112009500Y-54892695D01*
X109989994Y-54892695D01*
X109953310Y-54661090D01*
X109880835Y-54438034D01*
X109774361Y-54229069D01*
X109636505Y-54039327D01*
X109470672Y-53873494D01*
X109280930Y-53735638D01*
X109071963Y-53629164D01*
X108848905Y-53556688D01*
X108750000Y-53541022D01*
X108750000Y-55389175D01*
X108692515Y-55365364D01*
X108565004Y-55340000D01*
X108434996Y-55340000D01*
X108307485Y-55365364D01*
X108250000Y-55389175D01*
X108250000Y-53541022D01*
X108151094Y-53556688D01*
X108151093Y-53556688D01*
X107928036Y-53629164D01*
X107719069Y-53735638D01*
X107529327Y-53873494D01*
X107363494Y-54039327D01*
X107225638Y-54229069D01*
X107119164Y-54438034D01*
X107046689Y-54661090D01*
X107010000Y-54892734D01*
X95500500Y-54892734D01*
X95500500Y-53467474D01*
X95520185Y-53400435D01*
X95572989Y-53354680D01*
X95642147Y-53344736D01*
X95705703Y-53373761D01*
X95712181Y-53379793D01*
X95780841Y-53448453D01*
X95780846Y-53448457D01*
X95780847Y-53448458D01*
X96031524Y-53654183D01*
X96301158Y-53834347D01*
X96301167Y-53834352D01*
X96301169Y-53834353D01*
X96587145Y-53987211D01*
X96587147Y-53987211D01*
X96587153Y-53987215D01*
X96886754Y-54111314D01*
X97197077Y-54205449D01*
X97197083Y-54205450D01*
X97197086Y-54205451D01*
X97197097Y-54205454D01*
X97396528Y-54245122D01*
X97515132Y-54268714D01*
X97837857Y-54300500D01*
X97837860Y-54300500D01*
X98162140Y-54300500D01*
X98162143Y-54300500D01*
X98484868Y-54268714D01*
X98642295Y-54237399D01*
X98802902Y-54205454D01*
X98802913Y-54205451D01*
X98802913Y-54205450D01*
X98802923Y-54205449D01*
X99113246Y-54111314D01*
X99412847Y-53987215D01*
X99698842Y-53834347D01*
X99968476Y-53654183D01*
X100219153Y-53448458D01*
X100448458Y-53219153D01*
X100654183Y-52968476D01*
X100834347Y-52698842D01*
X100987215Y-52412847D01*
X101111314Y-52113246D01*
X101205449Y-51802923D01*
X101205451Y-51802913D01*
X101205454Y-51802902D01*
X101237399Y-51642295D01*
X101268714Y-51484868D01*
X101300500Y-51162143D01*
X101300500Y-50837857D01*
X101268714Y-50515132D01*
X101245122Y-50396528D01*
X101205454Y-50197097D01*
X101205451Y-50197086D01*
X101205450Y-50197083D01*
X101205449Y-50197077D01*
X101111314Y-49886754D01*
X100987215Y-49587153D01*
X100834347Y-49301158D01*
X100654183Y-49031524D01*
X100448458Y-48780847D01*
X100448457Y-48780846D01*
X100448453Y-48780841D01*
X100379793Y-48712181D01*
X100346308Y-48650858D01*
X100351292Y-48581166D01*
X100393164Y-48525233D01*
X100458628Y-48500816D01*
X100467474Y-48500500D01*
X189532526Y-48500500D01*
X189599565Y-48520185D01*
G37*
%TD.AperFunction*%
%TD*%
M02*
