M48
; DRILL file {KiCad 9.0.5} date 2026-03-03T23:56:26-0500
; FORMAT={-:-/ absolute / inch / decimal}
; #@! TF.CreationDate,2026-03-03T23:56:26-05:00
; #@! TF.GenerationSoftware,Kicad,Pcbnew,9.0.5
; #@! TF.FileFunction,Plated,1,2,PTH
FMAT,2
INCH
; #@! TA.AperFunction,Plated,PTH,ViaDrill
T1C0.0118
; #@! TA.AperFunction,Plated,PTH,ComponentDrill
T2C0.0315
; #@! TA.AperFunction,Plated,PTH,ComponentDrill
T3C0.0394
; #@! TA.AperFunction,Plated,PTH,ComponentDrill
T4C0.0402
; #@! TA.AperFunction,Plated,PTH,ComponentDrill
T5C0.0520
; #@! TA.AperFunction,Plated,PTH,ComponentDrill
T6C0.1063
; #@! TA.AperFunction,Plated,PTH,ComponentDrill
T7C0.1260
%
G90
G05
T1
X3.7795Y-5.4331
X3.7992Y-4.2126
X3.7992Y-4.6457
X3.7992Y-4.8622
X3.8189Y-5.0
X3.8189Y-5.1378
X3.8189Y-5.315
X3.8189Y-5.5315
X3.8386Y-4.4094
X3.8386Y-4.5276
X3.8386Y-4.7441
X3.8386Y-4.8622
X3.8386Y-5.4134
X3.8583Y-5.1969
X3.8583Y-5.5118
X3.878Y-2.4016
X3.878Y-2.6969
X3.878Y-4.3307
X3.878Y-4.9803
X3.878Y-5.0394
X3.878Y-5.2953
X3.8976Y-4.5866
X3.8976Y-4.8031
X3.8976Y-5.4528
X3.9173Y-4.1732
X3.9173Y-5.1181
X3.937Y-2.9331
X3.937Y-4.3307
X3.937Y-4.4685
X3.9567Y-4.626
X3.9764Y-3.2283
X3.9764Y-3.6024
X3.9961Y-2.3228
X3.9961Y-3.8976
X3.9961Y-4.3701
X3.9961Y-4.5276
X3.9961Y-5.1575
X4.0157Y-2.6378
X4.0157Y-5.7677
X4.0354Y-4.8425
X4.0551Y-3.4055
X4.0551Y-5.3543
X4.0551Y-5.4331
X4.0748Y-4.7244
X4.0748Y-4.8819
X4.0945Y-5.1575
X4.1142Y-2.9724
X4.1142Y-4.8425
X4.1142Y-5.4528
X4.1339Y-4.7441
X4.1732Y-3.6811
X4.1732Y-3.8976
X4.1929Y-4.6654
X4.1929Y-4.9606
X4.1929Y-5.4921
X4.2126Y-2.6772
X4.2126Y-4.7638
X4.2323Y-4.3307
X4.2323Y-4.3701
X4.2323Y-5.4528
X4.252Y-3.0709
X4.252Y-3.5433
X4.252Y-4.4488
X4.252Y-4.5472
X4.2717Y-3.3268
X4.2717Y-4.9016
X4.2913Y-4.8228
X4.2913Y-5.3937
X4.311Y-2.9331
X4.311Y-4.6457
X4.3307Y-2.6181
X4.3504Y-3.7598
X4.3504Y-4.1339
X4.3701Y-2.815
X4.3701Y-4.8425
X4.3701Y-4.9803
X4.3701Y-5.0984
X4.3898Y-3.248
X4.3898Y-4.7638
X4.3898Y-4.9409
X4.3898Y-5.0
X4.3898Y-5.0394
X4.3898Y-5.1378
X4.4094Y-3.4252
X4.4094Y-4.0748
X4.4094Y-4.6654
X4.4094Y-5.1772
X4.4094Y-5.4528
X4.4291Y-2.7559
X4.4488Y-3.6417
X4.4488Y-5.4134
X4.4685Y-4.3701
X4.4685Y-5.374
X4.4882Y-4.4291
X4.4882Y-4.5079
X4.4882Y-4.9409
X4.5079Y-5.3346
X4.5276Y-2.9331
X4.5276Y-3.937
X4.5276Y-4.9016
X4.5472Y-3.0709
X4.5472Y-4.5669
X4.5669Y-2.6378
X4.5669Y-4.8228
X4.5669Y-5.4724
X4.5866Y-4.1339
X4.5866Y-4.5866
X4.5866Y-4.8622
X4.5866Y-4.9016
X4.6063Y-3.6024
X4.626Y-3.0315
X4.626Y-3.3268
X4.626Y-3.8386
X4.626Y-4.8425
X4.6457Y-2.7559
X4.6457Y-4.5669
X4.6654Y-3.7992
X4.6654Y-4.0354
X4.6654Y-4.7244
X4.6654Y-5.2165
X4.6654Y-5.4528
X4.685Y-5.5512
X4.7244Y-4.3898
X4.7244Y-4.7835
X4.7441Y-3.9567
X4.7441Y-4.7047
X4.7441Y-5.374
X4.7441Y-5.7677
X4.7638Y-2.9134
X4.7638Y-3.1496
X4.7638Y-4.6457
X4.8031Y-2.7559
X4.8031Y-3.6024
X4.8031Y-4.1535
X4.8031Y-4.9606
X4.8031Y-5.4331
X4.8031Y-5.689
X4.8228Y-3.2874
X4.8228Y-3.878
X4.8425Y-2.874
X4.8425Y-5.4921
X4.8622Y-4.5669
X4.8622Y-4.7441
X4.8622Y-5.7087
X4.8819Y-4.0945
X4.9016Y-5.4331
X4.9213Y-3.0118
X4.9213Y-3.878
X4.9213Y-4.626
X4.9213Y-4.9016
X4.9213Y-4.9606
X4.9409Y-3.1299
X4.9409Y-3.3071
X4.9409Y-4.3504
X4.9409Y-5.4921
X4.9409Y-5.689
X4.9606Y-4.2323
X4.9606Y-4.9016
X4.9606Y-5.0394
X4.9606Y-5.2756
X4.9803Y-3.6024
X4.9803Y-4.4685
X4.9803Y-4.5276
X4.9803Y-4.9803
X5.0Y-4.0551
X5.0Y-4.7244
X5.0Y-5.2756
X5.0197Y-3.878
X5.0197Y-4.4685
X5.0197Y-4.9016
X5.0197Y-5.4134
X5.0394Y-4.2323
X5.0394Y-4.3504
X5.0591Y-4.5669
X5.0591Y-4.9409
X5.0787Y-2.4606
X5.0984Y-2.0276
X5.0984Y-2.3031
X5.0984Y-5.689
X5.1181Y-4.6654
X5.1181Y-5.0197
X5.1181Y-5.0591
X5.1181Y-5.1181
X5.1378Y-4.626
X5.1378Y-4.9606
X5.1378Y-5.1575
X5.1575Y-2.0866
X5.1575Y-4.8819
X5.1575Y-5.4134
X5.1772Y-2.4606
X5.1772Y-5.689
X5.1969Y-2.3819
X5.1969Y-4.6063
X5.2362Y-2.3228
X5.2362Y-2.4803
X5.2362Y-5.2165
X5.2559Y-2.0276
X5.2559Y-4.6457
X5.2559Y-4.9409
X5.2559Y-5.2756
X5.2756Y-4.2717
X5.2756Y-4.3701
X5.2756Y-4.4488
X5.2756Y-4.5866
X5.2756Y-5.2756
X5.2953Y-2.0669
X5.2953Y-5.4528
X5.2953Y-5.7087
X5.3543Y-2.2638
X5.3543Y-2.4213
X5.3543Y-4.252
X5.3543Y-5.689
X5.374Y-2.7756
X5.3937Y-4.3504
X5.3937Y-4.4685
X5.4134Y-2.0276
X5.4134Y-3.9567
X5.4134Y-5.7677
X5.4331Y-2.3228
X5.4331Y-2.4409
X5.4331Y-3.622
X5.4331Y-3.8583
X5.4528Y-3.4843
X5.4528Y-3.7402
X5.4528Y-4.0157
X5.4528Y-4.8228
X5.4528Y-4.9803
X5.4528Y-5.0197
X5.4528Y-5.1575
X5.4528Y-5.2165
X5.4724Y-2.1063
X5.4724Y-3.3071
X5.4724Y-3.3858
X5.4724Y-5.3543
X5.4724Y-5.4528
X5.4921Y-3.622
X5.4921Y-4.3504
X5.4921Y-5.1181
X5.4921Y-5.6299
X5.4921Y-5.689
X5.5118Y-2.3622
X5.5118Y-4.2126
X5.5118Y-4.9409
X5.5118Y-4.9803
X5.5118Y-5.3543
X5.5315Y-2.0276
X5.5315Y-2.4803
X5.5315Y-2.8937
X5.5315Y-2.9921
X5.5315Y-5.4331
X5.5512Y-3.4449
X5.5512Y-3.622
X5.5512Y-4.0157
X5.5512Y-4.9213
X5.5709Y-3.8583
X5.5709Y-3.9173
X5.5709Y-5.0197
X5.5906Y-3.0709
X5.5906Y-3.4055
X5.5906Y-3.5433
X5.5906Y-4.2717
X5.5906Y-4.7244
X5.5906Y-5.1575
X5.6102Y-2.4213
X5.6102Y-3.7205
X5.6102Y-4.9803
X5.6102Y-5.4528
X5.6102Y-5.4921
X5.6299Y-2.1063
X5.6299Y-3.4449
X5.6299Y-5.0
X5.6299Y-5.1575
X5.6496Y-2.0276
X5.6496Y-2.5394
X5.6693Y-2.9331
X5.6693Y-3.1299
X5.6693Y-3.5827
X5.6693Y-4.685
X5.6693Y-5.4921
X5.689Y-2.7953
X5.689Y-3.4843
X5.689Y-3.8386
X5.689Y-4.0551
X5.689Y-4.6063
X5.689Y-5.0394
X5.689Y-5.2559
X5.7087Y-4.9803
X5.7087Y-5.0787
X5.7087Y-5.4331
X5.7283Y-3.6614
X5.7283Y-5.2756
X5.7283Y-5.374
X5.748Y-3.2087
X5.748Y-4.5472
X5.748Y-5.4331
X5.7677Y-2.2047
X5.7677Y-3.5433
X5.7677Y-3.7598
X5.7677Y-4.0748
X5.7874Y-2.1063
X5.7874Y-2.9724
X5.7874Y-5.3937
X5.8071Y-2.7756
X5.8071Y-4.9409
X5.8268Y-2.0079
X5.8268Y-2.8937
X5.8268Y-3.9173
X5.8465Y-3.0709
X5.8465Y-3.7992
X5.8465Y-5.0197
X5.8465Y-5.0787
X5.8465Y-5.1181
X5.8661Y-2.2835
X5.8661Y-3.6614
X5.8661Y-4.4488
X5.8661Y-4.5472
X5.8661Y-4.9606
X5.8661Y-5.1772
X5.8858Y-2.8346
X5.8858Y-2.9724
X5.8858Y-4.6457
X5.9252Y-2.3425
X5.9252Y-4.2913
X5.9252Y-4.8031
X5.9252Y-4.8425
X5.9449Y-2.126
X5.9843Y-5.2165
X6.0039Y-2.0079
X6.0236Y-2.4016
X6.0236Y-4.5669
X6.0433Y-2.1654
X6.063Y-2.3031
X6.0827Y-4.8425
X6.122Y-2.0472
X6.122Y-4.6654
X6.122Y-4.7441
X6.122Y-5.2953
X6.122Y-5.3346
X6.1417Y-2.2244
X6.1614Y-2.9528
X6.1614Y-4.2323
X6.1614Y-4.8031
X6.1614Y-4.9213
X6.1614Y-5.1772
X6.1811Y-3.0512
X6.1811Y-3.248
X6.1811Y-3.4449
X6.1811Y-3.7402
X6.1811Y-3.878
X6.1811Y-5.7677
X6.2008Y-2.4606
X6.2008Y-3.1693
X6.2008Y-3.3465
X6.2008Y-3.5039
X6.2008Y-3.8189
X6.2008Y-3.9567
X6.2008Y-4.0157
X6.2008Y-4.1535
X6.2008Y-5.1378
X6.2205Y-3.7795
X6.2402Y-2.1457
X6.2402Y-2.3425
X6.2402Y-2.7165
X6.2402Y-3.563
X6.2402Y-3.8583
X6.2402Y-3.9567
X6.2402Y-4.0748
X6.2402Y-5.2165
X6.2402Y-5.2953
X6.2402Y-5.3543
X6.2402Y-5.4134
X6.2402Y-5.6693
X6.2598Y-3.7992
X6.2598Y-4.0157
X6.2598Y-4.252
X6.2598Y-5.1575
X6.2598Y-5.6102
X6.2795Y-2.4803
X6.2795Y-3.0906
X6.2795Y-3.1693
X6.2795Y-3.2677
X6.2795Y-3.3268
X6.2795Y-3.4449
X6.2795Y-4.0748
X6.2795Y-4.1535
X6.2795Y-5.3346
X6.2795Y-5.4528
X6.2992Y-3.9173
X6.2992Y-3.9764
X6.2992Y-4.2913
X6.2992Y-5.3937
X6.2992Y-5.7087
X6.3189Y-3.5039
X6.3189Y-3.622
X6.3189Y-3.8386
X6.3189Y-4.0157
X6.3189Y-5.3543
X6.3189Y-5.4528
X6.3386Y-3.1299
X6.3583Y-2.2441
X6.3583Y-3.2283
X6.3583Y-5.4331
X6.378Y-2.0079
X6.378Y-3.5433
X6.3976Y-2.4016
X6.3976Y-2.815
X6.3976Y-3.189
X6.3976Y-3.3071
X6.3976Y-3.3858
X6.3976Y-3.4646
X6.3976Y-5.0
X6.3976Y-5.1575
X6.4173Y-3.6811
X6.4173Y-5.689
X6.437Y-2.7362
X6.437Y-3.248
X6.437Y-3.6024
X6.437Y-4.7638
X6.437Y-4.9606
X6.4567Y-2.1063
X6.4567Y-3.8189
X6.4567Y-4.2323
X6.4567Y-4.685
X6.4567Y-4.7244
X6.4567Y-4.8228
X6.4567Y-5.4528
X6.4764Y-3.248
X6.4764Y-3.3268
X6.4764Y-3.4252
X6.4764Y-3.5039
X6.4764Y-3.9173
X6.4764Y-4.0551
X6.4764Y-4.3898
X6.4764Y-4.8425
X6.4764Y-4.9213
X6.4764Y-5.0
X6.4764Y-5.0591
X6.4961Y-4.7047
X6.4961Y-5.2756
X6.5157Y-2.3031
X6.5157Y-2.8937
X6.5157Y-4.7638
X6.5157Y-4.8228
X6.5354Y-4.2717
X6.5354Y-4.4291
X6.5354Y-4.8622
X6.5354Y-4.9213
X6.5354Y-5.4134
X6.5354Y-5.689
X6.5748Y-2.7362
X6.5945Y-2.1457
X6.5945Y-3.0906
X6.6142Y-2.4213
X6.6339Y-2.9134
X6.6339Y-3.1496
X6.6339Y-4.2913
X6.6339Y-4.3701
X6.6339Y-4.5472
X6.6339Y-5.0197
X6.6535Y-3.1102
X6.6535Y-3.7795
X6.6535Y-4.9606
X6.6535Y-5.0787
X6.6535Y-5.1378
X6.6535Y-5.1772
X6.6535Y-5.4724
X6.6732Y-4.6654
X6.6929Y-1.9882
X6.6929Y-3.3465
X6.6929Y-4.4094
X6.6929Y-5.4331
X6.6929Y-5.7087
X6.7126Y-3.1299
X6.7126Y-3.622
X6.7126Y-5.3937
X6.7323Y-2.2638
X6.7323Y-3.189
X6.7323Y-3.4449
X6.7323Y-3.5236
X6.7323Y-4.5276
X6.7323Y-4.9409
X6.752Y-2.8937
X6.752Y-3.2087
X6.752Y-4.4291
X6.752Y-5.3543
X6.7717Y-2.0669
X6.7717Y-2.3819
X6.7717Y-3.9567
X6.7717Y-4.7441
X6.7717Y-4.9803
X6.7717Y-5.0394
X6.7717Y-5.0984
X6.7717Y-5.1575
X6.7717Y-5.2165
X6.7717Y-5.2953
X6.7717Y-5.689
X6.7913Y-3.3465
X6.7913Y-4.5669
X6.811Y-2.1654
X6.811Y-2.2835
X6.811Y-2.7953
X6.811Y-3.6024
X6.8307Y-3.7598
X6.8307Y-4.4882
X6.8307Y-5.4724
X6.8701Y-2.4409
X6.8701Y-3.0512
X6.8701Y-3.4252
X6.8701Y-4.6457
X6.8701Y-4.8622
X6.8701Y-5.7087
X6.8898Y-3.1299
X6.9094Y-3.878
X6.9094Y-4.0748
X6.9094Y-5.4528
X6.9291Y-2.7362
X6.9291Y-3.3268
X6.9291Y-3.6811
X6.9291Y-4.7441
X6.9488Y-1.9882
X6.9488Y-2.0866
X6.9488Y-4.8819
X6.9488Y-5.1575
X6.9488Y-5.5315
X6.9488Y-5.5906
X6.9488Y-5.6693
X6.9685Y-3.5039
X6.9685Y-4.6063
X6.9882Y-2.1654
X6.9882Y-2.3228
X6.9882Y-3.1496
X6.9882Y-3.622
X6.9882Y-3.8386
X6.9882Y-5.315
X7.0079Y-3.3465
X7.0079Y-3.937
X7.0276Y-3.0906
X7.0276Y-4.2126
X7.0276Y-5.0
X7.0669Y-3.3268
X7.0669Y-4.7244
X7.0866Y-2.7362
X7.0866Y-4.8622
X7.0866Y-5.0984
X7.0866Y-5.3937
X7.1063Y-2.4606
X7.1063Y-3.4646
X7.1063Y-3.7402
X7.1063Y-3.9173
X7.1063Y-5.2362
X7.126Y-2.2047
X7.126Y-3.563
X7.126Y-4.1929
X7.126Y-4.9409
X7.1457Y-3.6417
X7.1457Y-4.4094
X7.1457Y-4.7638
X7.1457Y-5.0394
X7.1457Y-5.5118
X7.1457Y-5.5118
X7.1654Y-3.3268
X7.185Y-1.9685
X7.185Y-5.1772
X7.185Y-5.2756
X7.2047Y-2.0472
X7.2047Y-4.8425
X7.2047Y-5.3543
X7.2244Y-4.9409
X7.2244Y-5.0197
X7.2244Y-5.1181
X7.2441Y-2.4213
X7.2441Y-3.8386
X7.2441Y-3.9764
X7.2638Y-5.5906
X7.2835Y-2.126
X7.2835Y-5.0
X7.2835Y-5.2165
X7.3031Y-3.3465
X7.3031Y-5.1378
X7.3031Y-5.4921
X7.3228Y-3.6417
X7.3228Y-4.0157
X7.3228Y-4.2913
X7.3228Y-4.5079
X7.3425Y-2.4016
X7.3622Y-3.4646
X7.3622Y-3.8583
X7.3622Y-4.1339
X7.3622Y-4.6654
X7.3622Y-5.5512
X7.3819Y-5.7677
X7.4016Y-5.4724
X7.4213Y-2.4016
X7.4606Y-3.7992
X7.4606Y-4.5079
X7.4803Y-3.5827
X7.4803Y-4.0354
X7.4803Y-4.311
X7.5197Y-2.3425
X7.5591Y-2.2638
X7.5591Y-2.5197
X7.5591Y-2.5787
X7.5591Y-3.1693
X7.5787Y-2.3819
X7.5787Y-2.9331
X7.5984Y-2.7756
X7.6181Y-3.0118
X7.6181Y-3.2874
X7.6181Y-5.5709
X7.6378Y-3.4843
X7.6378Y-3.7795
X7.6378Y-3.937
X7.6378Y-4.0945
X7.6378Y-4.3307
X7.6378Y-4.5276
X7.6378Y-4.6063
X7.6378Y-4.7244
X7.6378Y-4.8425
X7.6378Y-4.9409
X7.6378Y-5.0984
X7.6378Y-5.1969
X7.6378Y-5.4134
T2
X6.6339Y-3.2283
X6.6339Y-4.8819
X7.3819Y-3.2283
X7.3819Y-4.8819
T3
X4.0551Y-4.2913
X4.1698Y-5.3504
X4.311Y-4.2913
X4.5276Y-4.2913
X4.5748Y-5.0394
X4.5832Y-5.5866
X4.7638Y-4.2913
X4.9099Y-5.3504
X5.315Y-5.0394
X5.3233Y-5.5866
X5.6501Y-5.3504
X6.0551Y-5.0394
X6.0635Y-5.5866
X6.2795Y-4.5079
X6.4385Y-5.3543
X6.8435Y-5.0433
X6.8519Y-5.5906
X7.3819Y-2.3031
X7.3819Y-3.0315
X7.4213Y-5.0394
T4
X4.1462Y-5.5866
X4.2462Y-5.5866
X4.3462Y-5.5866
X4.4462Y-5.5866
X4.8863Y-5.5866
X4.9863Y-5.5866
X5.0863Y-5.5866
X5.1863Y-5.5866
X5.6265Y-5.5866
X5.7265Y-5.5866
X5.8265Y-5.5866
X5.9265Y-5.5866
X6.4149Y-5.5906
X6.5149Y-5.5906
X6.6149Y-5.5906
X6.7149Y-5.5906
T5
X4.2717Y-2.2047
X4.4685Y-2.2047
X4.6654Y-2.2047
X4.8622Y-2.2047
T6
X7.3819Y-2.5787
X7.3819Y-2.7756
T7
X3.8583Y-2.0079
X3.8583Y-5.7087
X7.5591Y-2.0079
X7.5591Y-5.7087
T2
G00X5.1766Y-2.8972
M15
G01X5.1294Y-2.8972
M16
G05
G00X5.1766Y-2.9972
M15
G01X5.1294Y-2.9972
M16
G05
G00X5.1766Y-3.0972
M15
G01X5.1294Y-3.0972
M16
G05
G00X5.1766Y-3.1972
M15
G01X5.1294Y-3.1972
M16
G05
G00X5.1766Y-3.2972
M15
G01X5.1294Y-3.2972
M16
G05
G00X5.1766Y-3.3972
M15
G01X5.1294Y-3.3972
M16
G05
G00X5.1766Y-3.4972
M15
G01X5.1294Y-3.4972
M16
G05
G00X5.1766Y-3.5972
M15
G01X5.1294Y-3.5972
M16
G05
G00X5.1766Y-3.6972
M15
G01X5.1294Y-3.6972
M16
G05
G00X5.1766Y-3.7972
M15
G01X5.1294Y-3.7972
M16
G05
G00X5.1766Y-3.8972
M15
G01X5.1294Y-3.8972
M16
G05
G00X5.1766Y-3.9972
M15
G01X5.1294Y-3.9972
M16
G05
G00X5.1766Y-4.0972
M15
G01X5.1294Y-4.0972
M16
G05
G00X5.1766Y-4.1972
M15
G01X5.1294Y-4.1972
M16
G05
G00X5.1766Y-4.2972
M15
G01X5.1294Y-4.2972
M16
G05
G00X5.1766Y-4.3972
M15
G01X5.1294Y-4.3972
M16
G05
G00X5.1766Y-4.4972
M15
G01X5.1294Y-4.4972
M16
G05
G00X5.1768Y-2.6974
M15
G01X5.1295Y-2.6974
M16
G05
G00X5.1768Y-2.7974
M15
G01X5.1295Y-2.7974
M16
G05
G00X6.0768Y-2.6972
M15
G01X6.0295Y-2.6972
M16
G05
G00X6.0768Y-2.7972
M15
G01X6.0295Y-2.7972
M16
G05
G00X6.0768Y-2.8972
M15
G01X6.0295Y-2.8972
M16
G05
G00X6.0768Y-2.9972
M15
G01X6.0295Y-2.9972
M16
G05
G00X6.0768Y-3.0972
M15
G01X6.0295Y-3.0972
M16
G05
G00X6.0768Y-3.1972
M15
G01X6.0295Y-3.1972
M16
G05
G00X6.0768Y-3.2972
M15
G01X6.0295Y-3.2972
M16
G05
G00X6.0768Y-3.3972
M15
G01X6.0295Y-3.3972
M16
G05
G00X6.0768Y-3.4972
M15
G01X6.0295Y-3.4972
M16
G05
G00X6.0768Y-3.5972
M15
G01X6.0295Y-3.5972
M16
G05
G00X6.0768Y-3.6972
M15
G01X6.0295Y-3.6972
M16
G05
G00X6.0768Y-3.7972
M15
G01X6.0295Y-3.7972
M16
G05
G00X6.0768Y-3.8972
M15
G01X6.0295Y-3.8972
M16
G05
G00X6.0768Y-3.9972
M15
G01X6.0295Y-3.9972
M16
G05
G00X6.0768Y-4.0972
M15
G01X6.0295Y-4.0972
M16
G05
G00X6.0768Y-4.1972
M15
G01X6.0295Y-4.1972
M16
G05
G00X6.0768Y-4.2972
M15
G01X6.0295Y-4.2972
M16
G05
G00X6.0768Y-4.3972
M15
G01X6.0295Y-4.3972
M16
G05
G00X6.0374Y-4.4972
M15
G01X6.0689Y-4.4972
M16
G05
M30
